<svg width="975" height="418" viewBox="0 0 975 418" fill="none" xmlns="http://www.w3.org/2000/svg">
<g opacity="0.3" clip-path="url(#clip0_75_178)">
<path d="M312.973 333.577H268.503V411.625H160.682V333.577H0V253.85L167.814 8.37462H268.503V252.171H312.973V333.577ZM160.682 252.171V205.174C160.682 196.362 161.102 184.613 161.521 169.507C162.36 154.401 162.78 146.848 163.199 146.009H160.262C153.969 160.276 146.837 173.284 138.866 185.872L94.3954 252.171H160.682Z" fill="#979797"/>
<path d="M632.659 210.629C632.659 281.964 620.493 334.416 596.999 367.566C573.085 400.715 536.586 417.5 487.081 417.5C438.834 417.5 402.754 400.296 378.002 365.468C353.668 330.64 341.502 279.027 341.502 210.629C341.502 138.875 353.249 86.4231 377.582 52.8539C401.495 19.2846 437.995 2.5 487.5 2.5C535.327 2.5 571.827 20.1239 596.16 54.952C620.493 89.7801 632.659 141.393 632.659 210.629ZM449.742 210.629C449.742 256.368 452.679 287.839 458.133 304.623C464.006 321.828 473.236 330.22 486.661 330.22C500.086 330.22 509.736 321.408 515.609 303.784C521.063 286.16 524 255.109 524 210.629C524 165.731 521.063 134.679 515.609 116.635C509.736 98.592 500.506 89.7801 487.081 89.7801C473.656 89.7801 464.006 98.592 458.552 115.796C452.679 133 449.742 164.472 449.742 210.629Z" fill="#979797"/>
<path d="M975 333.577H930.529V411.625H822.708V333.577H662.026V253.85L829.84 8.37462H930.529V252.171H975V333.577ZM823.128 252.171V205.174C823.128 196.362 823.547 184.613 823.967 169.507C824.806 154.401 825.226 146.848 825.645 146.009H822.708C816.415 160.276 809.283 173.284 801.312 185.872L756.422 252.591H823.128V252.171Z" fill="#979797"/>
</g>
<path d="M439.142 354.504H474.354V402.921L469.953 411.724H430.339C427.698 411.724 425.938 409.963 425.938 407.322V394.118C425.938 387.956 430.339 382.234 436.501 381.353L439.142 380.913V354.504Z" stroke="black" stroke-width="3" stroke-miterlimit="10"/>
<path d="M434.741 380.913H463.351C469.513 380.913 474.355 383.554 474.355 389.716V394.118" stroke="black" stroke-width="3" stroke-miterlimit="10"/>
<path d="M526.733 354.504H491.521V407.322C491.521 409.963 493.281 411.724 495.922 411.724H544.339C546.98 411.724 548.741 409.963 548.741 407.322V394.118C548.741 387.956 544.339 382.234 538.177 381.353L526.733 380.913V354.504Z" stroke="black" stroke-width="3" stroke-miterlimit="10"/>
<path d="M501.645 45.5157C501.645 48.5968 499.004 50.7976 496.363 50.7976C493.282 50.7976 491.081 48.1566 491.081 45.5157C491.081 42.4346 493.722 40.2339 496.363 40.2339C499.444 40.2339 501.645 42.8748 501.645 45.5157Z" fill="black"/>
<path d="M524.532 45.5157C524.532 48.5968 521.892 50.7976 519.251 50.7976C516.17 50.7976 513.969 48.1566 513.969 45.5157C513.969 42.4346 516.61 40.2339 519.251 40.2339C521.892 40.2339 524.532 42.8748 524.532 45.5157Z" fill="black"/>
<path d="M434.741 107.137V54.3185C434.741 25.2683 458.51 1.5 487.56 1.5C516.61 1.5 540.378 25.2683 540.378 54.3185V107.137C561.066 177.562 581.313 248.427 602 318.851C598.479 321.052 587.915 327.654 572.95 326.334C562.386 325.454 555.344 321.052 551.822 318.851C549.181 320.612 541.259 326.334 529.375 326.334C517.05 326.334 508.687 320.612 506.486 318.851C503.846 321.052 495.483 326.774 483.158 326.334C472.154 326.334 464.232 321.492 461.591 319.291C458.95 321.052 451.027 326.334 439.583 326.334C428.579 326.334 420.656 321.492 418.015 319.291C415.375 321.052 407.452 326.334 396.448 326.334C384.564 326.334 376.641 320.612 374 318.851C393.367 248.427 414.054 177.562 434.741 107.137Z" stroke="black" stroke-width="3" stroke-miterlimit="10"/>
<defs>
<clipPath id="clip0_75_178">
<rect width="975" height="415" fill="white" transform="translate(0 2.5)"/>
</clipPath>
</defs>
</svg>
