<svg width="200" height="200" viewBox="0 0 200 200" fill="none" xmlns="http://www.w3.org/2000/svg">
<path d="M179.951 147.122L92.6869 171.683C91.745 171.915 90.7537 171.84 89.857 171.471C88.9602 171.101 88.2045 170.455 87.6995 169.627L21.5249 50.5301C21.3004 50.1762 21.1652 49.7732 21.1308 49.3555C21.0964 48.9379 21.1638 48.5181 21.3273 48.1322C21.4908 47.7464 21.7454 47.4059 22.0694 47.1401C22.3933 46.8743 22.7769 46.691 23.1873 46.6061L110.451 22.0453C111.391 21.8126 112.382 21.8859 113.277 22.2546C114.173 22.6233 114.928 23.2682 115.432 24.0955L181.595 143.192C181.82 143.546 181.955 143.948 181.991 144.365C182.026 144.781 181.96 145.201 181.799 145.587C181.637 145.972 181.385 146.314 181.063 146.581C180.741 146.848 180.36 147.034 179.951 147.122Z" fill="#263238" stroke="black" stroke-miterlimit="10"/>
<path d="M91.4592 166.461C91.4592 166.461 141.885 154.465 175.827 142.711L91.4592 166.461Z" fill="#884849"/>
<path d="M175.827 142.711L91.4592 166.461L26.2009 49.0204L110.569 25.2762L175.827 142.711Z" fill="white" stroke="#263238" stroke-miterlimit="10"/>
<path d="M85.5789 50.1483L92.1288 48.3037" stroke="#263238" stroke-miterlimit="10"/>
<path d="M40.1465 62.9367L80.5092 51.5757" stroke="#263238" stroke-miterlimit="10"/>
<path d="M78.3945 57.4442L94.6665 52.8622" stroke="#263238" stroke-miterlimit="10"/>
<path d="M53.458 64.4641L73.9537 58.6954" stroke="#263238" stroke-miterlimit="10"/>
<path d="M42.6785 67.4952L49.6513 65.5332" stroke="#263238" stroke-miterlimit="10"/>
<path d="M65.5002 66.3497L97.2042 57.4265" stroke="#263238" stroke-miterlimit="10"/>
<path d="M45.2161 72.0596L58.5274 68.3118" stroke="#263238" stroke-miterlimit="10"/>
<path d="M114.956 46.7117C114.122 45.3476 112.876 44.2838 111.398 43.6736C109.92 43.0633 108.286 42.9382 106.732 43.3163C103.695 44.174 102.468 47.0759 103.983 49.8075C104.816 51.1736 106.062 52.2391 107.54 52.8496C109.019 53.4601 110.654 53.5838 112.207 53.2029C115.215 52.3511 116.472 49.4433 114.956 46.7117Z" fill="white" stroke="#263238" stroke-miterlimit="10"/>
<path d="M57.9989 81.4292L51.449 83.2737" stroke="#263238" stroke-miterlimit="10"/>
<path d="M103.431 68.6407L63.0684 80.0018" stroke="#263238" stroke-miterlimit="10"/>
<path d="M70.2527 83.2561L53.9807 87.8381" stroke="#263238" stroke-miterlimit="10"/>
<path d="M95.1893 76.2363L74.6936 82.005" stroke="#263238" stroke-miterlimit="10"/>
<path d="M105.969 73.2051L98.9958 75.1671" stroke="#263238" stroke-miterlimit="10"/>
<path d="M88.2164 83.4735L56.5183 92.3967" stroke="#263238" stroke-miterlimit="10"/>
<path d="M108.507 77.7637L95.1895 81.5115" stroke="#263238" stroke-miterlimit="10"/>
<path d="M126.259 67.0546C125.426 65.6885 124.18 64.623 122.702 64.0126C121.223 63.4021 119.588 63.2783 118.035 63.6592C114.998 64.511 113.77 67.4188 115.285 70.121C116.117 71.4878 117.363 72.5538 118.842 73.1644C120.321 73.775 121.956 73.8983 123.51 73.5164C126.541 72.6881 127.774 69.7803 126.259 67.0546Z" fill="white" stroke="#263238" stroke-miterlimit="10"/>
<path d="M108.183 90.8223L114.733 88.9778" stroke="#263238" stroke-miterlimit="10"/>
<path d="M62.7512 103.611L103.114 92.2498" stroke="#263238" stroke-miterlimit="10"/>
<path d="M100.999 98.1241L117.271 93.5421" stroke="#263238" stroke-miterlimit="10"/>
<path d="M76.0625 105.144L96.5582 99.3695" stroke="#263238" stroke-miterlimit="10"/>
<path d="M65.283 108.175L72.2558 106.213" stroke="#263238" stroke-miterlimit="10"/>
<path d="M88.105 107.024L119.803 98.1066" stroke="#263238" stroke-miterlimit="10"/>
<path d="M67.8208 112.74L81.1321 108.992" stroke="#263238" stroke-miterlimit="10"/>
<path d="M137.925 91.2389C138.932 88.6785 137.121 85.5703 133.881 84.2968C130.641 83.0232 127.199 84.0664 126.193 86.6268C125.186 89.1873 126.997 92.2954 130.236 93.569C133.476 94.8426 136.918 93.7994 137.925 91.2389Z" fill="white" stroke="#263238" stroke-miterlimit="10"/>
<path d="M80.6034 122.109L74.0535 123.954" stroke="#263238" stroke-miterlimit="10"/>
<path d="M126.036 109.321L85.6729 120.682" stroke="#263238" stroke-miterlimit="10"/>
<path d="M92.8572 123.936L76.5852 128.512" stroke="#263238" stroke-miterlimit="10"/>
<path d="M117.794 116.916L97.2983 122.685" stroke="#263238" stroke-miterlimit="10"/>
<path d="M128.573 113.879L121.601 115.841" stroke="#263238" stroke-miterlimit="10"/>
<path d="M110.821 124.153L79.123 133.077" stroke="#263238" stroke-miterlimit="10"/>
<path d="M131.105 118.444L117.794 122.191" stroke="#263238" stroke-miterlimit="10"/>
<path d="M148.858 107.729C148.024 106.363 146.779 105.298 145.3 104.688C143.822 104.078 142.187 103.953 140.634 104.333C137.596 105.191 136.369 108.093 137.884 110.825C138.717 112.191 139.963 113.256 141.441 113.867C142.92 114.477 144.555 114.601 146.108 114.22C149.145 113.386 150.379 110.449 148.858 107.729Z" fill="white" stroke="#263238" stroke-miterlimit="10"/>
<path d="M130.788 131.502L137.338 129.658" stroke="#263238" stroke-miterlimit="10"/>
<path d="M85.3557 144.291L125.718 132.93" stroke="#263238" stroke-miterlimit="10"/>
<path d="M123.604 138.798L139.876 134.222" stroke="#263238" stroke-miterlimit="10"/>
<path d="M98.667 145.818L119.163 140.05" stroke="#263238" stroke-miterlimit="10"/>
<path d="M87.8875 148.855L94.8603 146.887" stroke="#263238" stroke-miterlimit="10"/>
<path d="M110.709 147.704L142.408 138.781" stroke="#263238" stroke-miterlimit="10"/>
<path d="M90.4253 153.414L103.737 149.666" stroke="#263238" stroke-miterlimit="10"/>
<path d="M160.528 131.915C161.535 129.354 159.724 126.246 156.484 124.973C153.244 123.699 149.802 124.742 148.796 127.303C147.789 129.863 149.6 132.971 152.839 134.245C156.079 135.518 159.522 134.475 160.528 131.915Z" fill="white" stroke="#263238" stroke-miterlimit="10"/>
<path d="M82.0073 27.2676L70.9165 30.3869C70.0765 30.4221 69.1542 30.3575 68.8958 29.9287C68.3083 28.8243 69.0602 27.7904 69.2952 26.8153C69.5672 25.6913 69.3924 24.5057 68.8076 23.508C67.9515 22.1046 66.6706 21.0103 65.1507 20.384C63.6307 19.7576 61.9508 19.6317 60.3544 20.0245C57.241 20.9057 55.9839 23.884 57.5347 26.6802C58.2956 27.9717 59.4361 28.9974 60.8009 29.6173C60.8009 29.6173 63.0508 30.6219 63.5031 31.4325C63.7439 31.8614 63.1154 32.3665 62.4751 32.7484L50.5208 36.1144C50.07 36.2091 49.6489 36.4116 49.2933 36.7043C48.9378 36.9971 48.6583 37.3716 48.4789 37.7957C48.2994 38.2199 48.2252 38.6812 48.2626 39.1403C48.3001 39.5994 48.448 40.0425 48.6938 40.432L50.3093 43.334L89.1212 32.4135L87.5057 29.5057C86.9474 28.5955 86.1128 27.8874 85.1237 27.4848C84.1346 27.0822 83.0427 27.0061 82.0073 27.2676ZM62.2519 23.4728C62.7633 23.3461 63.3018 23.386 63.7889 23.5868C64.276 23.7876 64.6863 24.1386 64.9599 24.5889C65.0815 24.7809 65.1547 24.9996 65.1731 25.2262C65.1915 25.4527 65.1547 25.6804 65.0657 25.8896C64.9767 26.0987 64.8383 26.2832 64.6623 26.427C64.4863 26.5709 64.278 26.6698 64.0553 26.7154C63.5454 26.8422 63.0082 26.8029 62.5222 26.6032C62.0362 26.4035 61.6266 26.0539 61.3531 25.6052C61.2316 25.413 61.1585 25.1944 61.1397 24.9679C61.121 24.7414 61.1574 24.5137 61.2456 24.3043C61.3339 24.0948 61.4715 23.9098 61.6467 23.765C61.8219 23.6203 62.0295 23.52 62.2519 23.4728Z" fill="#789F40" stroke="#263238" stroke-miterlimit="10"/>
<path d="M105.939 47.0524L110.727 50.3949L115.662 39.3335" stroke="#789F40" stroke-linecap="round" stroke-linejoin="round"/>
<path d="M117.065 67.0782L121.853 70.4148L126.788 59.3593" stroke="#789F40" stroke-linecap="round" stroke-linejoin="round"/>
</svg>
