<svg width="200" height="200" viewBox="0 0 200 200" fill="none" xmlns="http://www.w3.org/2000/svg">
<path d="M31.064 94.476C-7.00803 116.456 -7.00402 152.076 31.064 174.076C69.132 196.076 130.86 196.056 168.932 174.076C207.004 152.096 207 116.476 168.932 94.476C130.864 72.476 69.136 72.496 31.064 94.476Z" fill="#FAFAFA"/>
<path d="M191.56 126.856L185.312 119.76L119.448 81.672C117.808 80.552 115.352 82.824 114.396 85.116C114.247 85.458 114.135 85.8146 114.06 86.18C113.876 87.132 114.036 87.992 114.744 88.476L181.144 126.876L190.256 128.676L192.736 129.168C192.81 129.184 192.887 129.177 192.957 129.147C193.026 129.116 193.084 129.064 193.122 128.999C193.16 128.933 193.176 128.857 193.168 128.782C193.159 128.707 193.127 128.636 193.076 128.58L191.56 126.856Z" fill="#E0E0E0"/>
<path d="M80.716 77.972L7.87595 126.832C6.79195 127.56 6.79595 128.66 7.87595 129.292L106.356 186.092C106.974 186.399 107.659 186.544 108.349 186.513C109.038 186.483 109.708 186.277 110.296 185.916L183.136 137.056C184.22 136.328 184.216 135.224 183.136 134.592L84.656 77.796C84.0381 77.4892 83.3524 77.3444 82.6632 77.3752C81.9741 77.4059 81.304 77.6113 80.716 77.972Z" fill="#E0E0E0"/>
<path d="M122.36 89.4401L123.212 89.9281L124.236 90.5201L182.32 124.12C182 123.404 182.248 121.976 182.98 120.608C183.828 119.008 185.128 117.748 186.068 117.7L128.26 84.2601L126.296 83.1321C127.528 83.9321 123.6 90.2241 122.36 89.4401Z" fill="#455A64"/>
<path d="M128.172 84.204L126.268 83.116C125.728 82.784 124.704 83.756 123.804 85.04C122.604 86.744 121.636 89 122.352 89.44L123.756 90.24L124.26 90.516C123.544 90.076 124.512 87.816 125.712 86.116C126.572 84.888 127.56 83.94 128.112 84.168C128.135 84.174 128.156 84.1865 128.172 84.204Z" fill="#EBEBEB"/>
<path d="M127.696 83.9361C126.44 83.1601 122.528 89.4841 123.78 90.2601L125.68 91.3521C124.428 90.5761 128.34 84.2521 129.596 85.0281L127.696 83.9361Z" fill="#789F40"/>
<path d="M131.404 86.072L129.528 84.992C128.304 84.22 124.464 90.288 125.504 91.252C125.524 91.2724 125.547 91.2899 125.572 91.304L127.468 92.376C126.24 91.6 130.16 85.284 131.404 86.072Z" fill="#EBEBEB"/>
<path d="M126.296 83.12H126.268C125.732 82.776 124.708 83.756 123.808 85.044C122.608 86.716 121.656 88.928 122.324 89.42L114.4 84.864C113.764 84.428 113.6 83.664 113.784 82.796C114.224 80.484 116.928 77.552 118.64 78.72L126.296 83.12Z" fill="#F28F8F"/>
<path d="M191.132 124.4C190.476 125.288 190.54 125.724 190.54 125.724L182.32 124.104C181.52 122.86 182.04 120.836 183.168 119.396L183.528 119.6L191.132 124.4Z" fill="#F28F8F"/>
<path d="M192.776 126.168L190.54 125.732C190.54 125.732 190.44 125.296 191.132 124.408L193.084 125.64C193.139 125.703 193.166 125.785 193.162 125.869C193.158 125.952 193.121 126.031 193.06 126.088C193.023 126.124 192.978 126.151 192.928 126.165C192.879 126.179 192.826 126.18 192.776 126.168Z" fill="#37474F"/>
<path d="M186.064 117.692L191.704 124.092C191.481 124.131 191.277 124.244 191.124 124.412L183.524 119.612L183.164 119.408C183.936 118.42 184.984 117.704 186.064 117.692Z" fill="#FFA8A7"/>
<path d="M191.132 124.4C191.199 124.307 191.286 124.23 191.386 124.175C191.486 124.12 191.598 124.087 191.712 124.08L193.084 125.632L191.132 124.4Z" fill="#455A64"/>
<path opacity="0.2" d="M183.168 119.404L114.58 80.868C114.201 81.4581 113.93 82.111 113.78 82.796C113.612 83.656 113.76 84.424 114.4 84.864L122.36 89.44L123.212 89.928L124.236 90.52L182.32 124.12C181.316 122.568 182.4 120.28 183.168 119.404Z" fill="black"/>
<path d="M82.5961 80.436L13.5321 122.964L12.1201 125.448V127.4C12.126 127.885 12.2619 128.359 12.5138 128.774C12.7657 129.188 13.1243 129.528 13.5521 129.756L105.052 182.66C105.78 183.057 106.605 183.24 107.432 183.188C108.275 183.16 109.095 182.904 109.804 182.448L177.308 137.144V135.196L82.5961 80.436Z" fill="#263238"/>
<path d="M107.42 181.24C106.594 181.291 105.77 181.106 105.044 180.708L13.5521 127.804C13.124 127.576 12.7652 127.237 12.5133 126.822C12.2613 126.408 12.1255 125.933 12.1201 125.448C12.1293 124.949 12.2633 124.46 12.51 124.026C12.7566 123.592 13.108 123.227 13.5321 122.964L79.5321 78.668L177.3 135.2L109.792 180.496C109.083 180.953 108.263 181.21 107.42 181.24Z" fill="#789F40"/>
<path d="M79.5161 72.948L14.2561 116.74L13.6001 117.784L13.6321 125.384C13.6467 125.593 13.7171 125.795 13.8359 125.968C13.9548 126.141 14.1178 126.279 14.3081 126.368L105.788 179.268C106.297 179.521 106.863 179.641 107.431 179.616C107.999 179.59 108.551 179.421 109.036 179.124L174.3 135.332L174.264 127.732L79.5161 72.948Z" fill="#EBEBEB"/>
<path d="M174.268 127.736L173.468 128.284L162.848 135.408L160.872 136.74L109.024 171.54C108.539 171.837 107.987 172.006 107.419 172.031C106.851 172.056 106.285 171.937 105.776 171.684L14.2601 118.768C13.3681 118.248 13.3641 117.336 14.2601 116.736L15.1281 116.156L79.5281 72.9561L173.456 127.264L173.652 127.384L174.268 127.736Z" fill="#F0F0F0"/>
<path d="M107.38 172.024L107.412 179.624C106.856 179.657 106.302 179.536 105.812 179.272L14.2961 126.364C14.1061 126.275 13.9435 126.137 13.8252 125.964C13.707 125.791 13.6375 125.589 13.6241 125.38L13.5881 117.78C13.6048 117.988 13.6755 118.189 13.7934 118.361C13.9112 118.534 14.0721 118.673 14.2601 118.764L105.76 171.672C106.256 171.939 106.818 172.061 107.38 172.024Z" fill="#E0E0E0"/>
<path d="M174.264 126.724L162.516 134.604L160.672 135.84L109.004 170.512C108.52 170.809 107.967 170.979 107.399 171.005C106.831 171.031 106.266 170.912 105.756 170.66L23.8202 123.284C23.0842 122.884 22.4002 122.484 21.7602 122.084C18.4242 120.044 16.4122 118.176 15.1202 116.148L14.9642 115.892C14.8607 115.736 14.79 115.56 14.7562 115.376C14.6938 114.985 14.7742 114.584 14.9828 114.247C15.1913 113.91 15.5141 113.659 15.8922 113.54C18.0497 112.757 20.1121 111.733 22.0402 110.488L22.1202 110.436L79.5082 71.924L174.264 126.724Z" fill="white"/>
<path d="M79.5242 72.4L173.524 126.744L162.324 134.268L160.484 135.504L108.8 170.18C108.327 170.469 107.782 170.617 107.228 170.608C106.791 170.619 106.358 170.517 105.972 170.312L24.0002 122.932C23.3322 122.564 22.6602 122.176 21.9562 121.752C18.8162 119.828 16.7562 117.984 15.4482 115.944L15.3762 115.828L15.2882 115.688C15.2101 115.567 15.1584 115.43 15.1362 115.288C15.0937 114.991 15.1591 114.688 15.3206 114.435C15.482 114.182 15.7288 113.995 16.0162 113.908C18.2012 113.116 20.2893 112.079 22.2402 110.816L22.2882 110.788H22.3122L79.5122 72.4159M79.5122 71.944L22.1202 110.444L22.0402 110.496C20.1121 111.741 18.0497 112.765 15.8922 113.548C15.5141 113.667 15.1913 113.918 14.9828 114.255C14.7742 114.592 14.6938 114.993 14.7562 115.384C14.79 115.568 14.8607 115.744 14.9642 115.9L15.1202 116.156C16.4122 118.184 18.4242 120.052 21.7602 122.092C22.4002 122.492 23.0842 122.892 23.8202 123.292L105.756 170.66C106.203 170.9 106.705 171.02 107.212 171.008C107.845 171.018 108.467 170.846 109.004 170.512L160.672 135.84L162.516 134.604L174.264 126.724L79.5082 71.924L79.5122 71.944Z" fill="#E0E0E0"/>
<path opacity="0.1" d="M162.064 126.376C161.232 126.94 161.236 127.792 162.064 128.28C162.54 128.517 163.069 128.629 163.6 128.605C164.131 128.582 164.647 128.423 165.1 128.144C165.936 127.58 165.936 126.728 165.1 126.24C164.625 126.002 164.096 125.889 163.564 125.913C163.033 125.937 162.517 126.096 162.064 126.376Z" fill="black"/>
<path d="M171.788 119.784C170.628 119.116 169.18 119.292 167.704 120.276C165.424 121.816 163.456 125.104 162.608 128.492C162.971 128.601 163.352 128.633 163.728 128.588C164.528 125.568 166.252 122.672 168.272 121.308C168.818 120.912 169.461 120.671 170.132 120.608C170.515 120.585 170.895 120.674 171.228 120.864C172.208 121.432 172.776 122.892 172.784 124.864C172.788 125.19 172.772 125.516 172.736 125.84L173.804 126.46C173.875 125.914 173.911 125.363 173.912 124.812C173.9 122.4 173.128 120.56 171.788 119.784Z" fill="#263238"/>
<path d="M173.704 127.096C173.693 127.193 173.676 127.289 173.652 127.384L173.456 127.264L173.704 127.096Z" fill="#263238"/>
<path opacity="0.1" d="M152.896 121.072C152.064 121.636 152.068 122.488 152.896 122.976C153.372 123.213 153.901 123.325 154.432 123.301C154.963 123.278 155.479 123.119 155.932 122.84C156.768 122.276 156.768 121.424 155.932 120.936C155.456 120.698 154.928 120.586 154.397 120.61C153.865 120.634 153.349 120.793 152.896 121.072Z" fill="black"/>
<path d="M162.62 114.484C161.46 113.812 160.012 113.988 158.54 114.972C156.256 116.512 154.288 119.8 153.44 123.192C153.804 123.297 154.184 123.329 154.56 123.288C155.36 120.264 157.088 117.368 159.104 116.004C159.65 115.608 160.293 115.367 160.964 115.304C161.347 115.282 161.728 115.373 162.06 115.564C163.04 116.128 163.608 117.588 163.616 119.564C163.62 119.89 163.604 120.216 163.568 120.54L164.636 121.16C164.711 120.614 164.747 120.063 164.744 119.512C164.732 117.092 163.96 115.26 162.62 114.484Z" fill="#263238"/>
<path opacity="0.1" d="M143.724 115.772C142.896 116.332 142.896 117.184 143.724 117.676C144.2 117.911 144.729 118.022 145.26 117.999C145.79 117.975 146.307 117.817 146.76 117.54C147.6 116.976 147.596 116.124 146.76 115.636C146.284 115.398 145.756 115.286 145.224 115.31C144.693 115.334 144.177 115.493 143.724 115.772Z" fill="black"/>
<path d="M153.448 109.2C152.292 108.528 150.844 108.708 149.368 109.688C147.084 111.228 145.12 114.516 144.268 117.908C144.632 118.012 145.012 118.045 145.388 118.004C146.188 114.98 147.916 112.084 149.936 110.72C150.48 110.324 151.122 110.082 151.792 110.02C152.176 110.001 152.557 110.091 152.892 110.28C153.868 110.844 154.44 112.304 154.448 114.28C154.451 114.607 154.433 114.935 154.396 115.26L155.468 115.876C155.54 115.331 155.575 114.782 155.572 114.232C155.56 111.788 154.8 109.956 153.448 109.2Z" fill="#263238"/>
<path opacity="0.1" d="M134.556 110.468C133.724 111.032 133.728 111.884 134.556 112.372C135.032 112.609 135.56 112.721 136.091 112.698C136.622 112.675 137.139 112.518 137.592 112.24C138.428 111.672 138.428 110.82 137.592 110.332C137.116 110.095 136.588 109.984 136.057 110.008C135.525 110.031 135.009 110.19 134.556 110.468Z" fill="black"/>
<path d="M144.28 103.88C143.12 103.208 141.672 103.388 140.2 104.372C137.916 105.908 135.948 109.196 135.1 112.588C135.464 112.693 135.844 112.725 136.22 112.684C137 109.66 138.744 106.764 140.768 105.4C141.312 105.004 141.954 104.762 142.624 104.7C143.008 104.681 143.389 104.771 143.724 104.96C144.7 105.524 145.268 106.984 145.276 108.96C145.28 109.287 145.264 109.615 145.228 109.94L146.3 110.556C146.37 110.011 146.405 109.462 146.404 108.912C146.4 106.488 145.62 104.656 144.28 103.88Z" fill="#263238"/>
<path opacity="0.1" d="M125.388 105.168C124.556 105.732 124.56 106.584 125.388 107.072C125.863 107.309 126.391 107.421 126.922 107.398C127.452 107.374 127.968 107.215 128.42 106.936C129.26 106.372 129.256 105.52 128.42 105.032C127.945 104.794 127.417 104.682 126.886 104.706C126.356 104.73 125.84 104.889 125.388 105.168Z" fill="black"/>
<path d="M135.112 98.5761C133.952 97.9041 132.504 98.0841 131.032 99.0681C128.748 100.608 126.78 103.892 125.932 107.284C126.295 107.393 126.676 107.426 127.052 107.38C127.832 104.36 129.576 101.464 131.596 100.1C132.143 99.7044 132.785 99.4614 133.456 99.3961C133.839 99.3773 134.219 99.4674 134.552 99.6561C135.532 100.224 136.1 101.684 136.108 103.656C136.112 103.982 136.096 104.308 136.06 104.632L137.128 105.248C137.2 104.703 137.235 104.154 137.232 103.604C137.224 101.2 136.448 99.3521 135.112 98.5761Z" fill="#263238"/>
<path opacity="0.1" d="M116.216 99.864C115.384 100.428 115.388 101.28 116.216 101.768C116.691 102.005 117.219 102.117 117.75 102.094C118.28 102.07 118.796 101.911 119.248 101.632C120.088 101.068 120.084 100.216 119.248 99.728C118.773 99.4911 118.245 99.3792 117.715 99.403C117.184 99.4268 116.668 99.5855 116.216 99.864Z" fill="black"/>
<path d="M125.94 93.272C124.78 92.604 123.332 92.784 121.86 93.764C119.576 95.304 117.6 98.592 116.76 102C117.123 102.105 117.504 102.137 117.88 102.096C118.66 99.072 120.404 96.176 122.424 94.812C122.97 94.4165 123.613 94.1747 124.284 94.112C124.667 94.0919 125.047 94.1821 125.38 94.372C126.36 94.936 126.928 96.396 126.936 98.372C126.94 98.698 126.924 99.024 126.888 99.348L127.956 99.968C128.027 99.4229 128.063 98.8738 128.064 98.324C128.052 95.884 127.28 94.048 125.94 93.272Z" fill="#263238"/>
<path opacity="0.1" d="M107.048 94.564C106.216 95.128 106.22 95.98 107.048 96.468C107.523 96.7053 108.051 96.8173 108.582 96.7935C109.112 96.7697 109.628 96.6109 110.08 96.332C110.92 95.768 110.916 94.916 110.08 94.428C109.605 94.1903 109.077 94.0781 108.546 94.1019C108.016 94.1257 107.5 94.2848 107.048 94.564Z" fill="black"/>
<path d="M116.772 87.972C115.612 87.304 114.164 87.48 112.688 88.464C110.4 90 108.44 93.292 107.6 96.68C107.963 96.7889 108.344 96.8215 108.72 96.776C109.52 93.756 111.244 90.86 113.264 89.492C113.811 89.0991 114.453 88.8589 115.124 88.796C115.506 88.7747 115.887 88.8635 116.22 89.052C117.2 89.62 117.768 91.08 117.776 93.052C117.778 93.378 117.762 93.7038 117.728 94.028L118.796 94.644C118.867 94.0989 118.903 93.5498 118.904 93C118.884 90.584 118.112 88.748 116.772 87.972Z" fill="#263238"/>
<path opacity="0.1" d="M97.8762 89.26C97.0442 89.824 97.0482 90.676 97.8762 91.164C98.3521 91.4012 98.8806 91.5133 99.4118 91.4895C99.943 91.4657 100.459 91.3068 100.912 91.028C101.748 90.468 101.748 89.612 100.912 89.124C100.436 88.8875 99.9077 88.7759 99.3766 88.7997C98.8455 88.8234 98.3292 88.9818 97.8762 89.26Z" fill="black"/>
<path d="M107.6 82.672C106.44 82 104.996 82.18 103.52 83.16C101.236 84.7 99.2682 87.988 98.4202 91.38C98.7836 91.4849 99.1641 91.5175 99.5402 91.476C100.34 88.452 102.064 85.556 104.088 84.192C104.633 83.7959 105.274 83.554 105.944 83.492C106.327 83.4719 106.707 83.5621 107.04 83.752C108.02 84.316 108.588 85.776 108.596 87.752C108.6 88.078 108.584 88.404 108.548 88.728L109.62 89.348C109.69 88.8028 109.725 88.2537 109.724 87.704C109.712 85.28 108.94 83.448 107.6 82.672Z" fill="#263238"/>
<path opacity="0.1" d="M88.7082 83.9601C87.8762 84.5201 87.8802 85.3721 88.7082 85.8641C89.1843 86.1006 89.7127 86.2122 90.2438 86.1884C90.7748 86.1646 91.2912 86.0062 91.7442 85.7281C92.5802 85.1641 92.5802 84.3121 91.7442 83.8241C91.2684 83.5864 90.7398 83.4742 90.2085 83.498C89.6772 83.5218 89.1608 83.6808 88.7082 83.9601Z" fill="black"/>
<path d="M98.4322 77.368C97.2722 76.696 95.8242 76.876 94.3522 77.86C92.0682 79.4 90.1002 82.684 89.2522 86.076C89.6153 86.1828 89.9962 86.2154 90.3722 86.172C91.1522 83.148 92.8962 80.252 94.9162 78.888C95.4632 78.494 96.1051 78.2524 96.7762 78.188C97.1589 78.1679 97.5393 78.2582 97.8722 78.448C98.8522 79.012 99.4202 80.472 99.4282 82.448C99.4322 82.7754 99.4161 83.1027 99.3802 83.428L100.448 84.044C100.521 83.4991 100.557 82.9499 100.556 82.4C100.544 79.976 99.7722 78.144 98.4322 77.368Z" fill="#263238"/>
<path opacity="0.1" d="M79.5361 78.656C78.7041 79.22 78.7081 80.072 79.5361 80.56C80.012 80.7972 80.5405 80.9093 81.0717 80.8855C81.6029 80.8617 82.1193 80.7028 82.5721 80.424C83.4121 79.86 83.4081 79.008 82.5721 78.52C82.096 78.2835 81.5676 78.1719 81.0365 78.1956C80.5054 78.2194 79.9891 78.3778 79.5361 78.656Z" fill="black"/>
<path d="M89.2601 72.068C88.1041 71.396 86.6561 71.576 85.1801 72.556C82.8961 74.096 80.9321 77.384 80.0801 80.776C80.4436 80.8807 80.8241 80.9134 81.2001 80.872C82.0001 77.848 83.7281 74.952 85.7481 73.588C86.2925 73.1919 86.9337 72.95 87.6041 72.888C87.9881 72.8671 88.37 72.9574 88.7041 73.148C89.6801 73.712 90.2521 75.172 90.2601 77.148C90.2622 77.474 90.2461 77.7998 90.2121 78.124L91.2801 78.744C91.3519 78.199 91.3867 77.6497 91.3841 77.1C91.3721 74.676 90.6001 72.844 89.2601 72.068Z" fill="#263238"/>
<path d="M98.1882 160.8C98.0054 160.807 97.8244 160.762 97.6659 160.671C97.5074 160.58 97.3779 160.446 97.2922 160.284C97.1562 160.026 97.1185 159.728 97.1862 159.445C97.2539 159.161 97.4224 158.912 97.6602 158.744L147.868 125.052C147.981 124.974 148.109 124.921 148.243 124.896C148.378 124.871 148.517 124.875 148.65 124.907C148.783 124.94 148.907 125 149.015 125.084C149.123 125.169 149.212 125.275 149.276 125.396C149.412 125.654 149.45 125.952 149.382 126.235C149.315 126.519 149.146 126.768 148.908 126.936L98.7042 160.64C98.5498 160.739 98.3715 160.794 98.1882 160.8Z" fill="#EBEBEB"/>
<path d="M92.0761 157.28C91.8933 157.287 91.7122 157.242 91.5537 157.151C91.3952 157.06 91.2657 156.926 91.18 156.764C91.0444 156.506 91.0073 156.207 91.0758 155.924C91.1442 155.64 91.3135 155.392 91.5521 155.224L141.756 121.528C141.869 121.45 141.997 121.398 142.132 121.373C142.267 121.348 142.406 121.352 142.539 121.385C142.672 121.417 142.797 121.477 142.905 121.561C143.014 121.645 143.103 121.751 143.168 121.872C143.304 122.13 143.341 122.429 143.272 122.712C143.204 122.996 143.035 123.244 142.796 123.412L92.592 157.108C92.4391 157.212 92.2606 157.271 92.0761 157.28Z" fill="#EBEBEB"/>
<path d="M85.9601 153.744C85.7775 153.75 85.5968 153.705 85.439 153.613C85.2811 153.521 85.1525 153.386 85.0681 153.224C84.932 152.966 84.8943 152.668 84.9621 152.385C85.0298 152.101 85.1983 151.852 85.4361 151.684L135.644 118C135.757 117.923 135.885 117.871 136.019 117.847C136.154 117.822 136.292 117.827 136.425 117.859C136.557 117.891 136.682 117.951 136.79 118.035C136.898 118.118 136.987 118.224 137.052 118.344C137.188 118.602 137.226 118.9 137.158 119.183C137.09 119.467 136.922 119.716 136.684 119.884L86.4761 153.568C86.3234 153.673 86.145 153.734 85.9601 153.744Z" fill="#EBEBEB"/>
<path d="M79.8481 150.212C79.665 150.218 79.4839 150.173 79.3254 150.081C79.167 149.989 79.0376 149.854 78.9521 149.692C78.8161 149.434 78.7784 149.136 78.8461 148.853C78.9138 148.569 79.0823 148.32 79.3201 148.152L129.528 114.46C129.641 114.381 129.768 114.327 129.903 114.302C130.038 114.277 130.177 114.281 130.31 114.313C130.443 114.346 130.568 114.406 130.676 114.491C130.784 114.576 130.873 114.682 130.936 114.804C131.072 115.062 131.11 115.36 131.042 115.643C130.974 115.927 130.806 116.176 130.568 116.344L80.3601 150.036C80.209 150.141 80.0318 150.202 79.8481 150.212Z" fill="#EBEBEB"/>
<path d="M73.7321 146.672C73.5493 146.679 73.3683 146.634 73.2098 146.543C73.0513 146.452 72.9217 146.318 72.8361 146.156C72.7004 145.898 72.6633 145.599 72.7318 145.316C72.8003 145.032 72.9696 144.784 73.2081 144.616L123.416 110.924C123.529 110.846 123.657 110.794 123.792 110.769C123.927 110.744 124.066 110.748 124.199 110.781C124.332 110.813 124.457 110.873 124.565 110.957C124.674 111.041 124.763 111.147 124.828 111.268C124.964 111.526 125.001 111.825 124.932 112.108C124.864 112.392 124.695 112.64 124.456 112.808L74.2481 146.5C74.0952 146.604 73.9166 146.663 73.7321 146.672Z" fill="#EBEBEB"/>
<path d="M67.6202 143.14C67.437 143.147 67.2554 143.102 67.0968 143.01C66.9382 142.918 66.809 142.783 66.7242 142.62C66.5886 142.362 66.5515 142.063 66.62 141.78C66.6884 141.496 66.8577 141.248 67.0962 141.08L117.3 107.388C117.413 107.31 117.541 107.256 117.676 107.231C117.811 107.206 117.95 107.21 118.083 107.243C118.217 107.275 118.342 107.336 118.45 107.42C118.559 107.504 118.648 107.611 118.712 107.732C118.848 107.99 118.886 108.288 118.818 108.571C118.751 108.855 118.582 109.104 118.344 109.272L68.1362 142.964C67.9844 143.07 67.8055 143.132 67.6202 143.14Z" fill="#EBEBEB"/>
<path d="M61.508 139.6C61.3249 139.606 61.1438 139.561 60.9854 139.469C60.8269 139.377 60.6975 139.242 60.612 139.08C60.476 138.822 60.4383 138.524 60.506 138.241C60.5737 137.957 60.7422 137.708 60.98 137.54L111.2 103.852C111.313 103.774 111.44 103.721 111.575 103.696C111.71 103.671 111.848 103.675 111.981 103.707C112.115 103.74 112.239 103.8 112.347 103.884C112.455 103.969 112.544 104.075 112.608 104.196C112.744 104.454 112.782 104.752 112.714 105.035C112.646 105.319 112.478 105.568 112.24 105.736L62.02 139.428C61.8682 139.531 61.6912 139.59 61.508 139.6Z" fill="#EBEBEB"/>
<path d="M55.3922 136.068C55.2094 136.075 55.0284 136.03 54.8699 135.939C54.7114 135.848 54.5819 135.714 54.4962 135.552C54.3606 135.294 54.3235 134.995 54.3919 134.712C54.4604 134.428 54.6297 134.18 54.8682 134.012L105.076 100.32C105.189 100.241 105.316 100.187 105.451 100.162C105.586 100.137 105.725 100.14 105.858 100.173C105.991 100.206 106.116 100.266 106.224 100.351C106.332 100.436 106.421 100.542 106.484 100.664C106.62 100.922 106.658 101.22 106.59 101.503C106.523 101.787 106.354 102.036 106.116 102.204L55.9082 135.896C55.755 135.999 55.5766 136.059 55.3922 136.068Z" fill="#EBEBEB"/>
<path d="M49.28 132.532C49.0983 132.534 48.9195 132.486 48.7639 132.392C48.6084 132.298 48.4823 132.162 48.4 132C48.2644 131.742 48.2273 131.443 48.2958 131.16C48.3642 130.876 48.5335 130.628 48.772 130.46L98.96 96.8C99.0727 96.7212 99.2009 96.6674 99.336 96.642C99.4712 96.6166 99.6102 96.6203 99.7438 96.6529C99.8774 96.6854 100.002 96.7461 100.111 96.8307C100.219 96.9154 100.308 97.0222 100.372 97.144C100.508 97.4021 100.545 97.7007 100.476 97.9841C100.408 98.2675 100.239 98.5163 100 98.684L49.796 132.36C49.6431 132.464 49.4646 132.523 49.28 132.532Z" fill="#EBEBEB"/>
<path d="M43.1642 129C42.9816 129.006 42.8009 128.961 42.6431 128.869C42.4852 128.777 42.3566 128.642 42.2722 128.48C42.1361 128.222 42.0985 127.924 42.1662 127.641C42.2339 127.357 42.4024 127.108 42.6402 126.94L92.8482 93.248C92.9608 93.17 93.0886 93.1167 93.2234 93.0917C93.3581 93.0667 93.4965 93.0706 93.6296 93.1031C93.7627 93.1356 93.8874 93.196 93.9954 93.2803C94.1034 93.3646 94.1923 93.4708 94.2562 93.592C94.3923 93.8497 94.4299 94.148 94.3622 94.4313C94.2945 94.7147 94.126 94.9638 93.8882 95.132L43.6802 128.824C43.5275 128.929 43.3491 128.99 43.1642 129Z" fill="#EBEBEB"/>
<path d="M37.0522 125.468C36.8691 125.474 36.688 125.429 36.5295 125.337C36.3711 125.245 36.2417 125.11 36.1562 124.948C36.0202 124.69 35.9825 124.392 36.0502 124.109C36.1179 123.825 36.2864 123.576 36.5242 123.408L86.7362 89.712C86.8488 89.6339 86.9767 89.5806 87.1114 89.5557C87.2461 89.5307 87.3846 89.5346 87.5177 89.5671C87.6508 89.5996 87.7754 89.66 87.8834 89.7443C87.9915 89.8286 88.0803 89.9348 88.1442 90.056C88.2803 90.3136 88.318 90.612 88.2503 90.8953C88.1826 91.1787 88.0141 91.4278 87.7762 91.596L37.5642 125.292C37.4128 125.396 37.2358 125.457 37.0522 125.468Z" fill="#EBEBEB"/>
<path d="M30.9362 121.928C30.7534 121.935 30.5724 121.89 30.4139 121.799C30.2554 121.708 30.1258 121.574 30.0402 121.412C29.9045 121.154 29.8674 120.855 29.9359 120.572C30.0044 120.288 30.1736 120.04 30.4122 119.872L80.6202 86.18C80.7331 86.1018 80.8612 86.0485 80.9962 86.0235C81.1312 85.9985 81.27 86.0023 81.4034 86.0348C81.5368 86.0673 81.6618 86.1277 81.7702 86.212C81.8786 86.2963 81.9679 86.4027 82.0322 86.524C82.1678 86.782 82.2049 87.0807 82.1364 87.3641C82.068 87.6475 81.8987 87.8963 81.6602 88.064L31.4522 121.756C31.2993 121.86 31.1207 121.919 30.9362 121.928Z" fill="#EBEBEB"/>
<path d="M24.8241 118.4C24.6414 118.407 24.4606 118.362 24.3022 118.27C24.1437 118.179 24.0141 118.045 23.9281 117.884C23.7924 117.626 23.7554 117.327 23.8238 117.044C23.8923 116.76 24.0616 116.512 24.3001 116.344L74.5041 82.648C74.6172 82.5705 74.7454 82.5177 74.8802 82.493C75.0151 82.4683 75.1537 82.4723 75.2869 82.5048C75.4201 82.5372 75.545 82.5974 75.6534 82.6813C75.7618 82.7653 75.8513 82.8711 75.9161 82.992C76.0518 83.2501 76.0888 83.5487 76.0204 83.8321C75.9519 84.1155 75.7826 84.3643 75.5441 84.532L25.3401 118.224C25.1876 118.329 25.009 118.39 24.8241 118.4Z" fill="#EBEBEB"/>
<path d="M104.4 164.348C104.217 164.354 104.036 164.309 103.877 164.217C103.719 164.125 103.59 163.99 103.504 163.828C103.368 163.57 103.33 163.272 103.398 162.989C103.466 162.705 103.634 162.456 103.872 162.288L156.976 126.588C157.089 126.51 157.217 126.457 157.352 126.432C157.487 126.407 157.626 126.41 157.759 126.443C157.893 126.475 158.018 126.536 158.126 126.62C158.235 126.704 158.324 126.811 158.388 126.932C158.525 127.191 158.563 127.49 158.494 127.774C158.426 128.059 158.256 128.308 158.016 128.476L104.912 164.172C104.76 164.276 104.583 164.336 104.4 164.348Z" fill="#789F40"/>
<path d="M109.676 142.9C109.6 142.68 109.488 142.456 109.328 142.5C109.28 142.524 109.24 142.561 109.212 142.607C109.185 142.653 109.171 142.706 109.172 142.76C109.173 142.831 109.186 142.902 109.212 142.968C109.26 143.128 109.36 143.212 109.412 143.368C110.004 145.324 108.064 145.944 107.04 146.016C104.136 146.232 101.284 144.924 98.6159 143.5C94.7879 141.46 90.9759 139.216 86.9679 137.9C83.5999 136.8 78.3999 135.708 76.4639 140.8C76.4279 140.904 76.5479 141.092 76.5999 140.976C78.6999 136.256 83.5039 137.232 86.8159 138.328C90.8639 139.668 94.7079 141.948 98.5799 144.004C101.168 145.376 103.888 146.572 106.696 146.5C107.98 146.472 110.568 145.728 109.768 143.176C109.744 143.12 109.712 143.012 109.676 142.9Z" fill="#263238"/>
<path d="M125.6 82.8679C123.792 79.6039 121.66 76.0079 119.416 70.7399C117.172 65.4719 115.264 65.4279 110.216 63.6199C106.028 62.1239 94.6159 57.3199 90.0599 55.3799C84.1959 52.8799 82.5759 52.5799 77.5799 46.9239C72.1439 40.7519 53.8919 20.4919 53.8919 20.4919L30.6919 63.4319C38.4399 67.8879 44.9239 71.5999 49.6399 74.6119C53.7599 77.2359 56.2839 79.5079 58.5879 87.6159C60.1559 93.1199 60.3399 95.5079 64.6479 100.416C67.9879 104.232 68.9639 105.312 72.8319 109.548L87.9999 103.2C87.5193 102.432 87.221 101.565 87.1279 100.664C86.9999 97.4119 91.5879 97.92 93.6879 98.1399C98.6039 98.66 114.392 105.644 114.392 105.644L123.72 98.2719C125.232 96.6719 126.712 94.7239 125.164 90.2719C126.204 89.0919 127.408 86.1359 125.6 82.8679Z" fill="#FFA8A7"/>
<path d="M114.064 70.492C113.649 69.9752 113.15 69.5317 112.588 69.18C112.284 68.972 111.984 68.78 111.68 68.568C111.33 68.3178 110.964 68.092 110.584 67.892C110.512 67.86 110.524 67.98 110.552 68.012C111.572 69.036 112.952 69.612 113.78 70.84C114.111 71.3579 114.399 71.9024 114.64 72.468C114.968 73.176 115.304 73.872 115.66 74.568C115.688 74.62 115.724 74.568 115.716 74.524C115.344 73.128 114.932 71.676 114.064 70.492Z" fill="#F28F8F"/>
<path d="M125.2 90.304C125.464 89.9854 125.688 89.6362 125.868 89.264C124.8 87.028 122.268 83.036 120.24 78.064C121.644 82.024 122.844 84 125.2 90.304Z" fill="#F28F8F"/>
<path d="M117.444 70.376C117.4 70.0611 117.319 69.7523 117.204 69.456C117.007 68.9168 116.711 68.419 116.332 67.988C115.879 67.5376 115.347 67.173 114.764 66.912C114.145 66.5755 113.485 66.3213 112.8 66.156C112.8 66.156 112.8 66.18 112.8 66.188C113.376 66.516 113.972 66.812 114.548 67.14C115.098 67.4104 115.594 67.7791 116.012 68.228C116.724 69.072 116.988 70.188 117.46 71.164C117.488 71.22 117.548 71.208 117.548 71.164C117.537 70.8988 117.502 70.6351 117.444 70.376Z" fill="#F28F8F"/>
<path d="M124.92 96.832C124.744 94.5 123.528 92.996 122.26 90.096C120.66 86.456 117.132 79.504 115.944 75.428C116.344 79.088 118.788 91.748 120.568 100.788L123.736 98.284C124.176 97.8393 124.573 97.3531 124.92 96.832Z" fill="#F28F8F"/>
<path d="M87.684 102.724C87.5045 102.254 87.285 101.8 87.028 101.368C86.8 100.928 86.6 100.472 86.404 100.016C86.0359 99.1655 85.7245 98.2915 85.472 97.3999C85.2186 96.4932 85.0697 95.5605 85.028 94.6199C85.0093 94.1611 85.0187 93.7016 85.056 93.2439C85.076 93.0039 85.108 92.7639 85.144 92.5239C85.172 92.3439 85.224 92.1439 85.236 91.9639C85.248 91.7839 85.236 91.6879 85.26 91.5639C85.26 91.4839 85.116 91.2919 85.056 91.4199C84.9486 91.6266 84.859 91.8421 84.788 92.0639C84.7323 92.2655 84.6869 92.4697 84.652 92.6759C84.5828 93.0793 84.5414 93.4869 84.528 93.8959C84.5065 94.6608 84.5614 95.4259 84.692 96.1799C84.9574 97.6737 85.4554 99.1165 86.168 100.456C86.372 100.856 86.592 101.22 86.812 101.6C87.0312 102.03 87.2997 102.432 87.612 102.8C87.672 102.832 87.696 102.76 87.684 102.724Z" fill="#F28F8F"/>
<path d="M116.596 99.82L107.04 81.756C107.04 81.756 97.2759 84.556 92.6399 87.12C88.0039 89.684 85.8399 98.56 87.6199 102.788L87.8079 102.828C87.4282 102.169 87.1988 101.434 87.1359 100.676C87.0079 97.424 91.5959 97.932 93.6959 98.152C98.6119 98.672 114.4 105.656 114.4 105.656L116.72 103.82L116.596 99.82Z" fill="#F28F8F"/>
<path d="M54.0833 46.5592C59.4339 33.9845 58.0038 21.3365 50.8892 18.3092C43.7745 15.2818 33.6693 23.0215 28.3187 35.5962C22.9681 48.1709 24.3982 60.8189 31.5129 63.8462C38.6276 66.8736 48.7327 59.1339 54.0833 46.5592Z" fill="#FFA8A7"/>
<path d="M109.092 67.2799C114.632 69.7239 115.284 72.7679 116.264 76.7079C117.244 80.6479 120.992 89.0399 122.46 92.8319C123.928 96.6239 124.252 97.5959 122.784 102.732C121.316 107.868 117.156 117.932 117.156 117.932C117.156 117.932 104.688 78.4599 103.876 74.3999C103.064 70.3399 103.548 65.8199 109.092 67.2799Z" fill="#FFA8A7"/>
<path d="M121.548 100.092C121.542 100.102 121.539 100.114 121.539 100.126C121.539 100.138 121.542 100.15 121.548 100.16C121.724 100.216 121.992 100.096 122.168 100.064C122.344 100.032 122.616 99.9759 122.84 99.9439C123.064 99.9119 123.28 99.8919 123.512 99.8799C123.54 99.7319 123.564 99.5879 123.588 99.4519C123.022 99.5181 122.466 99.6524 121.932 99.8519C121.781 99.8872 121.646 99.9716 121.548 100.092ZM121.524 97.4119C122.076 97.2035 122.649 97.0521 123.232 96.9599C123.384 96.9398 123.538 96.9278 123.692 96.9239C123.692 96.7719 123.656 96.6199 123.628 96.4719C123.46 96.4719 123.296 96.4959 123.128 96.5199C122.497 96.5913 121.887 96.7914 121.336 97.1079C121.156 97.1999 121.356 97.4679 121.524 97.4119ZM123.38 97.9999C123.026 98.0153 122.673 98.0527 122.324 98.1119C121.604 98.2156 120.91 98.4515 120.276 98.8079C120.124 98.8999 120.328 99.1039 120.46 99.0599C121.056 98.8314 121.668 98.6483 122.292 98.5119C122.592 98.455 122.895 98.4176 123.2 98.3999C123.356 98.3999 123.528 98.3999 123.696 98.3999C123.696 98.2599 123.716 98.1279 123.72 97.9999C123.6 97.9999 123.492 97.9999 123.38 97.9999Z" fill="#F28F8F"/>
<path d="M117.924 91.936C115.661 87.5082 113.69 82.9371 112.024 78.252L107.04 76.708L105.388 79.884C108.904 91.8 117.156 117.928 117.156 117.928C117.156 117.928 117.772 116.436 118.616 114.328C118.616 114.328 119.728 105.096 120.216 100.964C120.704 96.832 119.528 94.948 117.924 91.936Z" fill="#F28F8F"/>
<path d="M99.96 114.6C99.652 114.392 99.344 114.2 99.0401 113.964C94.916 110.932 90.524 107.808 88 103.2L72.8 109.552C75.3908 112.403 78.1505 115.096 81.064 117.616C83.524 119.848 91.004 122.912 95.864 125.356C100.724 127.8 102.764 129.012 103.988 128.324C105.42 127.556 107.176 119.504 99.96 114.6Z" fill="#FFA8A7"/>
<path d="M82.4319 118.628C82.4839 118.452 82.5359 118.28 82.5999 118.108C82.7334 117.75 82.8869 117.4 83.0599 117.06C83.2663 116.735 83.4405 116.391 83.5799 116.032C83.5999 115.944 83.4799 115.796 83.3919 115.864C83.0767 116.155 82.8213 116.504 82.6399 116.892C82.4249 117.285 82.2416 117.694 82.0919 118.116C82.0639 118.192 82.0439 118.272 82.0159 118.348L82.4319 118.628Z" fill="#F28F8F"/>
<path d="M84.02 119.432C84.1809 118.833 84.3979 118.25 84.668 117.692C84.9012 117.22 85.187 116.776 85.52 116.368C85.7518 116.078 86.0103 115.81 86.292 115.568C86.524 115.38 86.768 115.212 86.98 115.004C87.036 114.948 86.956 114.8 86.876 114.82C86.2856 115.006 85.7554 115.345 85.34 115.804C84.8916 116.251 84.5103 116.76 84.208 117.316C83.8813 117.922 83.6263 118.563 83.448 119.228L83.988 119.54C84 119.52 84 119.476 84.02 119.432Z" fill="#F28F8F"/>
<path d="M85.684 119.3C85.8498 118.841 86.049 118.394 86.28 117.964C86.3793 117.779 86.4888 117.6 86.608 117.428C86.7486 117.27 86.8585 117.087 86.932 116.888C86.932 116.8 86.828 116.66 86.736 116.708C86.3337 117.003 86.0074 117.39 85.784 117.836C85.5323 118.253 85.3156 118.691 85.136 119.144C85.024 119.432 84.924 119.724 84.832 120.02L85.352 120.296C85.456 119.96 85.56 119.628 85.684 119.3Z" fill="#F28F8F"/>
<path d="M93.8398 124.36C94.0553 122.835 94.7933 121.433 95.9278 120.392C95.9278 120.392 99.4118 121.852 100.9 123.192C102.388 124.532 103.536 127.488 102.608 128.436C100.476 128.444 97.5998 126.344 93.8398 124.36Z" fill="#FFC4C3"/>
<path opacity="0.3" d="M93.8398 124.36C94.2798 124.592 94.7038 124.824 95.1198 125.056C95.5749 123.54 95.8436 121.973 95.9198 120.392C94.7883 121.434 94.0532 122.836 93.8398 124.36Z" fill="white"/>
<path d="M100.248 90.148C102.688 94.148 106.44 101.348 106.484 102.276C106.732 107.528 106.432 113.016 106.432 118.696C106.432 124.376 106.384 128.524 108.876 132.296C111.132 135.696 115.276 136.632 115.864 132.916C116.376 129.736 116.696 123.264 117.156 117.94C117.616 112.616 118.836 104.904 119.156 100.596C119.476 96.288 116.644 92.06 114.736 86.488C113.08 81.644 111.676 75.524 109.08 72.928C106.484 70.332 96.6598 65.468 93.0798 63.58L100.248 90.148Z" fill="#FFA8A7"/>
<path d="M118.872 100.928C118.564 100.95 118.256 100.95 117.948 100.928C117.308 100.863 116.674 100.748 116.052 100.584C115.892 100.552 115.932 100.78 116.028 100.832C116.656 101.119 117.337 101.276 118.028 101.292C118.371 101.318 118.716 101.318 119.06 101.292H119.092C119.092 101.16 119.112 101.036 119.12 100.912L118.872 100.928Z" fill="#F28F8F"/>
<path d="M115.2 97.068C115.092 97.12 115.228 97.308 115.324 97.284C116.067 97.0858 116.843 97.0423 117.604 97.156C117.941 97.2158 118.271 97.311 118.588 97.44L118.88 97.58C118.844 97.408 118.804 97.236 118.764 97.064C118.423 96.9259 118.067 96.8266 117.704 96.768C116.858 96.6109 115.985 96.7156 115.2 97.068Z" fill="#F28F8F"/>
<path d="M116.668 98.4599C116.061 98.4364 115.454 98.4874 114.86 98.6119C114.36 98.7239 113.628 98.8479 113.3 99.2839C113.3 99.2839 113.3 99.3519 113.32 99.3519C113.599 99.3437 113.875 99.2952 114.14 99.2079C114.428 99.1359 114.716 99.0719 115.008 99.0279C116.088 98.8549 117.192 98.9204 118.244 99.2199C118.553 99.3103 118.855 99.4226 119.148 99.5559C119.148 99.3519 119.148 99.1559 119.112 98.9399C118.892 98.8599 118.668 98.7879 118.452 98.7279C117.87 98.5673 117.271 98.4773 116.668 98.4599Z" fill="#F28F8F"/>
<path d="M116.844 120.968C116.636 120.9 116.42 120.84 116.208 120.78C115.768 120.664 115.328 120.56 114.88 120.476C114.857 120.47 114.833 120.469 114.809 120.473C114.786 120.477 114.763 120.486 114.743 120.499C114.723 120.512 114.706 120.53 114.693 120.55C114.68 120.57 114.672 120.592 114.668 120.616C114.668 120.728 114.772 120.804 114.868 120.82C115.268 120.9 115.668 120.988 116.088 121.096L116.676 121.268L116.888 121.336L116.912 120.988L116.844 120.968Z" fill="#F28F8F"/>
<path d="M115.512 119.512C115.965 119.646 116.408 119.809 116.84 120L116.984 120.064L117.02 119.592L116.972 119.568C116.512 119.383 116.04 119.228 115.56 119.104C115.085 118.981 114.603 118.887 114.116 118.824C113.603 118.725 113.076 118.715 112.56 118.796C112.464 118.796 112.508 118.968 112.588 118.984C113.096 119.084 113.616 119.112 114.124 119.2C114.592 119.278 115.056 119.382 115.512 119.512Z" fill="#F28F8F"/>
<path d="M114.764 118.252C115.396 118.393 116.02 118.569 116.632 118.78C116.78 118.832 116.924 118.892 117.068 118.952C117.068 118.82 117.092 118.692 117.1 118.552L116.796 118.436C116.127 118.22 115.441 118.064 114.744 117.972C114.564 117.96 114.632 118.224 114.764 118.252Z" fill="#F28F8F"/>
<path d="M116.596 125.34C114.252 123.08 111.796 123.884 111.796 123.884C111.505 125.796 111.396 127.731 111.472 129.664C111.64 132.368 113.424 133.692 114.788 133.924C116.152 134.156 116.332 131.488 116.596 125.34Z" fill="#FFC4C3"/>
<path opacity="0.3" d="M116.552 126.336C116.552 126.016 116.58 125.684 116.596 125.34C114.252 123.08 111.796 123.884 111.796 123.884C112.264 124.716 114.856 126.176 116.552 126.336Z" fill="white"/>
<path d="M110.4 73.6439C109.316 72.1639 107.692 71.2919 106.092 70.4759C105.188 70.0382 104.312 69.5453 103.468 68.9999C103.42 68.9639 103.408 69.0679 103.436 69.0959C104.704 70.2159 106.236 70.9959 107.62 71.9319C109.138 72.8828 110.313 74.2922 110.976 75.9559C111.4 76.9199 111.752 77.9119 112.136 78.8919C112.164 78.9679 112.224 78.9199 112.216 78.8559C112 77.0399 111.488 75.1359 110.4 73.6439Z" fill="#F28F8F"/>
<path d="M82.9599 26.52C83.0302 26.6271 83.0866 26.7427 83.1279 26.864L82.9119 26.092C82.8996 26.0459 82.8849 26.0005 82.8679 25.956V25.928C82.8534 25.881 82.8347 25.8355 82.8119 25.792L82.7799 25.728C82.7799 25.692 82.7439 25.66 82.7199 25.624L82.6079 25.464C82.5639 25.412 82.5199 25.36 82.4719 25.312C82.0857 24.951 81.611 24.6985 81.0959 24.58C79.0439 24.04 76.1679 24.82 74.6719 26.324C74.4716 26.5184 74.2968 26.7375 74.1519 26.976C74.1228 27.0163 74.0973 27.0591 74.0759 27.104C74.0572 27.1261 74.0436 27.1521 74.0359 27.18C74.0071 27.2296 73.983 27.2819 73.9639 27.336C73.885 27.5085 73.8324 27.6919 73.8079 27.88C73.7738 28.1001 73.7861 28.3249 73.8439 28.54L74.0879 29.424C74.0469 29.2769 74.0281 29.1246 74.0319 28.972C74.4259 29.5207 75.0135 29.8995 75.6759 30.032C77.7279 30.576 80.6079 29.796 82.1039 28.292C82.6059 27.833 82.9124 27.1986 82.9599 26.52Z" fill="#789F40"/>
<path d="M111.108 130.244L102.024 132.724L101.784 131.836L74.0638 29.436C74.0228 29.2889 74.004 29.1366 74.0078 28.984C74.0639 28.2974 74.3818 27.6587 74.8958 27.2C76.3918 25.696 79.2678 24.92 81.3198 25.464C81.8349 25.5782 82.31 25.8282 82.6958 26.188C82.7963 26.2882 82.8848 26.3996 82.9598 26.52C83.0301 26.6271 83.0865 26.7427 83.1278 26.864C83.1278 26.864 83.1278 26.908 83.1478 26.924V26.948L111.108 130.244Z" fill="#F0F0F0"/>
<path d="M109.272 128.752C111.324 129.292 111.776 130.956 110.276 132.46C108.776 133.964 105.904 134.744 103.852 134.2C101.8 133.656 101.352 131.996 102.848 130.492C104.344 128.988 107.22 128.208 109.272 128.752Z" fill="#789F40"/>
<path d="M110.86 137.304C110.86 137.264 110.86 137.22 110.86 137.18L111.14 130.872V130.8C111.142 130.761 111.142 130.723 111.14 130.684V130.62C111.12 129.78 110.472 129.064 109.256 128.744C107.204 128.2 104.328 128.98 102.832 130.484C101.964 131.356 101.756 132.284 102.128 133.012L102.16 133.056C102.199 133.129 102.243 133.198 102.292 133.264L102.32 133.308L105.736 138.604C105.959 138.911 106.291 139.123 106.664 139.196C107.311 139.332 107.981 139.312 108.619 139.14C109.257 138.968 109.845 138.647 110.336 138.204C110.608 137.972 110.792 137.655 110.86 137.304Z" fill="#E0E0E0"/>
<path d="M91.344 68.836C91.3458 68.8322 91.3467 68.8281 91.3467 68.824C91.3467 68.8198 91.3458 68.8157 91.344 68.812L91.312 68.688C91.2506 68.5668 91.1619 68.4615 91.0529 68.3803C90.944 68.2991 90.8177 68.2442 90.684 68.22C90.2804 68.1374 89.8631 68.1508 89.4656 68.2592C89.0682 68.3676 88.7018 68.5679 88.396 68.844C88.2952 68.929 88.215 69.0358 88.1616 69.1564C88.1083 69.277 88.0831 69.4082 88.088 69.54L88.132 69.7L105.732 134.684L109.448 135.668L91.344 68.836Z" fill="#455A64"/>
<path d="M104.296 129.46L105.712 134.692L109.428 135.676L107.508 128.588C106.388 128.649 105.293 128.946 104.296 129.46Z" fill="#37474F"/>
<path d="M110.48 140.056L110.732 134.336C110.738 134.285 110.738 134.234 110.732 134.184C110.732 133.576 110.268 133.064 109.396 132.832C108.595 132.666 107.767 132.691 106.979 132.905C106.19 133.119 105.462 133.516 104.856 134.064C104.244 134.68 104.092 135.328 104.352 135.844V135.876L104.44 136.012L107.6 140.868C107.727 141.041 107.914 141.159 108.124 141.2C108.488 141.277 108.866 141.266 109.225 141.169C109.585 141.071 109.916 140.89 110.192 140.64C110.278 140.568 110.348 140.479 110.398 140.379C110.448 140.278 110.475 140.168 110.48 140.056Z" fill="#789F40"/>
<path opacity="0.1" d="M110.48 140.056L110.732 134.336C110.738 134.285 110.738 134.234 110.732 134.184C110.732 133.576 110.268 133.064 109.396 132.832C108.595 132.666 107.767 132.691 106.979 132.905C106.19 133.119 105.462 133.516 104.856 134.064C104.244 134.68 104.092 135.328 104.352 135.844V135.876L104.44 136.012L107.6 140.868C107.727 141.041 107.914 141.159 108.124 141.2C108.488 141.277 108.866 141.266 109.225 141.169C109.585 141.071 109.916 140.89 110.192 140.64C110.278 140.568 110.348 140.479 110.398 140.379C110.448 140.278 110.475 140.168 110.48 140.056Z" fill="black"/>
<path d="M110.204 140.644C109.926 140.893 109.594 141.073 109.234 141.17C108.874 141.266 108.497 141.277 108.132 141.2C107.923 141.159 107.737 141.041 107.612 140.868L106.012 138.412C105.76 138.012 105.852 137.52 106.328 137.036C106.77 136.638 107.3 136.349 107.875 136.193C108.45 136.038 109.053 136.019 109.636 136.14C110.26 136.304 110.596 136.672 110.604 137.108V137.224L110.48 140.056C110.476 140.168 110.449 140.277 110.402 140.378C110.354 140.479 110.287 140.569 110.204 140.644Z" fill="#789F40"/>
<path opacity="0.1" d="M109.88 139.448C110.54 139.624 110.68 140.156 110.204 140.648C109.928 140.898 109.597 141.079 109.237 141.177C108.878 141.274 108.5 141.285 108.136 141.208C107.476 141.036 107.336 140.5 107.812 140.008C108.088 139.758 108.419 139.578 108.779 139.48C109.138 139.383 109.515 139.372 109.88 139.448Z" fill="black"/>
<path d="M82.828 37.36C82.7792 37.2208 82.6928 37.0978 82.5784 37.0046C82.4641 36.9114 82.3262 36.8517 82.18 36.832C81.7789 36.7477 81.3636 36.7596 80.968 36.8666C80.5724 36.9737 80.2078 37.1729 79.904 37.448C79.7871 37.5421 79.6981 37.6663 79.6466 37.8073C79.5952 37.9483 79.5832 38.1007 79.612 38.248L88.084 69.552C88.0791 69.4202 88.1043 69.289 88.1576 69.1684C88.211 69.0478 88.2912 68.9409 88.392 68.856C88.6978 68.5799 89.0642 68.3796 89.4616 68.2712C89.859 68.1628 90.2764 68.1494 90.68 68.232C90.8137 68.2562 90.94 68.311 91.0489 68.3922C91.1579 68.4734 91.2466 68.5788 91.308 68.7L82.828 37.36Z" fill="#FAFAFA"/>
<path d="M82.5358 38.144C82.2315 38.4182 81.8668 38.6169 81.4714 38.7239C81.076 38.8309 80.6609 38.8433 80.2598 38.76C80.1155 38.7393 79.9796 38.6795 79.8668 38.5871C79.754 38.4948 79.6686 38.3734 79.6198 38.236C79.5873 38.0894 79.5967 37.9367 79.6469 37.7952C79.6971 37.6537 79.7862 37.5293 79.9038 37.436C80.2076 37.1609 80.5722 36.9617 80.9678 36.8547C81.3634 36.7476 81.7787 36.7357 82.1798 36.82C82.326 36.8397 82.4639 36.8995 82.5782 36.9926C82.6926 37.0858 82.779 37.2088 82.8278 37.348C82.8554 37.4947 82.8428 37.6461 82.7914 37.7862C82.74 37.9263 82.6517 38.0499 82.5358 38.144Z" fill="#F5F5F5"/>
<path d="M84.2199 32.712V32.672C84.2217 32.652 84.2217 32.6319 84.2199 32.612L82.7359 27.144C82.7263 27.1007 82.7143 27.058 82.6999 27.016V26.984C82.5079 26.424 81.9599 25.964 81.0999 25.732C80.0811 25.5204 79.0266 25.5521 78.0223 25.8245C77.018 26.097 76.0922 26.6025 75.3199 27.3C74.6399 27.98 74.4079 28.696 74.5759 29.3L76.0799 34.84C76.0782 34.8492 76.0782 34.8587 76.0799 34.868V34.9C76.2599 35.484 76.8119 35.96 77.7119 36.2C78.7308 36.411 79.785 36.3789 80.7892 36.1065C81.7934 35.8341 82.7193 35.3289 83.4919 34.632C84.1079 34 84.3479 33.304 84.2199 32.712Z" fill="#789F40"/>
<path opacity="0.05" d="M84.2199 32.712V32.672C84.2217 32.652 84.2217 32.6319 84.2199 32.612L82.7359 27.144C82.7263 27.1007 82.7143 27.058 82.6999 27.016V26.984C82.5079 26.424 81.9599 25.964 81.0999 25.732C80.0811 25.5204 79.0266 25.5521 78.0223 25.8245C77.018 26.097 76.0922 26.6025 75.3199 27.3C74.6399 27.98 74.4079 28.696 74.5759 29.3L76.0799 34.84C76.0782 34.8492 76.0782 34.8587 76.0799 34.868V34.9C76.2599 35.484 76.8119 35.96 77.7119 36.2C78.7308 36.411 79.785 36.3789 80.7892 36.1065C81.7934 35.8341 82.7193 35.3289 83.4919 34.632C84.1079 34 84.3479 33.304 84.2199 32.712Z" fill="black"/>
<path opacity="0.1" d="M82.5559 31.296C84.4039 31.784 84.8079 33.296 83.4599 34.636C82.6873 35.3329 81.7614 35.8381 80.7572 36.1105C79.753 36.3829 78.6987 36.4149 77.6799 36.204C75.8319 35.712 75.4279 34.204 76.7759 32.864C77.5481 32.1665 78.474 31.6609 79.4783 31.3885C80.4826 31.1161 81.537 31.0843 82.5559 31.296Z" fill="black"/>
<path d="M110.34 142.432L109.76 140.136C109.739 140.068 109.699 140.008 109.645 139.962C109.592 139.916 109.526 139.886 109.456 139.876C109.269 139.838 109.076 139.844 108.892 139.894C108.708 139.944 108.538 140.037 108.396 140.164C108.344 140.208 108.304 140.265 108.281 140.328C108.257 140.392 108.25 140.461 108.26 140.528L108.832 142.824C108.869 142.95 108.938 143.064 109.032 143.156C109.151 143.275 109.307 143.353 109.474 143.376C109.641 143.4 109.812 143.369 109.96 143.287C110.108 143.205 110.225 143.078 110.295 142.924C110.364 142.769 110.381 142.597 110.344 142.432H110.34Z" fill="#455A64"/>
<path d="M110.356 142.58C110.362 142.535 110.362 142.489 110.356 142.444C110.324 142.391 110.282 142.345 110.23 142.309C110.179 142.274 110.121 142.251 110.06 142.24C109.873 142.2 109.679 142.206 109.495 142.256C109.311 142.306 109.141 142.399 109 142.528C108.948 142.57 108.908 142.625 108.885 142.688C108.861 142.75 108.856 142.818 108.868 142.884C108.866 142.899 108.866 142.913 108.868 142.928C108.867 142.941 108.867 142.955 108.868 142.968C108.902 143.047 108.953 143.118 109.016 143.176C109.165 143.318 109.362 143.397 109.568 143.397C109.774 143.397 109.971 143.318 110.12 143.176C110.201 143.1 110.264 143.008 110.305 142.905C110.346 142.801 110.363 142.691 110.356 142.58Z" fill="#263238"/>
<path d="M109.092 67.2799C114.632 69.7239 115.284 72.7679 116.264 76.7079C117.244 80.6479 120.992 89.0399 122.46 92.8319C123.928 96.6239 124.252 97.5959 122.784 102.732C121.316 107.868 117.156 117.932 117.156 117.932C117.156 117.932 104.688 78.4599 103.876 74.3999C103.064 70.3399 103.548 65.8199 109.092 67.2799Z" fill="#FFA8A7"/>
<path d="M121.548 100.092C121.542 100.102 121.539 100.114 121.539 100.126C121.539 100.138 121.542 100.15 121.548 100.16C121.724 100.216 121.992 100.096 122.168 100.064C122.344 100.032 122.616 99.9759 122.84 99.9439C123.064 99.9119 123.28 99.8919 123.512 99.8799C123.54 99.7319 123.564 99.5879 123.588 99.4519C123.022 99.5181 122.466 99.6524 121.932 99.8519C121.781 99.8872 121.646 99.9716 121.548 100.092ZM121.524 97.4119C122.077 97.2035 122.649 97.0521 123.232 96.9599C123.385 96.9398 123.538 96.9278 123.692 96.9239C123.692 96.7719 123.656 96.6199 123.628 96.4719C123.46 96.4719 123.296 96.4959 123.128 96.5199C122.497 96.5913 121.887 96.7914 121.336 97.1079C121.156 97.1999 121.356 97.4679 121.524 97.4119ZM123.38 97.9999C123.026 98.0153 122.673 98.0527 122.324 98.1119C121.604 98.2156 120.91 98.4515 120.276 98.8079C120.124 98.8999 120.328 99.1039 120.46 99.0599C121.056 98.8314 121.669 98.6483 122.292 98.5119C122.592 98.455 122.895 98.4176 123.2 98.3999C123.356 98.3999 123.528 98.3999 123.696 98.3999C123.696 98.2599 123.716 98.1279 123.72 97.9999C123.6 97.9999 123.492 97.9999 123.38 97.9999Z" fill="#F28F8F"/>
<path d="M117.924 91.936C115.661 87.5082 113.69 82.9371 112.024 78.252L107.04 76.708L105.388 79.884C108.904 91.8 117.156 117.928 117.156 117.928C117.156 117.928 117.772 116.436 118.616 114.328C118.616 114.328 119.728 105.096 120.216 100.964C120.704 96.832 119.528 94.948 117.924 91.936Z" fill="#F28F8F"/>
<path d="M99.96 114.6C99.652 114.392 99.344 114.2 99.0401 113.964C94.916 110.932 90.524 107.808 88 103.2L72.8 109.552C75.3908 112.403 78.1505 115.096 81.064 117.616C83.524 119.848 91.004 122.912 95.864 125.356C100.724 127.8 102.764 129.012 103.988 128.324C105.42 127.556 107.176 119.504 99.96 114.6Z" fill="#FFA8A7"/>
<path d="M82.4321 118.628C82.4841 118.452 82.5361 118.28 82.6001 118.108C82.7336 117.75 82.8872 117.4 83.0601 117.06C83.2665 116.735 83.4407 116.391 83.5801 116.032C83.6001 115.944 83.4801 115.796 83.3921 115.864C83.077 116.155 82.8216 116.504 82.6401 116.892C82.4251 117.285 82.2419 117.694 82.0921 118.116C82.0641 118.192 82.0441 118.272 82.0161 118.348L82.4321 118.628Z" fill="#F28F8F"/>
<path d="M84.02 119.432C84.1809 118.833 84.3979 118.25 84.668 117.692C84.9012 117.22 85.187 116.776 85.52 116.368C85.7518 116.078 86.0103 115.81 86.292 115.568C86.524 115.38 86.768 115.212 86.98 115.004C87.036 114.948 86.956 114.8 86.876 114.82C86.2856 115.006 85.7554 115.345 85.34 115.804C84.8916 116.251 84.5103 116.76 84.208 117.316C83.8813 117.922 83.6263 118.563 83.448 119.228L83.988 119.54C84 119.52 84 119.476 84.02 119.432Z" fill="#F28F8F"/>
<path d="M85.684 119.3C85.8498 118.841 86.049 118.394 86.28 117.964C86.3793 117.779 86.4888 117.6 86.608 117.428C86.7486 117.27 86.8585 117.087 86.932 116.888C86.932 116.8 86.828 116.66 86.736 116.708C86.3337 117.003 86.0074 117.39 85.784 117.836C85.5323 118.253 85.3156 118.691 85.136 119.144C85.024 119.432 84.924 119.724 84.832 120.02L85.352 120.296C85.456 119.96 85.56 119.628 85.684 119.3Z" fill="#F28F8F"/>
<path d="M93.8401 124.36C94.0556 122.835 94.7936 121.433 95.9281 120.392C95.9281 120.392 99.4121 121.852 100.9 123.192C102.388 124.532 103.536 127.488 102.608 128.436C100.476 128.444 97.6001 126.344 93.8401 124.36Z" fill="#FFC4C3"/>
<path opacity="0.3" d="M93.8401 124.36C94.2801 124.592 94.7041 124.824 95.1201 125.056C95.5752 123.54 95.8438 121.973 95.9201 120.392C94.7885 121.434 94.0534 122.836 93.8401 124.36Z" fill="white"/>
<path d="M100.248 90.148C102.688 94.148 106.44 101.348 106.484 102.276C106.732 107.528 106.432 113.016 106.432 118.696C106.432 124.376 106.384 128.524 108.876 132.296C111.132 135.696 115.276 136.632 115.864 132.916C116.376 129.736 116.696 123.264 117.156 117.94C117.616 112.616 118.836 104.904 119.156 100.596C119.476 96.288 116.644 92.06 114.736 86.488C113.08 81.644 111.676 75.524 109.08 72.928C106.484 70.332 96.6601 65.468 93.0801 63.58L100.248 90.148Z" fill="#FFA8A7"/>
<path d="M118.872 100.928C118.564 100.95 118.256 100.95 117.948 100.928C117.308 100.863 116.674 100.748 116.052 100.584C115.892 100.552 115.932 100.78 116.028 100.832C116.656 101.119 117.337 101.276 118.028 101.292C118.371 101.318 118.716 101.318 119.06 101.292H119.092C119.092 101.16 119.112 101.036 119.12 100.912L118.872 100.928Z" fill="#F28F8F"/>
<path d="M115.2 97.068C115.092 97.12 115.228 97.308 115.324 97.284C116.067 97.0858 116.843 97.0423 117.604 97.156C117.941 97.2158 118.271 97.311 118.588 97.44L118.88 97.58C118.844 97.408 118.804 97.236 118.764 97.064C118.423 96.9259 118.067 96.8266 117.704 96.768C116.858 96.6109 115.985 96.7156 115.2 97.068Z" fill="#F28F8F"/>
<path d="M116.668 98.4599C116.061 98.4364 115.454 98.4874 114.86 98.6119C114.36 98.7239 113.628 98.8479 113.3 99.2839C113.3 99.2839 113.3 99.3519 113.32 99.3519C113.599 99.3437 113.875 99.2952 114.14 99.2079C114.428 99.1359 114.716 99.0719 115.008 99.0279C116.088 98.8549 117.192 98.9204 118.244 99.2199C118.553 99.3103 118.855 99.4226 119.148 99.5559C119.148 99.3519 119.148 99.1559 119.112 98.9399C118.892 98.8599 118.668 98.7879 118.452 98.7279C117.87 98.5673 117.271 98.4773 116.668 98.4599Z" fill="#F28F8F"/>
<path d="M116.844 120.968C116.636 120.9 116.42 120.84 116.208 120.78C115.768 120.664 115.328 120.56 114.88 120.476C114.857 120.47 114.833 120.469 114.809 120.473C114.786 120.477 114.763 120.486 114.743 120.499C114.723 120.512 114.706 120.53 114.693 120.55C114.68 120.57 114.672 120.592 114.668 120.616C114.668 120.728 114.772 120.804 114.868 120.82C115.268 120.9 115.668 120.988 116.088 121.096L116.676 121.268L116.888 121.336L116.912 120.988L116.844 120.968Z" fill="#F28F8F"/>
<path d="M115.512 119.512C115.965 119.646 116.408 119.809 116.84 120L116.984 120.064L117.02 119.592L116.972 119.568C116.512 119.383 116.04 119.228 115.56 119.104C115.085 118.981 114.603 118.887 114.116 118.824C113.603 118.725 113.076 118.715 112.56 118.796C112.464 118.796 112.508 118.968 112.588 118.984C113.096 119.084 113.616 119.112 114.124 119.2C114.592 119.278 115.056 119.382 115.512 119.512Z" fill="#F28F8F"/>
<path d="M114.764 118.252C115.396 118.393 116.02 118.569 116.632 118.78C116.78 118.832 116.924 118.892 117.068 118.952C117.068 118.82 117.092 118.692 117.1 118.552L116.796 118.436C116.127 118.22 115.441 118.064 114.744 117.972C114.564 117.96 114.632 118.224 114.764 118.252Z" fill="#F28F8F"/>
<path d="M116.596 125.34C114.252 123.08 111.796 123.884 111.796 123.884C111.505 125.796 111.396 127.731 111.472 129.664C111.64 132.368 113.424 133.692 114.788 133.924C116.152 134.156 116.332 131.488 116.596 125.34Z" fill="#FFC4C3"/>
<path opacity="0.3" d="M116.552 126.336C116.552 126.016 116.58 125.684 116.596 125.34C114.252 123.08 111.796 123.884 111.796 123.884C112.264 124.716 114.856 126.176 116.552 126.336Z" fill="white"/>
<path d="M110.4 73.6439C109.316 72.1639 107.692 71.2919 106.092 70.4759C105.188 70.0382 104.312 69.5453 103.468 68.9999C103.42 68.9639 103.408 69.0679 103.436 69.0959C104.704 70.2159 106.236 70.9959 107.62 71.9319C109.138 72.8828 110.313 74.2922 110.976 75.9559C111.4 76.9199 111.752 77.9119 112.136 78.8919C112.164 78.9679 112.224 78.9199 112.216 78.8559C112 77.0399 111.488 75.1359 110.4 73.6439Z" fill="#F28F8F"/>
</svg>
