<svg width="404" height="200" viewBox="0 0 404 200" fill="none" xmlns="http://www.w3.org/2000/svg">
<path d="M341.923 20.9323H125.404C121.136 20.9323 117.675 24.3873 117.675 28.6494V166.388C117.675 170.65 121.136 174.105 125.404 174.105H341.923C346.191 174.105 349.652 170.65 349.652 166.388V28.6494C349.652 24.3873 346.191 20.9323 341.923 20.9323Z" fill="#455A64"/>
<path d="M108.61 164.211H359.937V168.189C359.937 170.689 358.942 173.087 357.172 174.855C355.401 176.623 352.999 177.617 350.495 177.617H118.052C115.548 177.617 113.146 176.623 111.375 174.855C109.604 173.087 108.61 170.689 108.61 168.189V164.211Z" fill="#455A64"/>
<path d="M342.777 27.0181H123.903V156.372H342.777V27.0181Z" fill="#263238"/>
<path d="M210.798 162.776L213.917 167.728H257.802L260.698 162.776H210.798Z" fill="#263238"/>
<path d="M336.984 31.3983H130.146C129.188 31.3983 128.412 32.1738 128.412 33.1303V154.227C128.412 155.183 129.188 155.959 130.146 155.959H336.984C337.942 155.959 338.719 155.183 338.719 154.227V33.1303C338.719 32.1738 337.942 31.3983 336.984 31.3983Z" fill="#EBEBEB"/>
<path d="M338.496 156.139H128.189L128.412 40.7045H338.496V156.139Z" fill="#FAFAFA"/>
<path d="M145.657 36.2077C145.657 36.54 145.558 36.8649 145.373 37.1411C145.188 37.4173 144.925 37.6325 144.618 37.7594C144.31 37.8864 143.972 37.9193 143.645 37.8541C143.319 37.7889 143.02 37.6284 142.785 37.3931C142.55 37.1577 142.39 36.8581 142.326 36.532C142.261 36.206 142.295 35.8682 142.423 35.5615C142.552 35.2548 142.768 34.9929 143.045 34.8091C143.322 34.6252 143.648 34.5276 143.981 34.5287C144.201 34.5287 144.42 34.5722 144.624 34.6566C144.827 34.7411 145.012 34.8648 145.168 35.0208C145.324 35.1768 145.447 35.3619 145.531 35.5656C145.615 35.7693 145.658 35.9875 145.657 36.2077Z" fill="#263238"/>
<path d="M135.478 36.2077C135.478 36.54 135.379 36.8649 135.194 37.1411C135.009 37.4173 134.746 37.6325 134.438 37.7594C134.131 37.8864 133.792 37.9193 133.466 37.8541C133.14 37.7889 132.84 37.6284 132.605 37.3931C132.37 37.1577 132.21 36.8581 132.146 36.532C132.082 36.206 132.116 35.8682 132.244 35.5615C132.372 35.2548 132.588 34.9929 132.866 34.8091C133.143 34.6252 133.469 34.5276 133.801 34.5287C134.022 34.5287 134.24 34.5722 134.444 34.6566C134.648 34.7411 134.833 34.8648 134.989 35.0208C135.144 35.1768 135.268 35.3619 135.352 35.5656C135.435 35.7693 135.478 35.9875 135.478 36.2077Z" fill="#263238"/>
<path d="M140.368 36.2077C140.368 36.5398 140.27 36.8644 140.085 37.1405C139.9 37.4166 139.638 37.6318 139.33 37.7589C139.023 37.886 138.685 37.9193 138.359 37.8545C138.033 37.7897 137.733 37.6298 137.498 37.395C137.263 37.1601 137.103 36.861 137.038 36.5353C136.973 36.2096 137.006 35.872 137.133 35.5652C137.261 35.2584 137.476 34.9961 137.753 34.8117C138.029 34.6272 138.354 34.5287 138.687 34.5287C139.133 34.5287 139.561 34.7056 139.876 35.0205C140.191 35.3353 140.368 35.7624 140.368 36.2077Z" fill="#263238"/>
<path d="M347.657 162.765C347.657 162.85 296.171 162.913 232.674 162.913C169.178 162.913 117.675 162.85 117.675 162.765C117.675 162.68 169.13 162.617 232.674 162.617C296.218 162.617 347.657 162.691 347.657 162.765Z" fill="#263238"/>
<path d="M307.177 98.0139H164.266C162.587 98.0139 160.978 97.3481 159.791 96.1631C158.604 94.9781 157.937 93.3709 157.937 91.695C157.937 90.0187 158.604 88.4109 159.79 87.225C160.977 86.0392 162.587 85.3723 164.266 85.3708H307.177C308.856 85.3723 310.466 86.0392 311.653 87.225C312.839 88.4109 313.506 90.0187 313.506 91.695C313.506 93.3709 312.839 94.9781 311.652 96.1631C310.466 97.3481 308.856 98.0139 307.177 98.0139Z" fill="#EBEBEB"/>
<path d="M238.106 98.0138H230.473C229.63 98.0209 228.794 97.8608 228.014 97.5428C227.234 97.2249 226.525 96.7555 225.928 96.1617C225.331 95.568 224.858 94.8619 224.536 94.0842C224.214 93.3065 224.051 92.4728 224.054 91.6314C224.042 90.8064 224.196 89.9873 224.506 89.2226C224.817 88.4579 225.278 87.7631 225.862 87.1794C226.446 86.5957 227.141 86.1349 227.907 85.8242C228.672 85.5136 229.493 85.3594 230.319 85.3708L238.106 85.4026C239.815 85.4305 241.444 86.1292 242.64 87.3476C243.836 88.566 244.504 90.2059 244.498 91.9121C244.498 95.4344 241.612 98.0138 238.106 98.0138Z" fill="#E0E0E0"/>
<mask id="mask0_30_1329" style="mask-type:luminance" maskUnits="userSpaceOnUse" x="157" y="85" width="84" height="14">
<path d="M235.942 98.0139H164.266C162.587 98.0139 160.978 97.3481 159.791 96.1631C158.604 94.9781 157.937 93.3709 157.937 91.695C157.937 90.0187 158.604 88.4109 159.79 87.225C160.977 86.0392 162.587 85.3723 164.266 85.3708H235.942C237.145 85.3708 238.298 85.848 239.149 86.6972C239.999 87.5465 240.477 88.6984 240.477 89.8994V93.4853C240.477 94.6863 239.999 95.8382 239.149 96.6875C238.298 97.5367 237.145 98.0139 235.942 98.0139Z" fill="white"/>
</mask>
<g mask="url(#mask0_30_1329)">
<path d="M234.143 98.0139H164.266C162.587 98.0139 160.978 97.3481 159.791 96.1631C158.604 94.9781 157.937 93.3709 157.937 91.695C157.937 90.0187 158.604 88.4109 159.79 87.225C160.977 86.0392 162.587 85.3723 164.266 85.3708H234.143C235.823 85.3708 237.434 86.0371 238.622 87.2231C239.81 88.4092 240.477 90.0177 240.477 91.695C240.477 92.5253 240.313 93.3474 239.995 94.1143C239.677 94.8813 239.21 95.5781 238.622 96.165C238.034 96.7518 237.335 97.2171 236.567 97.5344C235.798 97.8516 234.975 98.0146 234.143 98.0139Z" fill="#789F40"/>
<g opacity="0.2">
<path d="M166.685 85.3708L174.419 98.0139H179.888L171.846 85.3708H166.685Z" fill="white"/>
</g>
<g opacity="0.2">
<path d="M154.983 85.3708L162.717 98.0139H168.186L160.144 85.3708H154.983Z" fill="white"/>
</g>
<g opacity="0.2">
<path d="M178.005 85.3708L185.733 98.0139H191.208L183.166 85.3708H178.005Z" fill="white"/>
</g>
<g opacity="0.2">
<path d="M189.325 85.3708L197.054 98.0139H202.528L194.486 85.3708H189.325Z" fill="white"/>
</g>
<g opacity="0.2">
<path d="M200.64 85.3708L208.374 98.0139H213.843L205.801 85.3708H200.64Z" fill="white"/>
</g>
<g opacity="0.2">
<path d="M211.96 85.3708L219.689 98.0139H225.163L217.121 85.3708H211.96Z" fill="white"/>
</g>
<g opacity="0.2">
<path d="M223.28 85.3708L231.009 98.0139H236.483L228.441 85.3708H223.28Z" fill="white"/>
</g>
<g opacity="0.2">
<path d="M234.594 85.3708L242.329 98.0139H247.798L239.756 85.3708H234.594Z" fill="white"/>
</g>
</g>
<path d="M210.161 70.4132H211.053V75.8528H214.421V76.6261H210.177L210.161 70.4132Z" fill="black"/>
<path d="M214.819 73.517C214.793 72.8588 214.966 72.2079 215.313 71.6481C215.661 71.0882 216.168 70.6449 216.77 70.375C217.372 70.1051 218.041 70.0209 218.691 70.1333C219.341 70.2457 219.943 70.5495 220.419 71.0057C220.895 71.4619 221.223 72.0497 221.362 72.6937C221.501 73.3377 221.444 74.0085 221.199 74.6199C220.953 75.2314 220.53 75.7556 219.984 76.1253C219.438 76.4951 218.794 76.6935 218.134 76.695C217.705 76.7129 217.277 76.6439 216.875 76.4922C216.474 76.3405 216.107 76.1092 215.797 75.8123C215.488 75.5154 215.241 75.159 215.073 74.7646C214.905 74.3701 214.818 73.9458 214.819 73.517ZM220.543 73.517C220.548 73.0378 220.41 72.5678 220.147 72.1669C219.884 71.7661 219.508 71.4524 219.065 71.2658C218.623 71.0793 218.136 71.0283 217.664 71.1193C217.193 71.2103 216.76 71.4393 216.419 71.7771C216.079 72.1148 215.846 72.5461 215.752 73.0161C215.658 73.486 215.706 73.9733 215.889 74.416C216.073 74.8587 216.385 75.2367 216.785 75.502C217.185 75.7673 217.654 75.9079 218.134 75.9058C218.452 75.916 218.768 75.8613 219.064 75.7451C219.36 75.6289 219.629 75.4535 219.854 75.2299C220.08 75.0062 220.257 74.7389 220.375 74.4444C220.494 74.1499 220.551 73.8343 220.543 73.517Z" fill="black"/>
<path d="M226.669 75.0689H223.359L222.675 76.6261H221.762L224.579 70.4132H225.46L228.287 76.6261H227.354L226.669 75.0689ZM226.356 74.3592L225.014 71.3189L223.672 74.3592H226.356Z" fill="black"/>
<path d="M229.21 70.4132H231.831C233.831 70.4132 235.189 71.6738 235.189 73.517C235.189 75.3602 233.831 76.6261 231.831 76.6261H229.21V70.4132ZM231.778 75.8528C233.316 75.8528 234.303 74.91 234.303 73.517C234.303 72.124 233.316 71.1865 231.778 71.1865H230.096V75.8528H231.778Z" fill="black"/>
<path d="M236.552 70.4132H237.437V76.6261H236.552V70.4132Z" fill="black"/>
<path d="M244.657 70.4132V76.6261H243.925L240.212 71.9916V76.6261H239.321V70.4132H240.021L243.734 75.0424V70.4132H244.657Z" fill="black"/>
<path d="M250.832 73.4852H251.691V75.9005C251.022 76.4289 250.189 76.7079 249.336 76.6897C248.492 76.6897 247.682 76.3549 247.085 75.7589C246.488 75.1629 246.153 74.3546 246.153 73.5117C246.153 72.6689 246.488 71.8605 247.085 71.2646C247.682 70.6686 248.492 70.3338 249.336 70.3338C249.78 70.3141 250.223 70.3894 250.636 70.5548C251.048 70.7201 251.421 70.9716 251.728 71.2924L251.198 71.8221C250.961 71.5871 250.68 71.4025 250.37 71.2796C250.06 71.1567 249.728 71.098 249.394 71.1071C249.067 71.0853 248.739 71.1308 248.431 71.2407C248.122 71.3506 247.84 71.5227 247.601 71.7461C247.361 71.9696 247.171 72.2397 247.04 72.5398C246.91 72.8398 246.843 73.1634 246.843 73.4905C246.843 73.8176 246.91 74.1412 247.04 74.4413C247.171 74.7414 247.361 75.0115 247.601 75.235C247.84 75.4584 248.122 75.6304 248.431 75.7404C248.739 75.8503 249.067 75.8958 249.394 75.874C249.909 75.8857 250.416 75.7477 250.853 75.4768L250.832 73.4852Z" fill="black"/>
<path d="M252.948 76.0646C252.947 75.9849 252.962 75.9058 252.991 75.8318C253.021 75.7579 253.066 75.6908 253.122 75.6344C253.179 75.5781 253.246 75.5337 253.32 75.5038C253.394 75.474 253.473 75.4594 253.553 75.4608C253.631 75.4607 253.709 75.4765 253.781 75.5071C253.853 75.5377 253.919 75.5825 253.973 75.6389C254.027 75.6952 254.07 75.762 254.098 75.8351C254.126 75.9083 254.139 75.9863 254.136 76.0646C254.139 76.1434 254.126 76.2219 254.098 76.2957C254.07 76.3694 254.028 76.4369 253.974 76.4941C253.919 76.5513 253.854 76.5971 253.782 76.6288C253.71 76.6606 253.632 76.6777 253.553 76.679C253.473 76.679 253.393 76.6631 253.319 76.6321C253.245 76.6011 253.178 76.5556 253.122 76.4984C253.065 76.4412 253.021 76.3734 252.991 76.2989C252.962 76.2244 252.947 76.1448 252.948 76.0646Z" fill="black"/>
<path d="M254.964 76.0646C254.963 75.9849 254.977 75.9058 255.007 75.8318C255.037 75.7579 255.082 75.6908 255.138 75.6344C255.194 75.5781 255.262 75.5337 255.336 75.5038C255.41 75.474 255.489 75.4594 255.569 75.4608C255.647 75.4608 255.725 75.4765 255.798 75.507C255.87 75.5375 255.936 75.5823 255.991 75.6386C256.046 75.6949 256.089 75.7616 256.117 75.8347C256.146 75.9079 256.16 75.9861 256.157 76.0646C256.159 76.1436 256.146 76.2223 256.117 76.2961C256.089 76.3699 256.046 76.4373 255.991 76.4944C255.937 76.5515 255.871 76.5972 255.799 76.6289C255.726 76.6606 255.648 76.6776 255.569 76.679C255.488 76.679 255.409 76.6631 255.335 76.6321C255.261 76.6011 255.194 76.5556 255.137 76.4984C255.081 76.4412 255.037 76.3734 255.007 76.2989C254.977 76.2244 254.963 76.1448 254.964 76.0646Z" fill="black"/>
<path d="M256.996 76.0646C256.994 75.9849 257.009 75.9058 257.039 75.8318C257.069 75.7579 257.113 75.6908 257.17 75.6344C257.226 75.5781 257.293 75.5337 257.367 75.5038C257.441 75.474 257.52 75.4594 257.6 75.4608C257.679 75.46 257.757 75.4752 257.83 75.5055C257.903 75.5358 257.969 75.5805 258.024 75.6369C258.079 75.6934 258.122 75.7604 258.15 75.8339C258.179 75.9074 258.192 75.9859 258.189 76.0646C258.192 76.1438 258.179 76.2228 258.15 76.2969C258.122 76.371 258.079 76.4387 258.024 76.4959C257.97 76.5532 257.904 76.5989 257.831 76.6304C257.758 76.6618 257.68 76.6784 257.6 76.679C257.52 76.679 257.44 76.6631 257.366 76.6321C257.292 76.6011 257.225 76.5556 257.169 76.4984C257.113 76.4412 257.068 76.3734 257.039 76.2989C257.009 76.2244 256.994 76.1448 256.996 76.0646Z" fill="black"/>
<path d="M190.179 177.346L210.103 177.135L208.527 170.016L190.72 168.697L190.179 177.346Z" fill="#B78876"/>
<path d="M200.236 168.459L209.466 169.063C209.466 169.063 213.18 159.899 214.898 159.846L214.368 177.754L199.95 177.399L200.236 168.459Z" fill="#789F40"/>
<path d="M208.522 174.576C208.57 174.75 208.68 174.901 208.831 174.998C208.983 175.096 209.166 175.135 209.344 175.106C209.519 175.065 209.672 174.959 209.77 174.809C209.869 174.659 209.906 174.477 209.874 174.301C209.82 174.121 209.701 173.968 209.541 173.87C209.38 173.772 209.189 173.737 209.005 173.771C208.826 173.832 208.677 173.96 208.591 174.128C208.505 174.296 208.488 174.491 208.543 174.672" fill="#E0E0E0"/>
<path d="M214.362 177.754L212.909 177.664L213.97 160.524C213.97 160.524 214.341 159.74 214.903 159.846L214.362 177.754Z" fill="#E0E0E0"/>
<path d="M209.381 168.771C209.472 168.771 209.498 169.211 209.763 169.65C210.028 170.09 210.394 170.328 210.357 170.408C210.32 170.487 209.827 170.344 209.503 169.809C209.18 169.274 209.302 168.75 209.381 168.771Z" fill="#263238"/>
<path d="M210.214 166.912C210.299 166.912 210.437 167.278 210.798 167.585C211.158 167.892 211.551 167.993 211.545 168.077C211.54 168.162 211.042 168.21 210.602 167.818C210.161 167.426 210.135 166.912 210.214 166.912Z" fill="#263238"/>
<path d="M212.5 165.911C212.5 165.996 212.076 166.102 211.599 165.863C211.121 165.625 210.952 165.212 211.026 165.175C211.1 165.138 211.344 165.403 211.737 165.593C212.129 165.784 212.495 165.826 212.5 165.911Z" fill="#263238"/>
<path d="M207.265 168.866C207.339 168.904 207.206 169.301 207.228 169.793C207.249 170.286 207.392 170.683 207.312 170.726C207.233 170.768 206.936 170.387 206.925 169.804C206.915 169.221 207.196 168.819 207.265 168.866Z" fill="#263238"/>
<path d="M205.397 168.776C205.468 169.072 205.457 169.382 205.365 169.672C205.3 169.994 205.195 170.307 205.052 170.604C204.965 170.785 204.867 170.962 204.761 171.133C204.703 171.231 204.63 171.319 204.543 171.393C204.479 171.448 204.399 171.481 204.315 171.486C204.23 171.491 204.146 171.467 204.077 171.419C204.017 171.375 203.968 171.316 203.935 171.249C203.902 171.182 203.885 171.108 203.886 171.033C203.889 170.919 203.909 170.807 203.944 170.699C203.996 170.517 204.066 170.339 204.151 170.17C204.296 169.869 204.487 169.594 204.718 169.354C205.116 168.951 205.45 168.824 205.466 168.851C205.482 168.877 205.212 169.084 204.883 169.497C204.69 169.738 204.529 170.003 204.405 170.286C204.333 170.458 204.275 170.635 204.23 170.816C204.177 171.006 204.172 171.165 204.23 171.218C204.289 171.271 204.278 171.218 204.331 171.218C204.393 171.16 204.449 171.094 204.496 171.022C204.599 170.873 204.693 170.717 204.777 170.556C204.923 170.282 205.044 169.995 205.137 169.698C205.2 169.385 205.287 169.077 205.397 168.776Z" fill="#263238"/>
<path d="M205.54 168.893C205.279 169.056 204.972 169.131 204.665 169.105C204.333 169.111 204.003 169.059 203.689 168.951C203.504 168.889 203.326 168.808 203.159 168.708C203.042 168.657 202.94 168.576 202.864 168.474C202.788 168.372 202.739 168.252 202.724 168.125C202.729 168.045 202.755 167.968 202.801 167.903C202.847 167.837 202.91 167.786 202.984 167.754C203.091 167.712 203.203 167.685 203.318 167.675C203.588 167.642 203.861 167.662 204.122 167.736C204.384 167.81 204.628 167.935 204.84 168.104C205.291 168.464 205.37 168.835 205.37 168.84C205.37 168.845 205.169 168.559 204.729 168.279C204.476 168.114 204.19 168.008 203.891 167.966C203.715 167.941 203.536 167.941 203.36 167.966C203.164 167.966 203.01 168.051 203.026 168.125C203.042 168.199 203.164 168.369 203.313 168.448C203.465 168.542 203.627 168.62 203.795 168.681C204.081 168.79 204.381 168.858 204.686 168.882C205.179 168.93 205.508 168.845 205.54 168.893Z" fill="#263238"/>
<path d="M66.3052 171.769L64.7828 177.595L47.7019 177.442C47.7019 177.442 50.0412 175.678 58.6188 175.805L59.4516 171.769H66.3052Z" fill="#B78876"/>
<path d="M83.7893 92.8496C83.2846 91.8904 82.8743 90.8846 82.5639 89.8464C82.2525 88.8099 82.2525 87.7049 82.5639 86.6684C82.732 86.1508 83.0236 85.6817 83.4136 85.3016C83.8035 84.9215 84.2802 84.6416 84.8024 84.4862C85.4496 84.3273 86.1551 84.4015 86.7705 84.1366C87.4866 83.8347 87.9375 83.1409 88.4732 82.5847C89.3286 81.7094 90.4456 81.1351 91.656 80.9481C92.2819 80.8252 92.9299 80.884 93.5232 81.1176C93.8186 81.2386 94.0785 81.4322 94.2788 81.6803C94.4791 81.9285 94.6134 82.2232 94.669 82.5371C95.385 82.22 96.1393 81.9974 96.9129 81.875C97.6945 81.7567 98.4916 81.9467 99.1355 82.4047C99.4474 82.6428 99.6748 82.9743 99.7846 83.3507C99.8943 83.7271 99.8806 84.1287 99.7456 84.4968C100.068 84.3158 100.447 84.261 100.808 84.3433C101.168 84.4255 101.486 84.6388 101.698 84.9417C101.899 85.2516 102.006 85.6131 102.006 85.9825C102.006 86.3519 101.899 86.7134 101.698 87.0233C101.184 87.7042 100.446 88.181 99.6129 88.3686C98.8656 88.5526 98.087 88.5707 97.332 88.4216" fill="#263238"/>
<path d="M92.2288 115.847C93.7007 115.667 95.0413 114.912 95.9577 113.748C96.8741 112.584 97.2919 111.105 97.1196 109.635C96.9181 107.924 96.743 106.499 96.743 106.499C96.743 106.499 101.061 105.599 100.891 101.25C100.721 96.9015 99.4643 86.9492 99.4643 86.9492C96.9355 86.0124 94.2022 85.7664 91.5465 86.2366C88.8907 86.7068 86.4087 87.8761 84.3567 89.624L83.7361 90.1536L85.9587 110.858C86.035 111.6 86.2587 112.319 86.6167 112.973C86.9748 113.627 87.4599 114.204 88.0439 114.668C88.6278 115.133 89.2987 115.476 90.0173 115.679C90.7359 115.881 91.4877 115.939 92.2288 115.847Z" fill="#B78876"/>
<path d="M96.7431 106.435C94.7355 106.573 92.7322 106.112 90.9875 105.111C90.9875 105.111 92.4888 108.173 96.8226 107.558L96.7431 106.435Z" fill="#AA6550"/>
<path d="M84.5045 94.6398C84.4249 94.6133 81.4659 93.9088 81.7151 96.8749C81.9643 99.841 84.8969 98.9936 84.8969 98.8983C84.8969 98.8029 84.5045 94.6398 84.5045 94.6398Z" fill="#B78876"/>
<path d="M83.8897 97.8495C83.8897 97.8495 83.8419 97.8919 83.7571 97.9396C83.6374 98.0004 83.4991 98.0137 83.37 97.9766C83.1676 97.8719 82.997 97.715 82.8758 97.5222C82.7546 97.3294 82.6872 97.1078 82.6806 96.8802C82.6532 96.6264 82.6822 96.3696 82.7654 96.1281C82.7858 96.0334 82.8288 95.9449 82.8906 95.8703C82.9525 95.7956 83.0314 95.7369 83.1207 95.6991C83.1791 95.6794 83.2425 95.6802 83.3004 95.7014C83.3582 95.7226 83.4071 95.7629 83.4389 95.8156C83.4866 95.8951 83.4707 95.9533 83.4866 95.9586C83.5025 95.9639 83.5503 95.9057 83.4866 95.7839C83.465 95.7115 83.4179 95.6494 83.3541 95.6091C83.3114 95.5813 83.2637 95.5622 83.2136 95.5531C83.1635 95.5441 83.1121 95.5451 83.0624 95.5561C82.9374 95.5856 82.8224 95.6478 82.7292 95.7362C82.6361 95.8246 82.568 95.9361 82.5321 96.0593C82.4291 96.3273 82.3909 96.6159 82.4207 96.9014C82.4283 97.1671 82.5144 97.4245 82.6682 97.6413C82.822 97.8581 83.0367 98.0246 83.2851 98.1197C83.3666 98.1384 83.4513 98.1375 83.5324 98.1173C83.6135 98.097 83.6887 98.0579 83.7518 98.0031C83.8897 97.9237 83.9003 97.8548 83.8897 97.8495Z" fill="#AA6550"/>
<path d="M98.4614 94.1314C98.469 94.2926 98.4144 94.4506 98.3089 94.5728C98.2033 94.695 98.0548 94.772 97.894 94.7881C97.8153 94.7977 97.7354 94.7916 97.659 94.7701C97.5826 94.7486 97.5113 94.7121 97.4491 94.6628C97.3869 94.6135 97.3352 94.5524 97.2969 94.483C97.2585 94.4136 97.2344 94.3373 97.2259 94.2585C97.2156 94.0966 97.2692 93.9372 97.3753 93.8144C97.4814 93.6916 97.6315 93.6152 97.7933 93.6017C97.8722 93.5914 97.9523 93.597 98.029 93.6182C98.1057 93.6394 98.1773 93.6758 98.2396 93.7252C98.302 93.7746 98.3537 93.8361 98.3918 93.9058C98.4299 93.9756 98.4536 94.0523 98.4614 94.1314Z" fill="#263238"/>
<path d="M98.9491 93.1144C98.8801 93.1992 98.3869 92.8761 97.7188 92.9131C97.0506 92.9502 96.5786 93.3051 96.5044 93.2256C96.4301 93.1462 96.5362 93.0456 96.743 92.8761C97.0224 92.6611 97.3612 92.5372 97.7135 92.5212C98.0603 92.5034 98.4039 92.5961 98.6945 92.786C98.9172 92.9343 98.9862 93.0773 98.9491 93.1144Z" fill="#263238"/>
<path d="M92.0907 94.4386C92.0983 94.5998 92.0437 94.7578 91.9381 94.88C91.8325 95.0022 91.6841 95.0793 91.5233 95.0954C91.4445 95.1049 91.3646 95.0988 91.2882 95.0773C91.2118 95.0558 91.1405 95.0193 91.0783 94.97C91.0162 94.9208 90.9644 94.8597 90.9261 94.7903C90.8878 94.7208 90.8637 94.6445 90.8551 94.5657C90.8434 94.4035 90.8966 94.2433 91.0029 94.1202C91.1093 93.9971 91.2602 93.9211 91.4225 93.9089C91.5013 93.8993 91.5812 93.9055 91.6576 93.927C91.734 93.9485 91.8053 93.985 91.8675 94.0342C91.9296 94.0835 91.9814 94.1446 92.0197 94.2141C92.058 94.2835 92.0821 94.3598 92.0907 94.4386Z" fill="#263238"/>
<path d="M92.3819 93.5752C92.3076 93.66 91.8197 93.3316 91.1516 93.3687C90.4834 93.4058 90.0061 93.7659 89.9319 93.6865C89.8576 93.607 89.9637 93.5011 90.1705 93.3369C90.4492 93.1207 90.7884 92.9967 91.141 92.982C91.4897 92.9616 91.8358 93.0545 92.1273 93.2469C92.3394 93.3793 92.419 93.5329 92.3819 93.5752Z" fill="#263238"/>
<path d="M95.0613 98.4057C95.4022 98.2751 95.7588 98.1896 96.1219 98.1515C96.2916 98.125 96.4507 98.0826 96.4719 97.9661C96.4816 97.7895 96.4332 97.6147 96.334 97.4682C96.1537 97.0604 95.9628 96.6366 95.7613 96.1917C95.2362 95.1168 94.7999 94.0008 94.4568 92.8549C95.0734 93.8854 95.6054 94.9642 96.0477 96.0805L96.578 97.3623C96.696 97.5634 96.7392 97.7998 96.7 98.0296C96.6791 98.0905 96.6442 98.1457 96.5982 98.1908C96.5521 98.2359 96.4962 98.2695 96.4348 98.2892C96.3424 98.3213 96.2461 98.3409 96.1484 98.3474C95.7897 98.41 95.4247 98.4295 95.0613 98.4057Z" fill="#263238"/>
<path d="M93.1149 98.9672C93.2262 98.9672 93.2633 99.6769 93.9103 100.164C94.5573 100.651 95.3262 100.524 95.3368 100.625C95.3474 100.726 95.1724 100.779 94.8436 100.8C94.4192 100.831 93.9976 100.709 93.6558 100.455C93.3271 100.212 93.1049 99.8518 93.0353 99.4491C92.9929 99.1472 93.083 98.9619 93.1149 98.9672Z" fill="#263238"/>
<path d="M98.6467 91.9492C98.5353 92.1081 98.0687 91.9757 97.5119 91.9969C96.9551 92.0181 96.4937 92.1505 96.377 91.9969C96.324 91.9227 96.377 91.7638 96.5892 91.6102C96.8536 91.421 97.1707 91.3191 97.496 91.3189C97.8234 91.305 98.1466 91.3959 98.4187 91.5784C98.6202 91.7214 98.6944 91.875 98.6467 91.9492Z" fill="#263238"/>
<path d="M91.39 91.2023C91.3157 91.2871 91.146 91.2659 90.918 91.2288C90.6427 91.1852 90.3642 91.164 90.0854 91.1653C89.8075 91.1734 89.5307 91.2053 89.2582 91.2606C89.0355 91.303 88.8658 91.3294 88.7915 91.2606C88.7173 91.1917 88.7915 90.9905 88.9983 90.7839C89.296 90.5356 89.6711 90.3988 90.0589 90.3972C90.4419 90.3905 90.8158 90.5137 91.1195 90.7468C91.3953 90.9322 91.4536 91.1229 91.39 91.2023Z" fill="#263238"/>
<path d="M99.7508 88.2839C97.6824 88.9567 95.4536 88.9567 93.3853 88.2839C91.0883 87.5424 88.5209 87.3994 88.0329 87.9131C87.5449 88.4269 87.773 90.6409 85.7519 91.6208C85.7519 91.6208 86.5423 95.7945 84.8448 95.9004C83.1473 96.0064 83.2004 89.3485 83.2004 89.3485L86.9932 86.7267L91.3324 85.2066L95.5177 84.5657L99.597 85.1695L99.7508 88.2839Z" fill="#263238"/>
<path d="M106.143 115.376L119.213 127.59L139.901 113.49L146.363 120.906L126.491 136.796C124.498 138.571 121.951 139.604 119.282 139.719C117.478 139.797 115.68 139.452 114.033 138.712C112.386 137.971 110.936 136.856 109.798 135.456L102.796 129.555L106.143 115.376Z" fill="#789F40"/>
<path d="M94.0006 110.127L106.143 115.376L105.74 118.734L111.389 141.107L117.532 145.583L112.445 153.046C111.299 154.719 109.802 156.124 108.058 157.161L95.9474 164.354C94.8109 164.768 93.5593 164.736 92.4456 164.264C91.3319 163.792 90.4392 162.915 89.9479 161.811L79.2379 137.548L68.4748 170.879C68.1378 171.925 67.441 172.817 66.508 173.399C65.5749 173.981 64.4658 174.214 63.3771 174.057L59.1334 173.437C58.7915 173.387 58.464 173.266 58.1721 173.081C57.8802 172.897 57.6304 172.653 57.4389 172.366C57.2473 172.079 57.1183 171.755 57.0603 171.415C57.0022 171.075 57.0163 170.726 57.1017 170.392L69.1379 123.665C69.7712 121.238 70.8037 118.933 72.1933 116.843C73.4872 114.916 75.2252 113.328 77.2614 112.211C79.2977 111.094 81.5727 110.481 83.8953 110.424L94.0006 110.127Z" fill="#789F40"/>
<path d="M98.255 110.477L97.8041 108.046L84.9351 107.182V110.413C85.0252 111.335 86.5264 111.059 87.9269 111.637L94.2288 112.892C95.7671 113.014 99.0454 112.447 98.255 110.477Z" fill="#789F40"/>
<path d="M111.516 141.213C111.383 140.938 111.271 140.653 111.182 140.36C110.986 139.831 110.715 139.004 110.392 137.998C109.75 135.996 108.923 133.231 108.127 130.106C107.331 126.981 106.705 124.153 106.302 122.092C106.1 121.059 105.952 120.222 105.856 119.64C105.79 119.342 105.751 119.039 105.74 118.734C105.835 119.023 105.909 119.319 105.963 119.619C106.1 120.238 106.281 121.059 106.493 122.05C106.944 124.105 107.596 126.933 108.392 130.037C109.188 133.141 109.983 135.927 110.583 137.945C110.869 138.92 111.113 139.719 111.288 140.328C111.386 140.617 111.462 140.913 111.516 141.213Z" fill="#263238"/>
<path d="M83.1262 126.494C82.9944 127.063 82.817 127.621 82.5957 128.162C82.2138 129.253 81.7364 130.625 81.2059 132.135C80.6754 133.644 80.198 135.016 79.8161 136.107C79.649 136.665 79.4452 137.212 79.2061 137.744C79.2941 137.167 79.4362 136.599 79.6304 136.049C79.9381 134.989 80.3996 133.596 80.946 132.045C81.4923 130.493 82.0069 129.1 82.41 128.093C82.6031 127.541 82.8427 127.006 83.1262 126.494Z" fill="#263238"/>
<g opacity="0.2">
<path d="M79.1956 137.601C80.2317 139.942 81.2626 142.283 82.2882 144.624C82.4319 145.01 82.642 145.369 82.9088 145.683C83.045 145.841 83.2191 145.962 83.4149 146.034C83.6107 146.107 83.8217 146.128 84.0281 146.096C84.7919 145.922 84.9829 144.942 85.0094 144.163C85.1898 139.041 85.0094 133.798 83.2218 128.988C83.0945 128.639 82.8557 128.226 82.4844 128.273C82.1131 128.321 81.9964 128.697 81.9062 129.015L79.3918 138.019" fill="black"/>
</g>
<g opacity="0.2">
<path d="M112.588 138.083C112.794 137.955 112.961 137.775 113.072 137.56C113.183 137.346 113.234 137.105 113.219 136.864C113.182 136.383 113.053 135.914 112.837 135.482C111.433 132.208 109.542 129.164 107.23 126.451L109.771 135.456L112.588 138.083Z" fill="black"/>
</g>
<path d="M72.4321 134.047C72.4003 134.047 72.5276 130.985 72.7185 127.209C72.9094 123.432 73.0791 120.376 73.1109 120.376C73.1427 120.376 73.0154 123.443 72.8298 127.214C72.6442 130.985 72.4639 134.052 72.4321 134.047Z" fill="#E0E0E0"/>
<path d="M74.8186 123.432C74.8434 123.513 74.8541 123.597 74.8504 123.681C74.8634 123.912 74.8634 124.144 74.8504 124.375C74.7678 125.914 74.239 127.395 73.3285 128.639C73.1927 128.824 73.0458 129.001 72.8883 129.168C72.8346 129.233 72.7741 129.292 72.708 129.343C72.708 129.343 72.936 129.063 73.2383 128.586C74.1008 127.328 74.6215 125.868 74.7497 124.349C74.8186 123.792 74.8027 123.432 74.8186 123.432Z" fill="#E0E0E0"/>
<path d="M70.48 123.856C70.48 123.856 70.5278 124.174 70.6232 124.672C70.7553 125.325 70.958 125.963 71.2278 126.573C71.5017 127.178 71.8432 127.75 72.2459 128.279C72.5588 128.686 72.7762 128.914 72.7762 128.93C72.7141 128.887 72.6571 128.838 72.6065 128.782C72.4615 128.638 72.3252 128.486 72.1982 128.326C71.7711 127.805 71.4145 127.23 71.1376 126.615C70.8597 126.001 70.6653 125.353 70.5596 124.688C70.5243 124.488 70.5013 124.286 70.4906 124.084C70.4801 124.008 70.4766 123.932 70.48 123.856Z" fill="#E0E0E0"/>
<path d="M74.2722 121.621C74.2803 121.688 74.2803 121.755 74.2722 121.822C74.2833 121.998 74.2833 122.175 74.2722 122.352C74.2199 122.944 74.1062 123.53 73.9328 124.1C73.7621 124.673 73.531 125.227 73.2434 125.752C73.1609 125.913 73.0688 126.068 72.9677 126.218C72.934 126.276 72.893 126.33 72.8457 126.377C72.8457 126.377 72.973 126.123 73.1745 125.715C73.4352 125.195 73.6533 124.655 73.8268 124.1C73.9917 123.531 74.1123 122.95 74.1874 122.362C74.2025 122.114 74.2308 121.866 74.2722 121.621Z" fill="#E0E0E0"/>
<path d="M71.472 121.981C71.472 121.981 71.472 122.304 71.472 122.828C71.4883 123.506 71.5735 124.181 71.7266 124.841C71.8855 125.497 72.1093 126.136 72.3947 126.748C72.6175 127.219 72.7818 127.5 72.7659 127.511C72.7164 127.453 72.672 127.391 72.6334 127.325C72.5538 127.198 72.4478 127.018 72.3258 126.796C72.0181 126.182 71.7831 125.535 71.6258 124.868C71.4717 124.201 71.3952 123.518 71.3978 122.834C71.3983 122.627 71.4107 122.42 71.4349 122.214C71.4347 122.135 71.4473 122.056 71.472 121.981Z" fill="#E0E0E0"/>
<path d="M72.3578 120.98C72.3578 120.98 72.31 121.171 72.2729 121.478C72.2315 121.876 72.2529 122.278 72.3366 122.669C72.554 123.586 72.8668 124.296 72.8668 124.311C72.7764 124.167 72.7 124.015 72.6388 123.856C72.4716 123.481 72.3419 123.091 72.2517 122.691C72.1603 122.287 72.1495 121.87 72.2199 121.462C72.2328 121.294 72.2797 121.13 72.3578 120.98Z" fill="#E0E0E0"/>
<path d="M70.7239 127.924C70.7557 127.924 71.0633 128.501 71.5724 129.137C72.0814 129.772 72.5905 130.196 72.5693 130.238C72.4388 130.17 72.3191 130.082 72.214 129.979C71.6888 129.507 71.2445 128.952 70.8989 128.337C70.8204 128.209 70.7614 128.069 70.7239 127.924Z" fill="#E0E0E0"/>
<path d="M74.8714 128.628C74.7996 128.777 74.7087 128.916 74.601 129.041C74.3594 129.36 74.0991 129.664 73.8214 129.952C73.5409 130.24 73.2415 130.509 72.9252 130.757C72.8021 130.868 72.6669 130.964 72.5222 131.043C72.6274 130.916 72.7466 130.8 72.8775 130.699C73.1002 130.493 73.4078 130.207 73.7313 129.873C74.0548 129.539 74.3305 129.227 74.532 128.994C74.6329 128.861 74.7465 128.739 74.8714 128.628Z" fill="#E0E0E0"/>
<path d="M63.4248 168.289C63.393 168.289 63.5202 165.228 63.7112 161.451C63.9021 157.675 64.0718 154.619 64.1036 154.619C64.1354 154.619 64.0081 157.68 63.8172 161.457C63.6263 165.233 63.4566 168.289 63.4248 168.289Z" fill="#E0E0E0"/>
<path d="M65.8111 157.669C65.822 157.754 65.822 157.839 65.8111 157.924C65.8273 158.155 65.8273 158.387 65.8111 158.618C65.7285 160.156 65.1997 161.638 64.2891 162.881C64.1538 163.067 64.0068 163.244 63.849 163.411C63.796 163.478 63.7355 163.538 63.6687 163.591C63.6687 163.591 63.8967 163.31 64.2255 162.828C64.6535 162.204 64.9993 161.528 65.2543 160.816C65.5079 160.103 65.67 159.361 65.7369 158.607C65.8111 158.035 65.7899 157.669 65.8111 157.669Z" fill="#E0E0E0"/>
<path d="M61.4727 158.099C61.4727 158.099 61.5204 158.411 61.6159 158.914C61.8739 160.225 62.429 161.458 63.2386 162.521C63.5514 162.929 63.7689 163.157 63.7689 163.167C63.7055 163.126 63.6483 163.076 63.5992 163.019C63.4526 162.879 63.3162 162.728 63.1908 162.569C62.3324 161.522 61.767 160.266 61.5522 158.93C61.5169 158.729 61.4939 158.525 61.4833 158.321C61.4728 158.247 61.4693 158.173 61.4727 158.099Z" fill="#E0E0E0"/>
<path d="M65.2596 155.879C65.2596 155.879 65.2596 155.948 65.2596 156.075C65.2596 156.202 65.2596 156.388 65.2596 156.605C65.1641 157.801 64.8172 158.963 64.2415 160.016C64.1301 160.217 64.0347 160.376 63.9657 160.482C63.9302 160.539 63.8893 160.592 63.8438 160.641C63.8438 160.641 63.971 160.387 64.1725 159.979C64.4336 159.448 64.6517 158.897 64.8248 158.332C64.9913 157.765 65.1102 157.186 65.1801 156.6C65.2331 156.144 65.2437 155.879 65.2596 155.879Z" fill="#E0E0E0"/>
<path d="M62.4647 156.229C62.4647 156.229 62.4647 156.552 62.4647 157.071C62.4807 157.749 62.566 158.423 62.7193 159.084C62.8742 159.745 63.0945 160.389 63.3768 161.006C63.5996 161.478 63.7639 161.753 63.748 161.764C63.7321 161.774 63.695 161.705 63.6155 161.578C63.5013 161.409 63.3986 161.232 63.3079 161.049C62.9979 160.436 62.7628 159.789 62.6079 159.121C62.4514 158.452 62.3749 157.768 62.3799 157.082C62.3808 156.874 62.3932 156.668 62.417 156.462C62.42 156.382 62.4361 156.303 62.4647 156.229Z" fill="#E0E0E0"/>
<path d="M63.3771 155.222C63.3771 155.222 63.3294 155.408 63.2923 155.715C63.2483 156.115 63.2698 156.519 63.3559 156.912C63.568 157.828 63.8862 158.533 63.8862 158.549C63.7922 158.408 63.7156 158.257 63.6582 158.098C63.4918 157.723 63.3621 157.333 63.271 156.933C63.181 156.53 63.1684 156.113 63.2339 155.704C63.247 155.535 63.2958 155.371 63.3771 155.222Z" fill="#E0E0E0"/>
<path d="M61.7168 162.161C61.7433 162.161 62.0562 162.738 62.5653 163.379C63.0744 164.02 63.5834 164.439 63.5622 164.481C63.431 164.411 63.3112 164.322 63.2069 164.216C62.9433 163.981 62.7003 163.724 62.4804 163.448C62.2579 163.172 62.0609 162.876 61.8918 162.564C61.8105 162.441 61.7513 162.304 61.7168 162.161Z" fill="#E0E0E0"/>
<path d="M65.8642 162.865C65.7909 163.015 65.7001 163.156 65.5938 163.284C65.3517 163.601 65.0914 163.903 64.8142 164.19C64.5316 164.481 64.2286 164.752 63.9074 165C63.7871 165.112 63.6514 165.207 63.5044 165.281C63.6107 165.156 63.7298 165.042 63.8597 164.942C64.0824 164.735 64.39 164.449 64.7135 164.115C65.037 163.782 65.3127 163.464 65.5089 163.236C65.6148 163.101 65.7339 162.977 65.8642 162.865Z" fill="#E0E0E0"/>
<path d="M83.052 124.364C83.0202 124.364 83.1475 121.303 83.3331 117.526C83.5187 113.75 83.699 110.694 83.7308 110.694C83.7626 110.694 83.63 113.755 83.4444 117.532C83.2588 121.308 83.0838 124.364 83.052 124.364Z" fill="#E0E0E0"/>
<path d="M85.4383 113.745C85.4459 113.829 85.4459 113.914 85.4383 113.999C85.4545 114.23 85.4545 114.462 85.4383 114.693C85.3557 116.231 84.8269 117.713 83.9163 118.957C83.7794 119.141 83.6325 119.318 83.4762 119.486C83.4232 119.553 83.3627 119.613 83.2959 119.666C83.2959 119.666 83.5239 119.386 83.8527 118.904C84.7164 117.647 85.2356 116.186 85.3588 114.666C85.433 114.105 85.4171 113.745 85.4383 113.745Z" fill="#E0E0E0"/>
<path d="M81.0997 114.174C81.0997 114.174 81.1422 114.486 81.2429 114.989C81.3697 115.642 81.5707 116.278 81.8421 116.886C82.1189 117.492 82.4621 118.066 82.8656 118.596C83.1785 118.999 83.3959 119.232 83.3959 119.243C83.3349 119.2 83.2797 119.151 83.2315 119.094C83.0857 118.952 82.9476 118.801 82.8179 118.644C82.3909 118.123 82.0343 117.547 81.7573 116.933C81.4811 116.318 81.2851 115.67 81.174 115.005C81.1369 114.746 81.1156 114.539 81.1103 114.396C81.093 114.323 81.0894 114.248 81.0997 114.174Z" fill="#E0E0E0"/>
<path d="M84.8868 111.917C84.8868 111.917 84.8868 111.986 84.8868 112.113C84.8868 112.24 84.8868 112.426 84.8868 112.643C84.8358 113.239 84.7238 113.828 84.5527 114.401C84.385 114.975 84.1556 115.529 83.8686 116.054C83.7572 116.255 83.6618 116.414 83.5875 116.52C83.5133 116.626 83.4762 116.679 83.4709 116.674C83.4656 116.668 83.5981 116.425 83.7996 116.017C84.0609 115.487 84.2773 114.936 84.4466 114.37C84.6171 113.804 84.7378 113.224 84.8072 112.638C84.8602 112.219 84.8708 111.917 84.8868 111.917Z" fill="#E0E0E0"/>
<path d="M82.0864 112.299C82.0864 112.299 82.0864 112.627 82.0864 113.146C82.1027 113.824 82.188 114.498 82.341 115.159C82.4951 115.819 82.7172 116.462 83.0038 117.076C83.2213 117.553 83.391 117.828 83.3697 117.839C83.3185 117.782 83.274 117.72 83.2372 117.654C83.1271 117.483 83.0262 117.306 82.9349 117.124C82.6226 116.513 82.3874 115.865 82.2349 115.196C82.0758 114.528 81.9992 113.843 82.0069 113.157C82.0069 112.897 82.0069 112.685 82.0387 112.537C82.0488 112.457 82.0647 112.377 82.0864 112.299Z" fill="#E0E0E0"/>
<path d="M83.0041 111.298C83.0041 111.298 82.9563 111.483 82.9192 111.79C82.8753 112.19 82.8968 112.594 82.9828 112.987C83.195 113.904 83.5131 114.608 83.5131 114.624C83.4167 114.485 83.3399 114.334 83.2851 114.174C83.1171 113.799 82.9874 113.409 82.898 113.008C82.8079 112.605 82.7953 112.188 82.8609 111.78C82.8739 111.611 82.9227 111.446 83.0041 111.298Z" fill="#E0E0E0"/>
<path d="M81.3438 118.236C81.3438 118.236 81.6778 118.814 82.1922 119.454C82.7066 120.095 83.2104 120.514 83.1892 120.556C83.0579 120.486 82.9381 120.397 82.8339 120.291C82.3045 119.819 81.8597 119.26 81.5187 118.639C81.4384 118.515 81.3793 118.379 81.3438 118.236Z" fill="#E0E0E0"/>
<path d="M85.4914 118.941C85.418 119.09 85.3272 119.231 85.2209 119.359C84.9788 119.676 84.7186 119.978 84.4414 120.265C84.1631 120.553 83.8673 120.823 83.5558 121.075C83.4335 121.187 83.296 121.282 83.1475 121.356C83.2573 121.231 83.378 121.116 83.5081 121.012C83.7308 120.81 84.0384 120.524 84.3618 120.191C84.6853 119.857 84.9611 119.539 85.1573 119.306C85.2555 119.173 85.3675 119.05 85.4914 118.941Z" fill="#E0E0E0"/>
<path d="M94.5522 121.907C94.5204 121.907 94.6477 118.84 94.8333 115.069C95.0189 111.298 95.1992 108.236 95.2257 108.236C95.2522 108.236 95.1303 111.298 94.9447 115.074C94.7591 118.851 94.5788 121.907 94.5522 121.907Z" fill="#E0E0E0"/>
<path d="M96.9388 111.287C96.9464 111.372 96.9464 111.457 96.9388 111.541C96.9388 111.706 96.9388 111.944 96.9388 112.235C96.8435 113.763 96.3157 115.233 95.4169 116.472C95.2799 116.657 95.133 116.834 94.9767 117.002C94.8654 117.124 94.8017 117.188 94.7911 117.182C94.7805 117.177 95.0191 116.902 95.3532 116.42C96.2169 115.163 96.7361 113.702 96.8593 112.182C96.9335 111.647 96.9176 111.287 96.9388 111.287Z" fill="#E0E0E0"/>
<path d="M92.6003 111.716C92.6003 111.716 92.6428 112.029 92.7435 112.532C92.8703 113.185 93.0713 113.821 93.3428 114.428C93.6195 115.034 93.9627 115.608 94.3662 116.139C94.6738 116.541 94.8965 116.774 94.8965 116.785C94.8344 116.742 94.7774 116.693 94.7268 116.637C94.6261 116.536 94.4829 116.382 94.3185 116.186C93.8945 115.663 93.5381 115.088 93.2579 114.476C92.9831 113.86 92.7888 113.212 92.6799 112.548C92.6428 112.288 92.6162 112.082 92.6109 111.939C92.5949 111.866 92.5913 111.79 92.6003 111.716Z" fill="#E0E0E0"/>
<path d="M96.3873 109.481C96.394 109.546 96.394 109.612 96.3873 109.677C96.3873 109.804 96.3873 109.989 96.3873 110.207C96.3363 110.803 96.2244 111.392 96.0532 111.965C95.8809 112.537 95.6517 113.091 95.3692 113.618C95.2846 113.777 95.1907 113.93 95.0881 114.078C95.0192 114.19 94.9767 114.243 94.9661 114.237C94.9555 114.232 95.0987 113.988 95.3002 113.58C95.8245 112.519 96.1652 111.376 96.3078 110.201C96.3555 109.762 96.3714 109.476 96.3873 109.481Z" fill="#E0E0E0"/>
<path d="M93.6133 109.841C93.6133 109.841 93.6133 110.169 93.6133 110.689C93.6343 111.366 93.7213 112.04 93.8731 112.701C94.0273 113.362 94.2494 114.004 94.536 114.619C94.7534 115.095 94.9178 115.371 94.9019 115.381C94.8507 115.325 94.8062 115.263 94.7693 115.196C94.6898 115.074 94.5837 114.889 94.4618 114.666C94.154 114.053 93.9191 113.406 93.7618 112.738C93.6066 112.07 93.5318 111.385 93.539 110.699C93.5386 110.492 93.5492 110.285 93.5709 110.079C93.5755 109.999 93.5897 109.919 93.6133 109.841Z" fill="#E0E0E0"/>
<path d="M94.4781 108.84C94.4781 108.84 94.4304 109.025 94.388 109.333C94.3458 109.733 94.3691 110.137 94.4569 110.53C94.669 111.446 94.9872 112.15 94.9872 112.166C94.8957 112.025 94.8193 111.874 94.7592 111.716C94.5936 111.341 94.4639 110.951 94.3721 110.551C94.2807 110.147 94.2699 109.73 94.3402 109.322C94.3516 109.153 94.3986 108.989 94.4781 108.84Z" fill="#E0E0E0"/>
<path d="M92.8389 115.779C92.8707 115.779 93.1783 116.356 93.6926 116.997C94.207 117.638 94.7055 118.056 94.6843 118.098C94.5553 118.028 94.4374 117.939 94.3343 117.834C94.0688 117.599 93.8239 117.342 93.6025 117.066C93.3845 116.787 93.1894 116.491 93.0192 116.181C92.9389 116.057 92.8781 115.921 92.8389 115.779Z" fill="#E0E0E0"/>
<path d="M96.9863 116.483C96.9181 116.635 96.8269 116.777 96.7159 116.901C96.4774 117.22 96.2188 117.522 95.9416 117.807C95.6633 118.095 95.3675 118.366 95.056 118.618C94.9337 118.73 94.7963 118.824 94.6477 118.898C94.7564 118.774 94.8752 118.659 95.003 118.554C95.231 118.353 95.5333 118.067 95.8621 117.733C96.1909 117.399 96.4613 117.082 96.6575 116.848C96.7568 116.718 96.8668 116.596 96.9863 116.483Z" fill="#E0E0E0"/>
<path d="M99.2788 132.627C99.247 132.627 99.3743 129.56 99.5599 125.789C99.7455 122.018 99.9258 118.957 99.9576 118.957C99.9894 118.957 99.8621 122.018 99.6712 125.794C99.4803 129.571 99.3106 132.627 99.2788 132.627Z" fill="#E0E0E0"/>
<path d="M101.665 122.007C101.676 122.092 101.676 122.177 101.665 122.262C101.681 122.493 101.681 122.725 101.665 122.956C101.582 124.494 101.054 125.976 100.143 127.219C100.006 127.404 99.8593 127.581 99.703 127.749C99.65 127.816 99.5895 127.876 99.5227 127.929C99.5227 127.929 99.7507 127.648 100.08 127.166C100.943 125.909 101.462 124.449 101.586 122.929C101.665 122.368 101.644 122.007 101.665 122.007Z" fill="#E0E0E0"/>
<path d="M97.3266 122.436C97.3266 122.436 97.369 122.749 97.4698 123.252C97.596 123.906 97.799 124.542 98.0743 125.148C98.3476 125.755 98.6891 126.329 99.0925 126.859C99.4054 127.262 99.6228 127.495 99.6228 127.505C99.5594 127.464 99.5022 127.414 99.4531 127.357C99.347 127.256 99.2092 127.103 99.0395 126.907C98.6124 126.385 98.2559 125.81 97.9789 125.196C97.7027 124.581 97.5066 123.933 97.3955 123.268C97.3584 123.008 97.3372 122.802 97.3319 122.659C97.3232 122.585 97.3215 122.511 97.3266 122.436Z" fill="#E0E0E0"/>
<path d="M101.114 120.201C101.114 120.201 101.114 120.27 101.114 120.397C101.114 120.524 101.114 120.71 101.114 120.927C101.062 121.522 100.952 122.111 100.785 122.685C100.613 123.259 100.382 123.813 100.096 124.338C99.9843 124.539 99.8888 124.698 99.8199 124.799C99.7509 124.899 99.7032 124.963 99.6979 124.958C99.6926 124.952 99.8252 124.709 100.027 124.301C100.288 123.77 100.506 123.219 100.679 122.654C100.847 122.087 100.968 121.508 101.04 120.922C101.087 120.482 101.098 120.196 101.114 120.201Z" fill="#E0E0E0"/>
<path d="M98.3132 120.561C98.3132 120.561 98.3132 120.89 98.3132 121.409C98.3295 122.087 98.4148 122.761 98.5678 123.422C98.7243 124.081 98.9464 124.723 99.2306 125.339C99.4534 125.816 99.6178 126.091 99.6018 126.102C99.5859 126.112 99.5435 126.038 99.4693 125.916C99.3551 125.747 99.2524 125.57 99.1617 125.387C98.8517 124.774 98.6166 124.127 98.4617 123.459C98.3026 122.791 98.226 122.106 98.2337 121.419C98.2346 121.212 98.247 121.005 98.2708 120.8C98.2778 120.719 98.292 120.639 98.3132 120.561Z" fill="#E0E0E0"/>
<path d="M99.2045 119.56C99.2045 119.56 99.1568 119.746 99.1197 120.053C99.0757 120.453 99.0972 120.857 99.1833 121.25C99.3954 122.166 99.7136 122.871 99.7136 122.887C99.6196 122.746 99.543 122.595 99.4856 122.436C99.3199 122.061 99.1903 121.671 99.0984 121.271C99.0083 120.868 98.9958 120.451 99.0613 120.042C99.0743 119.873 99.1231 119.709 99.2045 119.56Z" fill="#E0E0E0"/>
<path d="M97.5706 126.499C97.5706 126.499 97.9046 127.076 98.419 127.717C98.9334 128.358 99.4372 128.776 99.416 128.819C99.2847 128.749 99.1649 128.66 99.0607 128.554C98.7992 128.325 98.5563 128.075 98.3342 127.807C98.1129 127.53 97.9159 127.234 97.7455 126.923C97.663 126.793 97.6038 126.649 97.5706 126.499Z" fill="#E0E0E0"/>
<path d="M101.718 127.203C101.645 127.353 101.554 127.493 101.448 127.622C101.206 127.939 100.945 128.241 100.668 128.528C100.39 128.815 100.094 129.086 99.7826 129.338C99.6603 129.45 99.5228 129.545 99.3743 129.619C99.4858 129.495 99.6064 129.38 99.7349 129.274C99.9576 129.073 100.265 128.787 100.589 128.453C100.912 128.12 101.188 127.802 101.384 127.569C101.484 127.437 101.596 127.315 101.718 127.203Z" fill="#E0E0E0"/>
<path d="M115.686 136.875C115.654 136.875 114.683 133.978 113.516 130.381C112.349 126.785 111.426 123.867 111.453 123.856C111.479 123.845 112.45 126.753 113.623 130.35C114.795 133.946 115.713 136.864 115.686 136.875Z" fill="#E0E0E0"/>
<path d="M114.137 126.102C114.184 126.173 114.223 126.25 114.254 126.329C114.347 126.54 114.428 126.756 114.498 126.976C114.731 127.706 114.858 128.466 114.874 129.232C114.888 129.999 114.794 130.764 114.593 131.504C114.533 131.727 114.46 131.946 114.376 132.161C114.347 132.241 114.311 132.319 114.27 132.394C114.27 132.394 114.381 132.05 114.519 131.483C114.694 130.748 114.776 129.993 114.763 129.237C114.746 128.481 114.632 127.73 114.423 127.002C114.264 126.441 114.121 126.107 114.137 126.102Z" fill="#E0E0E0"/>
<path d="M110.233 128.04C110.233 128.04 110.387 128.321 110.657 128.755C111.012 129.319 111.428 129.841 111.899 130.313C112.369 130.783 112.892 131.197 113.458 131.547C113.893 131.817 114.18 131.954 114.174 131.97C114.1 131.953 114.029 131.926 113.962 131.891C113.78 131.81 113.602 131.718 113.432 131.615C112.851 131.278 112.316 130.866 111.84 130.392C111.362 129.919 110.948 129.384 110.61 128.803C110.509 128.631 110.417 128.454 110.334 128.273C110.289 128.201 110.255 128.122 110.233 128.04Z" fill="#E0E0E0"/>
<path d="M112.981 124.629C113.018 124.684 113.047 124.745 113.066 124.809C113.131 124.983 113.188 125.16 113.235 125.339C113.403 125.912 113.51 126.502 113.553 127.097C113.596 127.693 113.578 128.291 113.5 128.882C113.469 129.11 113.431 129.296 113.405 129.412C113.393 129.478 113.373 129.542 113.347 129.603C113.347 129.603 113.378 129.322 113.421 128.872C113.468 128.281 113.468 127.688 113.421 127.097C113.376 126.51 113.282 125.927 113.14 125.355C113.05 124.878 112.965 124.629 112.981 124.629Z" fill="#E0E0E0"/>
<path d="M110.493 125.943C110.493 125.943 110.604 126.245 110.8 126.727C111.311 127.989 112.08 129.132 113.059 130.079C113.431 130.44 113.685 130.641 113.674 130.657C113.605 130.624 113.541 130.581 113.484 130.53C113.314 130.408 113.153 130.275 113.001 130.132C111.987 129.202 111.208 128.046 110.726 126.758C110.636 126.509 110.572 126.308 110.535 126.165C110.511 126.093 110.497 126.018 110.493 125.943Z" fill="#E0E0E0"/>
<path d="M110.965 124.688C110.965 124.688 110.965 124.878 111.06 125.18C111.163 125.568 111.328 125.936 111.548 126.271C112.079 127.055 112.641 127.595 112.609 127.622C112.472 127.525 112.347 127.411 112.238 127.283C111.948 126.99 111.687 126.671 111.458 126.329C111.23 125.985 111.072 125.6 110.991 125.196C110.947 125.03 110.938 124.857 110.965 124.688Z" fill="#E0E0E0"/>
<path d="M111.909 131.753C111.909 131.727 112.439 132.172 113.134 132.59C113.829 133.008 114.465 133.231 114.455 133.263C114.309 133.249 114.167 133.209 114.036 133.146C113.703 133.02 113.382 132.866 113.076 132.685C112.771 132.506 112.484 132.298 112.217 132.066C112.097 131.98 111.993 131.874 111.909 131.753Z" fill="#E0E0E0"/>
<path d="M116.036 130.943C116.019 131.107 115.983 131.269 115.929 131.425C115.818 131.809 115.684 132.185 115.526 132.553C115.374 132.917 115.196 133.271 114.996 133.612C114.923 133.763 114.828 133.902 114.715 134.025C114.773 133.87 114.844 133.719 114.927 133.575C115.065 133.305 115.251 132.929 115.458 132.516C115.664 132.103 115.786 131.7 115.887 131.414C115.919 131.252 115.969 131.094 116.036 130.943Z" fill="#E0E0E0"/>
<path d="M133.207 121.907C133.207 121.907 131.308 124.317 128.921 127.246C126.534 130.175 124.571 132.542 124.55 132.542C124.529 132.542 126.444 130.132 128.836 127.198C131.228 124.264 133.181 121.891 133.207 121.907Z" fill="#E0E0E0"/>
<path d="M124.98 129.047C125.018 128.972 125.06 128.899 125.107 128.829C125.235 128.635 125.373 128.448 125.521 128.268C126.504 127.083 127.808 126.204 129.276 125.736C129.498 125.667 129.722 125.61 129.95 125.567C130.033 125.543 130.119 125.53 130.205 125.53C130.205 125.53 129.855 125.62 129.303 125.81C128.588 126.063 127.908 126.403 127.277 126.822C126.65 127.248 126.08 127.752 125.579 128.321C125.197 128.761 125.001 129.062 124.98 129.047Z" fill="#E0E0E0"/>
<path d="M128.73 131.271C128.73 131.271 128.884 130.991 129.101 130.53C129.383 129.927 129.596 129.294 129.738 128.644C129.878 127.993 129.944 127.329 129.934 126.663C129.934 126.134 129.881 125.837 129.902 125.837C129.924 125.908 129.94 125.98 129.95 126.054C129.98 126.256 130 126.459 130.008 126.663C130.043 127.336 129.99 128.011 129.849 128.671C129.7 129.328 129.466 129.964 129.154 130.561C129.066 130.746 128.963 130.923 128.847 131.091C128.816 131.156 128.777 131.217 128.73 131.271Z" fill="#E0E0E0"/>
<path d="M124.38 130.832C124.38 130.832 124.412 130.768 124.486 130.662C124.592 130.515 124.705 130.373 124.826 130.238C125.218 129.789 125.656 129.381 126.131 129.02C126.608 128.66 127.122 128.352 127.664 128.098C127.836 128.017 128.013 127.946 128.194 127.887C128.255 127.859 128.319 127.84 128.385 127.828C128.385 127.828 128.13 127.955 127.727 128.167C127.201 128.438 126.699 128.754 126.226 129.11C125.756 129.469 125.314 129.864 124.905 130.291C124.545 130.625 124.38 130.842 124.38 130.832Z" fill="#E0E0E0"/>
<path d="M126.826 132.193C126.826 132.193 127.022 131.933 127.319 131.51C127.707 130.952 128.04 130.358 128.311 129.735C128.577 129.111 128.777 128.462 128.91 127.797C129.016 127.267 129.048 126.965 129.069 126.965C129.077 127.041 129.077 127.117 129.069 127.193C129.056 127.401 129.031 127.608 128.995 127.813C128.879 128.488 128.685 129.147 128.417 129.778C128.146 130.41 127.8 131.007 127.388 131.557C127.229 131.764 127.091 131.928 126.99 132.034C126.942 132.094 126.887 132.147 126.826 132.193Z" fill="#E0E0E0"/>
<path d="M125.51 132.479C125.51 132.479 125.664 132.357 125.876 132.129C126.147 131.834 126.368 131.496 126.528 131.128C126.905 130.265 127.058 129.497 127.096 129.507C127.087 129.687 127.058 129.864 127.011 130.037C126.921 130.437 126.794 130.827 126.629 131.202C126.463 131.581 126.225 131.925 125.929 132.214C125.809 132.33 125.666 132.42 125.51 132.479Z" fill="#E0E0E0"/>
<path d="M130.947 127.855C130.916 127.855 131.016 127.187 130.984 126.372C130.953 125.556 130.804 124.905 130.836 124.894C130.9 125.028 130.942 125.171 130.963 125.318C131.038 125.666 131.083 126.021 131.096 126.377C131.108 126.731 131.091 127.085 131.043 127.436C131.034 127.58 131.001 127.721 130.947 127.855Z" fill="#E0E0E0"/>
<path d="M128.024 124.83C128.171 124.754 128.326 124.695 128.486 124.656C128.869 124.542 129.259 124.452 129.653 124.386C130.048 124.32 130.446 124.277 130.846 124.258C131.012 124.241 131.179 124.241 131.345 124.258C131.183 124.298 131.018 124.321 130.852 124.327C130.549 124.359 130.13 124.407 129.674 124.486C129.218 124.566 128.804 124.65 128.507 124.725C128.35 124.776 128.189 124.812 128.024 124.83Z" fill="#E0E0E0"/>
<path d="M97.5705 159.37C97.5386 159.37 97.4379 156.308 97.3371 152.532C97.2364 148.755 97.1886 145.689 97.2205 145.689C97.2523 145.689 97.353 148.75 97.4485 152.527C97.5439 156.303 97.6023 159.37 97.5705 159.37Z" fill="#E0E0E0"/>
<path d="M99.151 148.602C99.1793 148.684 99.1954 148.769 99.1987 148.856C99.2296 149.084 99.2473 149.314 99.2517 149.544C99.2792 151.084 98.8632 152.599 98.0533 153.909C97.8942 154.158 97.7563 154.354 97.6555 154.481C97.6073 154.551 97.5503 154.615 97.4858 154.672C97.4858 154.672 97.6927 154.375 97.9843 153.872C98.366 153.217 98.6602 152.516 98.8593 151.785C99.0575 151.054 99.1626 150.301 99.1722 149.544C99.1775 148.994 99.1298 148.607 99.151 148.602Z" fill="#E0E0E0"/>
<path d="M94.8546 149.354C94.8546 149.354 94.9236 149.666 95.0615 150.159C95.2386 150.801 95.4876 151.421 95.8039 152.007C96.1252 152.589 96.5093 153.135 96.9493 153.633C97.294 154.015 97.5273 154.227 97.5167 154.243C97.4507 154.205 97.3901 154.159 97.3364 154.105C97.181 153.975 97.034 153.835 96.8963 153.686C96.4308 153.199 96.0314 152.652 95.7084 152.06C95.3877 151.467 95.1452 150.835 94.9872 150.18C94.9388 149.981 94.9017 149.779 94.8759 149.576C94.8605 149.503 94.8533 149.428 94.8546 149.354Z" fill="#E0E0E0"/>
<path d="M98.4669 146.843C98.4871 146.907 98.4978 146.973 98.4987 147.039C98.4987 147.166 98.4987 147.352 98.4987 147.569C98.4948 148.167 98.4291 148.764 98.3025 149.349C98.1757 149.932 97.9873 150.5 97.7404 151.043C97.6449 151.25 97.5654 151.42 97.5017 151.531C97.4742 151.591 97.4365 151.647 97.3904 151.695C97.3904 151.695 97.5017 151.435 97.6714 151.012C97.8949 150.464 98.0723 149.899 98.2017 149.322C98.3235 148.745 98.3998 148.158 98.4298 147.569C98.4563 147.124 98.451 146.843 98.4669 146.843Z" fill="#E0E0E0"/>
<path d="M95.7033 147.405C95.7033 147.405 95.7033 147.728 95.7723 148.247C95.8423 148.922 95.979 149.59 96.1806 150.238C96.3851 150.884 96.6552 151.507 96.9866 152.097C97.2412 152.553 97.4268 152.818 97.4109 152.828C97.3545 152.776 97.3046 152.718 97.2624 152.654C97.1722 152.537 97.0556 152.362 96.9177 152.124C96.5641 151.536 96.2811 150.908 96.0745 150.254C95.8681 149.599 95.7417 148.922 95.698 148.236C95.698 147.977 95.698 147.765 95.698 147.617C95.6921 147.546 95.6938 147.475 95.7033 147.405Z" fill="#E0E0E0"/>
<path d="M96.515 146.345C96.515 146.345 96.4779 146.536 96.4673 146.843C96.451 147.245 96.503 147.646 96.6211 148.03C96.9021 148.93 97.2946 149.619 97.2521 149.619C97.1463 149.485 97.0572 149.339 96.987 149.184C96.7934 148.823 96.6354 148.443 96.515 148.051C96.3932 147.655 96.35 147.24 96.3877 146.827C96.398 146.66 96.4413 146.496 96.515 146.345Z" fill="#E0E0E0"/>
<path d="M95.4062 153.39C95.4328 153.39 95.7881 153.919 96.3449 154.539C96.9017 155.159 97.4373 155.535 97.4055 155.561C97.2697 155.505 97.1443 155.426 97.0343 155.328C96.7518 155.114 96.4891 154.875 96.2494 154.613C96.0045 154.357 95.786 154.076 95.5972 153.776C95.5107 153.66 95.446 153.529 95.4062 153.39Z" fill="#E0E0E0"/>
<path d="M99.5964 153.761C99.5344 153.914 99.4543 154.06 99.3577 154.195C98.9221 154.866 98.4076 155.483 97.8252 156.033C97.712 156.153 97.5836 156.258 97.4434 156.345C97.5423 156.213 97.6523 156.089 97.7721 155.975C97.979 155.757 98.2653 155.445 98.5623 155.09C98.8593 154.735 99.0926 154.396 99.2888 154.153C99.3755 154.01 99.4788 153.879 99.5964 153.761Z" fill="#E0E0E0"/>
<path d="M109.246 148.533C109.214 148.533 108.244 145.636 107.076 142.044C105.909 138.453 104.981 135.524 105.013 135.514C105.045 135.503 106.01 138.411 107.183 142.007C108.355 145.604 109.273 148.522 109.246 148.533Z" fill="#E0E0E0"/>
<path d="M107.697 137.76C107.742 137.832 107.781 137.908 107.814 137.987C107.908 138.2 107.989 138.417 108.058 138.639C108.292 139.369 108.418 140.129 108.434 140.895C108.449 141.66 108.354 142.424 108.153 143.162C108.092 143.385 108.018 143.605 107.93 143.819C107.872 143.972 107.835 144.057 107.824 144.052C107.814 144.047 107.936 143.708 108.074 143.141C108.254 142.406 108.337 141.651 108.323 140.895C108.305 140.139 108.191 139.388 107.983 138.66C107.824 138.098 107.676 137.77 107.697 137.76Z" fill="#E0E0E0"/>
<path d="M103.793 139.698C103.793 139.698 103.947 139.979 104.217 140.413C104.569 140.977 104.984 141.499 105.453 141.97C105.936 142.441 106.47 142.857 107.045 143.21C107.48 143.475 107.766 143.612 107.761 143.628C107.755 143.644 107.681 143.628 107.549 143.554C107.416 143.48 107.23 143.4 107.018 143.273C106.437 142.936 105.902 142.524 105.427 142.05C104.948 141.576 104.535 141.042 104.196 140.461C104.094 140.29 104.002 140.113 103.92 139.931C103.814 139.778 103.782 139.703 103.793 139.698Z" fill="#E0E0E0"/>
<path d="M106.541 136.282C106.573 136.339 106.6 136.399 106.62 136.462C106.668 136.584 106.732 136.758 106.795 136.991C107.125 138.144 107.214 139.352 107.055 140.54C107.033 140.718 107.001 140.895 106.96 141.07C106.95 141.137 106.932 141.203 106.907 141.266C106.916 141.019 106.941 140.773 106.981 140.53C107.028 139.941 107.028 139.349 106.981 138.761C106.933 138.171 106.839 137.587 106.7 137.013C106.633 136.772 106.579 136.528 106.541 136.282Z" fill="#E0E0E0"/>
<path d="M104.053 137.601C104.053 137.601 104.159 137.908 104.361 138.39C104.618 139.017 104.937 139.617 105.315 140.18C105.695 140.741 106.131 141.262 106.614 141.737C106.991 142.103 107.245 142.304 107.229 142.32C107.162 142.283 107.098 142.241 107.039 142.193C106.922 142.108 106.758 141.97 106.561 141.796C106.057 141.33 105.607 140.81 105.22 140.244C104.839 139.672 104.526 139.059 104.286 138.416C104.196 138.167 104.133 137.966 104.095 137.823C104.068 137.752 104.054 137.677 104.053 137.601Z" fill="#E0E0E0"/>
<path d="M104.525 136.345C104.525 136.345 104.525 136.541 104.621 136.838C104.718 137.227 104.884 137.596 105.108 137.929C105.639 138.713 106.201 139.253 106.169 139.285C106.038 139.18 105.919 139.061 105.814 138.93C105.525 138.641 105.265 138.323 105.039 137.982C104.811 137.636 104.651 137.249 104.568 136.843C104.521 136.682 104.506 136.512 104.525 136.345Z" fill="#E0E0E0"/>
<path d="M105.464 143.416C105.464 143.39 105.994 143.835 106.694 144.248C107.394 144.661 108.025 144.894 108.015 144.926C107.868 144.905 107.725 144.864 107.59 144.804C107.26 144.677 106.94 144.523 106.636 144.343C106.332 144.162 106.043 143.956 105.771 143.729C105.656 143.638 105.553 143.533 105.464 143.416Z" fill="#E0E0E0"/>
<path d="M109.596 142.601C109.58 142.765 109.545 142.927 109.49 143.083C109.262 143.85 108.945 144.587 108.546 145.281C108.467 145.426 108.373 145.563 108.265 145.689C108.324 145.535 108.395 145.386 108.477 145.244C108.615 144.968 108.8 144.592 108.981 144.184C109.161 143.776 109.31 143.363 109.416 143.077C109.459 142.912 109.519 142.753 109.596 142.601Z" fill="#E0E0E0"/>
<path d="M73.0103 152.786C72.9784 152.786 72.0077 149.889 70.8407 146.298C69.6736 142.707 68.7453 139.777 68.7772 139.767C68.809 139.756 69.7744 142.664 70.9467 146.261C72.1191 149.857 73.0368 152.781 73.0103 152.786Z" fill="#E0E0E0"/>
<path d="M71.4613 142.013C71.5064 142.085 71.5454 142.161 71.5779 142.24C71.6719 142.453 71.7533 142.67 71.8219 142.892C72.0557 143.622 72.1825 144.382 72.1984 145.148C72.2118 145.91 72.1172 146.67 71.9173 147.405C71.8564 147.628 71.782 147.847 71.6946 148.061C71.6363 148.215 71.5991 148.3 71.5885 148.294C71.5779 148.289 71.7052 147.95 71.8431 147.383C72.0184 146.648 72.1004 145.894 72.087 145.138C72.0697 144.381 71.9556 143.63 71.7476 142.903C71.5885 142.357 71.44 142.023 71.4613 142.013Z" fill="#E0E0E0"/>
<path d="M67.5571 143.957C67.5571 143.957 67.711 144.232 67.9815 144.666C68.332 145.23 68.7448 145.752 69.2122 146.223C69.6952 146.694 70.2289 147.11 70.8036 147.463C71.2385 147.733 71.525 147.865 71.5197 147.887C71.4459 147.869 71.3746 147.842 71.3075 147.807C71.1749 147.749 70.9892 147.654 70.777 147.526C70.196 147.189 69.6611 146.778 69.1856 146.303C68.7073 145.83 68.2935 145.295 67.955 144.714C67.853 144.543 67.7609 144.366 67.6791 144.184C67.6293 144.114 67.5883 144.037 67.5571 143.957Z" fill="#E0E0E0"/>
<path d="M70.3049 140.519C70.339 140.575 70.3657 140.636 70.3845 140.699C70.4322 140.821 70.4958 140.996 70.5595 141.229C70.8812 142.376 70.9642 143.576 70.8034 144.756C70.7716 144.984 70.7398 145.164 70.708 145.286C70.6978 145.351 70.68 145.415 70.6549 145.477C70.6549 145.477 70.6867 145.191 70.7292 144.74C70.7762 144.152 70.7762 143.56 70.7292 142.971C70.6814 142.382 70.5875 141.798 70.4481 141.223C70.3872 140.992 70.3394 140.756 70.3049 140.519Z" fill="#E0E0E0"/>
<path d="M67.8171 141.854C67.8171 141.854 67.9285 142.161 68.1247 142.643C68.3806 143.271 68.7005 143.871 69.0792 144.433C69.4596 144.994 69.8948 145.516 70.3785 145.99C70.755 146.356 71.0095 146.557 70.9936 146.573L70.808 146.446C70.64 146.322 70.4789 146.19 70.3254 146.049C69.8187 145.586 69.3683 145.065 68.9838 144.497C68.6032 143.926 68.29 143.312 68.0505 142.669C67.9603 142.426 67.8967 142.219 67.8596 142.076C67.8319 142.005 67.8175 141.93 67.8171 141.854Z" fill="#E0E0E0"/>
<path d="M68.2891 140.599C68.2891 140.599 68.2891 140.794 68.3845 141.091C68.4833 141.482 68.6483 141.853 68.8724 142.187C69.4027 142.966 69.9648 143.506 69.933 143.538C69.7955 143.437 69.6692 143.322 69.5565 143.194C69.2673 142.904 69.0079 142.587 68.7823 142.246C68.5564 141.898 68.3964 141.512 68.3103 141.107C68.2691 140.941 68.2619 140.768 68.2891 140.599Z" fill="#E0E0E0"/>
<path d="M69.2122 147.669C69.2122 147.643 69.7425 148.088 70.4424 148.501C71.1424 148.914 71.7735 149.147 71.7629 149.179C71.6165 149.158 71.4737 149.117 71.3387 149.057C71.0081 148.931 70.6888 148.776 70.3841 148.596C70.0808 148.416 69.7934 148.211 69.525 147.982C69.4078 147.892 69.3026 147.787 69.2122 147.669Z" fill="#E0E0E0"/>
<path d="M73.36 146.875C73.344 147.041 73.3084 147.205 73.2539 147.362C73.1403 147.744 73.0058 148.119 72.8509 148.485C72.6944 148.848 72.5174 149.202 72.3206 149.544C72.2499 149.695 72.155 149.833 72.0396 149.952C72.0986 149.799 72.1695 149.65 72.2517 149.507C72.3895 149.232 72.5752 148.856 72.782 148.448C72.9888 148.04 73.1161 147.627 73.2168 147.341C73.2485 147.181 73.2965 147.025 73.36 146.875Z" fill="#E0E0E0"/>
<path d="M88.4309 142.32C88.3991 142.32 88.5264 139.253 88.712 135.482C88.8976 131.711 89.0779 128.649 89.1097 128.649C89.1415 128.649 89.0089 131.711 88.8233 135.487C88.6377 139.264 88.4627 142.32 88.4309 142.32Z" fill="#E0E0E0"/>
<path d="M90.8172 131.7C90.8248 131.785 90.8248 131.87 90.8172 131.954C90.8334 132.185 90.8334 132.417 90.8172 132.648C90.7346 134.187 90.2058 135.668 89.2953 136.912C89.1583 137.096 89.0114 137.273 88.8551 137.442C88.8021 137.508 88.7416 137.569 88.6748 137.622C88.6748 137.622 88.9028 137.336 89.2316 136.859C90.0953 135.602 90.6145 134.141 90.7377 132.622C90.8119 132.044 90.796 131.7 90.8172 131.7Z" fill="#E0E0E0"/>
<path d="M86.4788 132.129C86.4788 132.129 86.5212 132.442 86.622 132.945C86.7488 133.598 86.9498 134.234 87.2212 134.841C87.4979 135.447 87.8412 136.021 88.2447 136.552C88.5523 136.954 88.775 137.188 88.775 137.198C88.714 137.156 88.6588 137.106 88.6106 137.05C88.4647 136.907 88.3267 136.757 88.197 136.6C87.7719 136.075 87.4155 135.498 87.1364 134.884C86.8602 134.269 86.6658 133.621 86.5583 132.956C86.527 132.755 86.5058 132.554 86.4947 132.352C86.4756 132.279 86.4702 132.204 86.4788 132.129Z" fill="#E0E0E0"/>
<path d="M90.2658 129.889C90.2658 129.889 90.2658 129.963 90.2658 130.09C90.2658 130.217 90.2658 130.403 90.2658 130.62C90.2148 131.216 90.1028 131.805 89.9317 132.378C89.7616 132.951 89.5324 133.505 89.2476 134.031C89.1618 134.189 89.068 134.343 88.9665 134.492C88.9355 134.55 88.8962 134.603 88.8499 134.65C88.8499 134.65 88.9771 134.402 89.1786 133.994C89.4399 133.464 89.6563 132.913 89.8256 132.346C89.9961 131.781 90.1168 131.201 90.1862 130.614C90.2339 130.175 90.2498 129.889 90.2658 129.889Z" fill="#E0E0E0"/>
<path d="M87.4653 130.254C87.4653 130.254 87.4653 130.583 87.4653 131.102C87.4815 131.78 87.5668 132.454 87.7198 133.114C87.8739 133.775 88.0961 134.417 88.3827 135.032C88.6001 135.509 88.7645 135.784 88.7486 135.795C88.6974 135.738 88.6529 135.676 88.616 135.609C88.5059 135.438 88.405 135.261 88.3138 135.079C88.0017 134.468 87.7649 133.82 87.6085 133.152C87.4533 132.483 87.3785 131.798 87.3857 131.112C87.3857 130.853 87.3857 130.636 87.4175 130.493C87.4276 130.412 87.4436 130.332 87.4653 130.254Z" fill="#E0E0E0"/>
<path d="M88.3564 129.253C88.3564 129.253 88.3086 129.439 88.2715 129.746C88.2273 130.144 88.2488 130.546 88.3351 130.937C88.5473 131.859 88.8654 132.564 88.8654 132.579C88.7683 132.439 88.6915 132.286 88.6374 132.124C88.4685 131.752 88.3388 131.363 88.2503 130.964C88.1602 130.56 88.1476 130.143 88.2132 129.735C88.2262 129.566 88.275 129.402 88.3564 129.253Z" fill="#E0E0E0"/>
<path d="M86.7173 136.192C86.7173 136.192 87.0514 136.769 87.5658 137.41C88.0801 138.051 88.5839 138.469 88.5574 138.512C88.4295 138.439 88.3117 138.35 88.2074 138.247C87.678 137.775 87.2332 137.216 86.8923 136.594C86.8119 136.471 86.7528 136.335 86.7173 136.192Z" fill="#E0E0E0"/>
<path d="M90.8703 136.896C90.7974 137.044 90.7066 137.183 90.5998 137.309C90.1187 137.949 89.5593 138.525 88.9347 139.025C88.8133 139.14 88.6757 139.237 88.5264 139.311C88.6362 139.186 88.7569 139.071 88.887 138.967C89.1097 138.766 89.4173 138.475 89.7407 138.146C90.0642 137.818 90.34 137.495 90.5362 137.262C90.6344 137.129 90.7464 137.006 90.8703 136.896Z" fill="#E0E0E0"/>
<g opacity="0.3">
<path d="M85.3381 110.694C87.4153 112.339 89.7807 113.583 92.3137 114.364C93.385 114.756 94.5343 114.886 95.6662 114.746C96.2304 114.668 96.7625 114.437 97.2055 114.08C97.6485 113.723 97.9856 113.251 98.1806 112.717C98.2602 112.447 98.2496 112.087 97.995 111.97C97.7403 111.854 97.4645 112.087 97.2046 112.267C96.446 112.834 94.1862 112.971 93.242 112.86C90.1494 112.5 88.139 111.748 85.3381 110.704" fill="black"/>
</g>
<path d="M105.284 132.188C105.321 132.269 105.35 132.354 105.368 132.442C105.416 132.617 105.496 132.865 105.559 133.199C105.765 134.138 105.884 135.094 105.915 136.054C106.054 139.252 105.309 142.426 103.762 145.229C102.214 148.032 99.9235 150.355 97.1409 151.944C96.309 152.428 95.4356 152.838 94.5311 153.167C94.2181 153.289 93.9582 153.353 93.7884 153.411C93.7034 153.444 93.614 153.463 93.5232 153.469C93.8394 153.318 94.1634 153.184 94.4939 153.067C95.3742 152.703 96.2254 152.273 97.0402 151.78C99.7531 150.169 101.987 147.865 103.512 145.106C105.038 142.346 105.799 139.231 105.719 136.081C105.706 135.129 105.618 134.179 105.453 133.242C105.377 132.894 105.32 132.542 105.284 132.188Z" fill="#263238"/>
<g opacity="0.2">
<path d="M105.719 135.667C105.755 136.816 105.532 137.957 105.066 139.007C104.599 140.057 103.901 140.989 103.024 141.732C101.883 142.68 100.478 143.279 99.3105 144.237C98.2661 145.119 97.4859 146.272 97.0561 147.569C96.8386 148.242 96.7431 149.062 97.2311 149.571C97.7191 150.079 98.7323 150.005 99.4644 149.693C101.857 148.681 103.56 146.441 104.477 144.015C105.395 141.589 105.618 138.957 105.777 136.367" fill="black"/>
</g>
<path d="M119.139 133.708C118.314 131.622 118.341 129.296 119.213 127.23C119.009 128.299 118.876 129.38 118.816 130.466C118.849 131.553 118.957 132.636 119.139 133.708Z" fill="#263238"/>
<path d="M120.741 133.067C120.075 132.248 119.626 131.276 119.436 130.238C119.157 129.222 119.143 128.152 119.394 127.129C119.419 128.153 119.523 129.173 119.707 130.18C119.982 131.166 120.328 132.13 120.741 133.067Z" fill="#263238"/>
<path d="M146.972 118.104C146.972 118.104 146.808 117.977 146.516 117.839C146.121 117.65 145.671 117.609 145.248 117.722L145.01 117.791L145.132 117.569C145.299 117.259 145.411 116.922 145.461 116.573C145.56 115.89 145.453 115.193 145.153 114.571C144.92 114.089 144.67 113.856 144.702 113.829C144.957 113.993 145.161 114.224 145.291 114.497C145.657 115.139 145.795 115.885 145.683 116.615C145.623 116.988 145.498 117.346 145.312 117.675L145.19 117.521C145.661 117.405 146.158 117.479 146.574 117.728C146.876 117.913 146.983 118.093 146.972 118.104Z" fill="#AA6550"/>
<path d="M150.532 115.789C151.025 114.582 155.969 112.452 155.306 111.695C154.463 110.71 150.24 114.153 149.864 114.417C149.487 114.682 149.105 114.137 149.46 113.888C149.964 113.57 155.221 110.111 154.404 109.121C153.948 108.591 153.068 109.513 153.068 109.513C153.068 109.513 148.378 113.12 148.007 112.643C147.636 112.166 150.309 109.952 151.264 109.274C152.219 108.596 152.288 107.871 151.651 107.685C151.216 107.564 148.246 109.576 147.312 110.275C146.378 110.975 143.864 112.924 144.352 110.932C144.84 108.941 144.474 107.225 144.066 106.843C143.657 106.462 142.968 106.901 143.079 107.526C143.138 108.215 143.102 108.908 142.973 109.587C142.859 110.135 142.681 110.669 142.442 111.176C141.947 112.33 141.145 113.328 140.124 114.062L145.349 120.207L146.018 119.756C148.601 118.003 151.025 117.33 152.426 116.525C155.03 115.021 154.903 114.783 154.685 114.502C154.128 113.787 150.039 116.997 150.532 115.789Z" fill="#B78876"/>
<path d="M143.477 106.091L145.169 117.06L151.789 116.949L152.097 114.899C152.097 114.899 155.847 114.899 156.139 111.721C156.431 108.543 153.211 108.512 153.211 108.512L153.699 105.646L143.477 106.091ZM152.256 113.782L153.036 109.714C153.036 109.714 155.301 109.677 155.126 111.504C154.951 113.332 152.229 113.766 152.229 113.766L152.256 113.782Z" fill="#455A64"/>
<path d="M148.4 91.3188C148.4 91.3188 148.447 91.3453 148.522 91.4142C148.622 91.5247 148.707 91.6475 148.776 91.7797C148.998 92.2898 149.054 92.8569 148.935 93.4004C148.752 94.1844 148.46 94.9387 148.065 95.6409C147.865 96.0543 147.713 96.4899 147.615 96.9386C147.518 97.4115 147.559 97.902 147.731 98.3528C148.143 99.2191 148.711 100.002 149.407 100.662C149.989 101.24 150.41 101.959 150.628 102.749C150.747 103.288 150.67 103.851 150.41 104.338C150.335 104.468 150.24 104.586 150.129 104.688C150.049 104.751 150.002 104.783 149.996 104.772C150.114 104.619 150.22 104.458 150.315 104.29C150.528 103.812 150.571 103.276 150.437 102.77C150.203 102.024 149.783 101.35 149.217 100.81C148.489 100.134 147.896 99.3247 147.471 98.4269C147.284 97.9298 147.242 97.3899 147.349 96.8697C147.454 96.3989 147.618 95.9433 147.837 95.5138C148.23 94.831 148.535 94.1013 148.744 93.3422C148.876 92.8351 148.854 92.3006 148.681 91.8061C148.532 91.483 148.378 91.3347 148.4 91.3188Z" fill="#263238"/>
<path d="M146.66 91.3453C146.66 91.3453 146.707 91.3453 146.782 91.446C146.886 91.554 146.974 91.6772 147.042 91.8114C147.266 92.321 147.322 92.8888 147.201 93.4322C147.015 94.2152 146.722 94.969 146.331 95.6727C146.126 96.0845 145.975 96.5205 145.88 96.9703C145.785 97.4429 145.823 97.9326 145.991 98.3845C146.407 99.2482 146.975 100.03 147.668 100.694C148.252 101.268 148.673 101.986 148.888 102.775C149.017 103.322 148.94 103.898 148.67 104.391C148.597 104.521 148.502 104.638 148.389 104.735C148.309 104.804 148.267 104.83 148.262 104.825C148.256 104.82 148.416 104.672 148.575 104.338C148.788 103.86 148.831 103.324 148.697 102.818C148.463 102.075 148.045 101.403 147.482 100.863C146.752 100.187 146.158 99.3783 145.731 98.4799C145.546 97.9804 145.505 97.4388 145.615 96.9174C145.716 96.4464 145.878 95.9905 146.097 95.5614C146.494 94.8822 146.799 94.1538 147.005 93.3951C147.139 92.8867 147.117 92.3495 146.941 91.8538C146.776 91.5148 146.617 91.3612 146.66 91.3453Z" fill="#263238"/>
<path d="M144.097 110.583C144.097 110.583 144.097 110.424 144.326 110.249C144.478 110.143 144.653 110.072 144.836 110.042C145.02 110.011 145.208 110.022 145.386 110.074C145.897 110.262 146.354 110.571 146.718 110.975C146.911 111.209 147.154 111.397 147.43 111.525C147.705 111.653 148.005 111.719 148.309 111.716C148.935 111.637 149.46 111.186 150.017 110.959C150.283 110.828 150.571 110.751 150.866 110.731C151.127 110.727 151.386 110.779 151.625 110.885C151.966 111.033 152.251 111.288 152.436 111.61C152.558 111.838 152.574 111.981 152.558 111.986C152.542 111.992 152.489 111.864 152.346 111.668C152.143 111.397 151.867 111.187 151.55 111.065C151.335 110.985 151.106 110.949 150.877 110.959C150.614 110.99 150.359 111.067 150.123 111.186C149.577 111.549 148.975 111.821 148.341 111.992C147.97 112.039 147.595 111.955 147.28 111.753C147.009 111.587 146.76 111.388 146.538 111.16C146.207 110.773 145.794 110.465 145.328 110.26C145.171 110.207 145.005 110.187 144.84 110.201C144.675 110.214 144.514 110.261 144.368 110.339C144.182 110.461 144.119 110.593 144.097 110.583Z" fill="#FAFAFA"/>
<path d="M143.859 109.168C143.859 109.168 143.859 108.999 144.098 108.824C144.261 108.709 144.449 108.632 144.646 108.599C144.843 108.566 145.046 108.578 145.238 108.633C145.778 108.838 146.261 109.166 146.649 109.592C147.089 110.005 147.652 110.477 148.331 110.387C149.01 110.297 149.556 109.857 150.145 109.576C150.427 109.439 150.733 109.358 151.047 109.338C151.382 109.33 151.713 109.412 152.006 109.575C152.298 109.738 152.542 109.976 152.712 110.265C152.845 110.503 152.861 110.662 152.845 110.662C152.829 110.662 152.771 110.53 152.622 110.323C152.404 110.034 152.111 109.81 151.773 109.677C151.544 109.592 151.301 109.555 151.057 109.566C150.776 109.597 150.503 109.68 150.251 109.809C149.72 110.058 149.153 110.546 148.357 110.662C147.975 110.704 147.59 110.616 147.264 110.413C146.976 110.234 146.711 110.02 146.474 109.778C146.121 109.368 145.681 109.042 145.185 108.824C145.018 108.766 144.84 108.744 144.664 108.759C144.488 108.773 144.317 108.825 144.161 108.909C143.944 109.041 143.88 109.184 143.859 109.168Z" fill="#FAFAFA"/>
<path d="M94.2764 164.645L103.416 177.526L203.753 177.479L203.695 166.107L152.956 161.287L110.8 155.026L94.2764 164.645Z" fill="#263238"/>
<path d="M110.408 155.403L117.532 145.583L137.605 120.837C138.988 119.348 140.699 118.202 142.604 117.489C144.508 116.777 146.552 116.517 148.575 116.732C151.036 116.992 153.373 117.943 155.313 119.476C157.254 121.009 158.72 123.06 159.539 125.392L172.801 165.773L155.243 163.019L146.32 138.04L132.252 157.638L110.408 155.403Z" fill="#263238"/>
<path d="M172.785 163.167H172.652H172.196L170.44 163.04L163.99 162.511L142.708 160.726L130.99 159.709C129.192 159.539 127.478 159.412 125.876 159.237C124.392 159.076 122.918 158.829 121.463 158.496C120.249 158.244 119.074 157.829 117.972 157.262C117.148 156.817 116.405 156.239 115.771 155.551C115.368 155.116 115.034 154.623 114.779 154.089C114.686 153.907 114.61 153.718 114.551 153.522C114.876 154.239 115.315 154.899 115.85 155.477C116.484 156.145 117.227 156.702 118.047 157.124C119.141 157.671 120.304 158.068 121.505 158.305C122.956 158.625 124.424 158.86 125.903 159.01C127.494 159.174 129.213 159.296 131.016 159.454L142.729 160.45L164.006 162.315L170.451 162.913L172.201 163.088L172.658 163.141L172.785 163.167Z" fill="#455A64"/>
<path d="M147.72 129.004C147.611 129.443 147.475 129.875 147.312 130.297C146.644 132.365 146.32 134.528 146.352 136.7C146.384 137.152 146.384 137.605 146.352 138.056C146.223 137.619 146.155 137.166 146.15 136.711C146.077 135.613 146.123 134.51 146.288 133.422C146.454 132.336 146.735 131.27 147.126 130.244C147.266 129.805 147.465 129.388 147.72 129.004Z" fill="#455A64"/>
<path d="M143.848 132.373C144.116 133.399 144.438 134.41 144.813 135.403C145.271 136.357 145.779 137.287 146.335 138.189C144.821 136.616 143.936 134.543 143.848 132.362V132.373Z" fill="#455A64"/>
<path d="M201.143 169.513C200.744 170.811 200.462 172.142 200.3 173.49C200.234 174.847 200.287 176.206 200.459 177.553C200.293 177.182 200.186 176.787 200.141 176.382C199.982 175.418 199.942 174.438 200.024 173.464C200.108 172.491 200.312 171.532 200.634 170.609C200.741 170.218 200.913 169.847 201.143 169.513Z" fill="#455A64"/>
<path d="M98.2867 111.637C98.2867 111.637 98.2867 111.684 98.2018 111.753C98.1136 111.861 98.014 111.958 97.9047 112.045C97.5019 112.363 97.0379 112.596 96.5415 112.728C95.2896 113.114 93.4807 113.019 91.5604 112.728C89.9208 112.458 88.3185 111.998 86.7863 111.356C86.1974 111.112 85.7253 110.879 85.4177 110.715C85.2476 110.638 85.0888 110.538 84.9456 110.418C84.9456 110.381 85.6723 110.731 86.8605 111.176C88.406 111.757 90.0052 112.185 91.6347 112.452C93.539 112.749 95.3108 112.865 96.5255 112.548C97.1707 112.372 97.771 112.062 98.2867 111.637Z" fill="#263238"/>
</svg>
