<svg width="1941" height="1239" viewBox="0 0 1941 1239" fill="none" xmlns="http://www.w3.org/2000/svg">
<path d="M286 6.99994C286 7.65994 286 8.31994 286 8.99994C286.66 8.99994 287.32 8.99994 288 8.99994C288 9.65994 288 10.3199 288 10.9999C288.66 10.9999 289.32 10.9999 290 10.9999C294.467 17.8402 294.447 23.5154 294.103 31.5449C293.99 34.243 293.91 36.9411 293.832 39.6406C293.529 49.4232 293.116 59.1995 292.57 68.9716C291.121 94.9156 290.116 120.869 289.183 146.836C289.028 151.137 288.871 155.437 288.714 159.738C288.425 167.618 288.137 175.497 287.854 183.377C287.431 195.151 287.005 206.924 286.561 218.696C283.907 289.037 281.753 359.395 279.54 429.751C279.167 441.614 278.793 453.476 278.42 465.338C277.458 495.839 276.497 526.339 275.539 556.839C275.509 557.805 275.479 558.771 275.447 559.766C275.325 563.679 275.202 567.591 275.079 571.503C274.986 574.446 274.894 577.388 274.802 580.331C274.771 581.304 274.74 582.276 274.709 583.278C273.714 614.947 272.715 646.617 271.714 678.286C270.648 711.984 269.586 745.683 268.528 779.382C268.411 783.083 268.295 786.785 268.179 790.486C268.15 791.397 268.122 792.308 268.092 793.247C267.635 807.815 267.174 822.383 266.712 836.951C266.248 851.579 265.788 866.207 265.332 880.835C265.085 888.736 264.837 896.637 264.585 904.538C263.108 947.759 263.108 947.759 263 991C264.894 991.963 266.789 992.923 268.686 993.881C269.741 994.416 270.797 994.95 271.884 995.501C276.133 997.545 280.45 999.076 284.938 1000.5C285.841 1000.79 286.744 1001.09 287.675 1001.39C313.996 1009.83 340.923 1016.46 367.812 1022.81C368.923 1023.08 370.033 1023.34 371.177 1023.62C382.044 1026.15 393.014 1028.07 404 1030C405.36 1030.24 405.36 1030.24 406.748 1030.48C450.711 1038.16 494.857 1044.21 539.145 1049.65C548.357 1050.79 557.565 1051.96 566.772 1053.13C569.367 1053.46 571.962 1053.79 574.557 1054.12C588.742 1055.92 588.742 1055.92 595.341 1056.77C606.558 1058.2 617.777 1059.62 629 1061C629.761 1061.09 630.522 1061.19 631.307 1061.28C652.411 1063.88 673.459 1065.86 694.688 1067.19C698.507 1067.43 702.327 1067.68 706.146 1067.93C708.48 1068.08 710.814 1068.23 713.148 1068.38C717.543 1068.66 721.916 1068.95 726.283 1069.52C739.971 1071.28 754.034 1071.25 767.815 1071.86C770.828 1071.99 773.84 1072.13 776.853 1072.27C822.102 1074.33 867.333 1074.28 912.619 1074.2C919.8 1074.19 926.98 1074.18 934.161 1074.19C973.51 1074.19 1012.86 1074.15 1052.2 1073.6C1054.29 1073.57 1056.38 1073.54 1058.47 1073.52C1091.92 1073.06 1125.07 1070.91 1158.23 1066.61C1163.76 1065.9 1169.29 1065.23 1174.82 1064.55C1202.13 1061.23 1202.13 1061.23 1229.35 1057.29C1234.08 1056.55 1238.81 1055.9 1243.57 1055.37C1255.9 1053.99 1268.13 1052.01 1280.38 1050.06C1282.59 1049.71 1284.81 1049.36 1287.03 1049.01C1291.36 1048.33 1295.68 1047.64 1300.01 1046.95C1303.69 1046.36 1307.37 1045.78 1311.06 1045.21C1323.09 1043.35 1335.08 1041.27 1347.06 1039.12C1348.05 1038.95 1349.03 1038.77 1350.05 1038.59C1361.44 1036.57 1372.83 1034.49 1384.19 1032.25C1393.58 1030.4 1403 1028.87 1412.46 1027.45C1446.59 1022.44 1446.59 1022.44 1480 1014.15C1485.71 1012.45 1491.53 1011.11 1497.31 1009.69C1506.5 1007.42 1515.64 1005.03 1524.75 1002.44C1532.76 1000.16 1540.79 997.999 1548.88 996C1549.86 995.755 1550.85 995.51 1551.86 995.258C1555.95 994.243 1560.05 993.231 1564.15 992.237C1584.2 987.354 1604.64 981.788 1623.75 973.861C1626.3 972.886 1628.29 972.845 1631 973C1631 972.34 1631 971.68 1631 971C1631.64 970.794 1632.28 970.589 1632.93 970.377C1644.93 966.49 1656.77 962.465 1668.38 957.519C1671.48 956.219 1674.58 955.044 1677.75 953.937C1683.07 952.07 1688.09 949.656 1693.15 947.172C1696 946 1696 946 1700 946C1700 945.34 1700 944.68 1700 944C1700.61 943.769 1701.21 943.538 1701.84 943.301C1706.38 941.533 1710.79 939.661 1715.12 937.437C1718.01 935.961 1720.82 934.635 1723.88 933.562C1728.14 932.03 1732.08 930 1736.11 927.945C1742.26 924.838 1748.51 921.918 1754.73 918.959C1755.68 918.506 1756.63 918.053 1757.61 917.586C1758.99 916.932 1758.99 916.932 1760.39 916.265C1762.77 915.11 1765.11 913.895 1767.45 912.664C1771 911 1771 911 1775 911C1775 910.34 1775 909.68 1775 909C1775.77 908.685 1776.55 908.371 1777.34 908.047C1782.73 905.832 1788.03 903.564 1793.21 900.898C1796.08 899.458 1799.04 898.245 1802 897C1803.15 896.468 1803.15 896.468 1804.33 895.926C1805.13 895.558 1805.93 895.191 1806.75 894.812C1807.49 894.468 1808.22 894.124 1808.98 893.769C1811 893 1811 893 1814 893C1814 892.34 1814 891.68 1814 891C1815.11 890.608 1816.23 890.216 1817.38 889.812C1823.5 887.516 1829.37 884.623 1834.94 881.187C1837 880 1837 880 1840 880C1840 879.34 1840 878.68 1840 878C1841.05 877.587 1842.1 877.175 1843.19 876.75C1845.74 875.669 1847.31 874.741 1849.5 872.937C1854.01 869.442 1859.21 868.532 1864.87 868.676C1868.85 869.282 1872.63 870.796 1876 873C1876.33 873.99 1876.66 874.98 1877 876C1877.66 876 1878.32 876 1879 876C1879 876.66 1879 877.32 1879 878C1879.66 878 1880.32 878 1881 878C1885.96 883.889 1889.05 890.962 1892 898C1892.46 899.076 1892.92 900.153 1893.4 901.262C1897.14 910.264 1900.18 919.433 1903.06 928.746C1904.31 932.777 1905.57 936.802 1906.85 940.822C1911.96 956.942 1916.19 973.187 1920.12 989.625C1920.71 992.05 1921.3 994.474 1921.89 996.898C1922.76 1000.48 1923.62 1004.06 1924.49 1007.65C1926.37 1015.43 1928.3 1023.19 1930.26 1030.95C1932.28 1038.98 1934.19 1046.99 1935.75 1055.12C1935.95 1056.17 1936.16 1057.22 1936.36 1058.3C1936.92 1061.2 1937.46 1064.1 1938 1067C1938.25 1068.28 1938.5 1069.56 1938.75 1070.87C1940.01 1078.17 1940.29 1085.48 1940.44 1092.87C1940.47 1093.85 1940.51 1094.83 1940.54 1095.83C1940.59 1103.44 1938.6 1108.16 1933.41 1113.69C1927.9 1119.04 1919.72 1124 1912 1124C1912 1124.66 1912 1125.32 1912 1126C1911.42 1126.16 1910.84 1126.33 1910.24 1126.5C1898.32 1129.9 1886.47 1133.46 1874.69 1137.31C1851.09 1144.99 1827.21 1151.58 1803.11 1157.48C1797.92 1158.76 1792.77 1160.12 1787.62 1161.56C1786.92 1161.76 1786.22 1161.96 1785.5 1162.16C1784.08 1162.56 1782.66 1162.96 1781.24 1163.36C1719.67 1180.82 1656.41 1189.11 1592.99 1196.68C1584.46 1197.7 1575.94 1198.75 1567.42 1199.82C1537.63 1203.54 1507.83 1206.65 1477.91 1209.22C1470.53 1209.86 1463.17 1210.56 1455.8 1211.31C1438.34 1213.08 1420.86 1214.15 1403.34 1215.15C1379.68 1216.5 1356.04 1217.95 1332.44 1220.06C1331.05 1220.19 1331.05 1220.19 1329.64 1220.31C1326.99 1220.55 1324.33 1220.79 1321.68 1221.04C1320.56 1221.14 1320.56 1221.14 1319.42 1221.24C1314.42 1221.71 1309.43 1222.32 1304.45 1222.95C1296.03 1224.03 1287.59 1224.88 1279.14 1225.69C1277.57 1225.84 1276 1225.99 1274.43 1226.15C1271.17 1226.46 1267.91 1226.77 1264.65 1227.09C1261.35 1227.4 1258.04 1227.72 1254.74 1228.04C1221.47 1231.29 1221.47 1231.29 1207.65 1231.8C1203.99 1231.95 1203.99 1231.95 1200.32 1232.48C1195.98 1233.04 1191.66 1233.28 1187.29 1233.46C1186.46 1233.5 1185.62 1233.54 1184.76 1233.58C1182 1233.7 1179.24 1233.82 1176.48 1233.94C1174.5 1234.02 1172.52 1234.11 1170.54 1234.19C1166.36 1234.38 1162.18 1234.55 1157.99 1234.73C1153.84 1234.9 1149.68 1235.09 1145.52 1235.27C1087.02 1237.88 1028.53 1238.17 969.971 1238.13C963.812 1238.12 957.654 1238.13 951.496 1238.13C913.131 1238.16 874.769 1238.05 836.407 1237.61C833.83 1237.58 831.254 1237.56 828.678 1237.53C799.938 1237.23 771.311 1236.04 742.616 1234.37C736.02 1233.99 729.421 1233.68 722.82 1233.39C721.783 1233.35 720.746 1233.3 719.677 1233.26C715.773 1233.09 711.869 1232.92 707.964 1232.76C705.408 1232.65 702.853 1232.54 700.297 1232.43C699.567 1232.4 698.836 1232.37 698.084 1232.34C694.056 1232.16 690.12 1231.77 686.12 1231.24C682.028 1230.78 677.917 1230.66 673.805 1230.5C671.853 1230.42 669.901 1230.33 667.949 1230.25C664.904 1230.12 661.858 1230 658.812 1229.87C655.851 1229.75 652.89 1229.63 649.93 1229.5C648.57 1229.45 648.57 1229.45 647.183 1229.39C642.701 1229.2 638.424 1228.79 634 1228C632.113 1227.87 630.223 1227.78 628.332 1227.72C626.744 1227.66 626.744 1227.66 625.123 1227.61C624.031 1227.57 622.938 1227.54 621.812 1227.5C615.736 1227.3 609.685 1227.1 603.633 1226.5C596.788 1225.83 589.934 1225.69 583.062 1225.5C568.759 1225.11 568.759 1225.11 562.234 1224.52C557.341 1224.07 552.452 1223.82 547.543 1223.64C546.748 1223.61 545.953 1223.58 545.133 1223.55C544.3 1223.52 543.466 1223.49 542.607 1223.46C490.353 1221.5 438.068 1218.15 386.05 1212.81C380.464 1212.24 374.877 1211.71 369.281 1211.23C339.864 1208.7 310.452 1205.03 281.367 1199.92C275.407 1198.88 269.425 1198 263.438 1197.12C252.947 1195.59 242.465 1194.01 231.986 1192.39C229.437 1192 226.888 1191.61 224.339 1191.22C217.175 1190.11 210.011 1189.01 202.852 1187.87C188.71 1185.63 174.543 1183.75 160.332 1182.03C153.886 1181.24 147.446 1180.41 141.008 1179.56C133.042 1178.52 125.073 1177.51 117.098 1176.54C92.2445 1173.5 67.5784 1170.49 43.125 1165C42.0597 1164.76 40.9945 1164.53 39.897 1164.28C30.9292 1162.19 22.6523 1159.4 14.875 1154.37C13.4789 1153.49 13.4789 1153.49 12.0547 1152.59C11.3766 1152.06 10.6986 1151.54 10 1151C10 1150.34 10 1149.68 10 1149C9.34 1149 8.68 1149 8 1149C8 1148.34 8 1147.68 8 1147C7.34 1147 6.68 1147 6 1147C0.659057 1137.01 1.37864 1126.08 0.999996 1115C0.969864 1114.2 0.939732 1113.4 0.908687 1112.58C0.0966044 1088.39 3.22226 1064.1 8.25683 1040.49C9.06702 1036.68 9.8526 1032.87 10.6328 1029.06C11.5089 1024.78 12.3866 1020.5 13.2747 1016.22C14.7916 1008.92 16.2856 1001.61 17.7227 994.281C20.7848 978.696 24.0411 963.187 27.6417 947.717C30.3177 936.206 32.691 924.667 34.8555 913.047C35.9787 907.032 37.229 901.048 38.5 895.062C40.4769 885.7 42.2841 876.314 43.9954 866.899C45.1246 860.694 46.2886 854.499 47.5195 848.312C53.4192 818.483 57.8929 788.422 62.4838 758.37C63.1618 753.943 63.8497 749.518 64.5391 745.094C65.7344 737.402 66.8774 729.703 68 722C68.2122 720.563 68.4244 719.126 68.6367 717.689C76.8972 661.489 82.5728 604.908 87.5844 548.339C87.8687 545.133 88.1551 541.927 88.4418 538.721C92.2672 495.798 95.0266 452.858 96.4174 409.787C96.5621 405.343 96.7137 400.899 96.8647 396.454C97.054 390.878 97.2429 385.301 97.4288 379.725C97.8256 367.86 98.2581 355.996 98.7172 344.134C100.089 308.626 101.248 273.129 101.716 237.596C101.749 235.117 101.785 232.638 101.82 230.158C102.13 208.009 101.849 185.961 100.745 163.831C100.145 150.826 105.118 142.667 113.363 132.961C115.048 131.095 115.048 131.095 116 129C116.66 129 117.32 129 118 129C118.268 128.417 118.536 127.835 118.812 127.234C120.015 124.972 121.338 123.194 123 121.25C123.516 120.636 124.031 120.023 124.562 119.391C126 118 126 118 128 118C128.215 117.456 128.431 116.912 128.652 116.352C130.464 113.191 132.955 110.872 135.562 108.375C139.227 105.036 139.227 105.036 142 101C142.66 101 143.32 101 144 101C144 100.34 144 99.6799 144 98.9999C145.644 97.6382 147.315 96.3103 149 94.9999C151.451 92.6092 153.835 90.1744 156.188 87.6874C158 85.9999 158 85.9999 160 85.9999C160 85.3399 160 84.6799 160 83.9999C161.471 82.6913 163.006 81.4553 164.562 80.2499C169.426 76.3692 173.987 72.2812 178.5 67.9999C183.715 63.0622 189.033 58.4332 194.645 53.9492C197.392 51.6758 199.862 49.2274 202.34 46.6679C204.702 44.2944 207.231 42.1353 209.766 39.9492C212.379 37.6697 214.939 35.3378 217.5 32.9999C220.663 30.1157 223.834 27.2482 227.062 24.4374C230.201 21.7026 233.327 18.9543 236.438 16.1874C237.704 15.064 237.704 15.064 238.996 13.9179C241.062 12.1558 241.062 12.1558 242 9.99994C242.66 9.99994 243.32 9.99994 244 9.99994C244 9.33994 244 8.67994 244 7.99994C245.977 6.52728 245.977 6.52728 248.625 4.93744C249.484 4.41021 250.342 3.88299 251.227 3.33978C262.131 -1.92836 275.856 1.50542 286 6.99994Z" fill="#3D6F23"/>
<path d="M1390 391C1390.69 391.098 1391.38 391.196 1392.1 391.297C1401.01 392.597 1409.52 394.788 1417 400C1418.16 402.125 1418.16 402.125 1419 404C1420.66 404.688 1422.32 405.356 1424 406C1424.33 406.99 1424.66 407.98 1425 409C1425.99 409.33 1426.98 409.66 1428 410C1428 410.66 1428 411.32 1428 412C1428.66 412 1429.32 412 1430 412C1445.55 458.087 1444.79 512.495 1444.99 560.664C1445 562.779 1445.02 564.894 1445.04 567.009C1445.19 580.215 1445 593.406 1444.74 606.609C1444.71 607.839 1444.69 609.068 1444.67 610.335C1444.54 616.539 1444.41 622.742 1444.27 628.945C1444.01 640.64 1444.01 652.205 1444.76 663.88C1445.14 669.857 1445.06 675.826 1445 681.812C1444.93 694.139 1445.13 706.448 1445.43 718.771C1446.31 755.228 1446.5 791.556 1443.43 827.934C1442.94 834.03 1442.92 840.075 1443 846.187C1443.08 852.607 1442.97 858.84 1442.25 865.219C1441.76 870.619 1441.73 876.044 1441.61 881.461C1440.66 921.339 1440.66 921.339 1429 933C1421.27 939.537 1412.3 943.281 1403 947C1402.09 947.367 1402.09 947.367 1401.16 947.741C1396.37 949.609 1391.63 950.917 1386.6 951.973C1385.42 952.225 1385.42 952.225 1384.22 952.482C1381.69 953.019 1379.16 953.542 1376.62 954.062C1375.76 954.242 1374.89 954.422 1374 954.607C1361.11 957.257 1348.56 958.951 1335.41 959.637C1330.67 959.896 1326.19 960.604 1321.56 961.625C1307.73 964.474 1292.82 964.995 1280.41 957.422C1275.75 954.069 1271.83 950.603 1270 945C1269.48 939.93 1269.58 934.899 1269.69 929.812C1269.7 928.505 1269.71 927.197 1269.72 925.85C1269.8 916.867 1270.15 907.894 1270.49 898.918C1271.03 884.538 1271.26 870.158 1271.45 855.769C1271.54 848.409 1271.65 841.048 1271.75 833.687C1271.76 832.96 1271.77 832.232 1271.79 831.483C1272.27 797.617 1273.25 763.825 1275 730C1274.38 730.99 1273.76 731.98 1273.12 733C1272.42 733.99 1271.72 734.98 1271 736C1270.34 736 1269.68 736 1269 736C1268.75 736.556 1268.5 737.111 1268.25 737.684C1266.78 740.411 1265.01 742.657 1263.06 745.062C1262.03 746.348 1262.03 746.348 1260.97 747.66C1257.76 751.47 1257.76 751.47 1256 753C1255.34 753 1254.68 753 1254 753C1253.67 753.99 1253.34 754.98 1253 756C1252.34 756 1251.68 756 1251 756C1251 756.66 1251 757.32 1251 758C1248.58 760.582 1245.72 762.748 1243 765C1242.45 765.458 1241.91 765.916 1241.34 766.388C1224.18 780.712 1207.08 791.178 1184 790C1178.36 789.298 1173.24 788.231 1168 786C1168 785.34 1168 784.68 1168 784C1166.68 784 1165.36 784 1164 784C1164 783.34 1164 782.68 1164 782C1163.16 781.836 1163.16 781.836 1162.3 781.668C1154.98 779.541 1148.46 774.174 1143 769C1142.44 768.488 1141.88 767.976 1141.31 767.449C1140 766 1140 766 1140 764C1139.34 764 1138.68 764 1138 764C1136.27 762.32 1136.27 762.32 1134.37 760.125C1133.74 759.406 1133.11 758.686 1132.46 757.945C1131 756 1131 756 1131 754C1130.34 754 1129.68 754 1129 754C1127.37 751.5 1127.37 751.5 1126 749C1125.85 749.843 1125.71 750.685 1125.56 751.553C1120.47 780.904 1113.8 809.66 1105.97 838.413C1105.03 841.879 1104.11 845.349 1103.18 848.82C1098.2 867.542 1092.92 886.155 1086.99 904.601C1085.36 909.743 1083.93 914.897 1082.74 920.164C1082.12 922.533 1081.41 924.786 1080.61 927.098C1078.75 932.597 1077.33 938.195 1075.87 943.812C1073.29 953.555 1070.49 963.206 1067.44 972.812C1067.09 973.937 1066.73 975.061 1066.37 976.22C1063.29 985.778 1059.68 995.64 1054 1004C1053.34 1004 1052.68 1004 1052 1004C1052 1004.66 1052 1005.32 1052 1006C1049.95 1007.44 1049.95 1007.44 1047.25 1009C1045.93 1009.77 1045.93 1009.77 1044.58 1010.56C1034.48 1016.19 1022.12 1016.4 1010.97 1013.53C1007.82 1012.63 1004.69 1011.67 1001.55 1010.72C996.904 1009.41 992.166 1008.52 987.437 1007.56C971.553 1004.22 956.639 998.994 942 992C941.322 991.677 940.644 991.355 939.946 991.022C929.722 986.081 922.789 981.629 918 971C915.307 960.288 918.28 951.082 921.316 940.832C925.664 926.118 928.283 910.873 931.125 895.811C932.118 890.55 933.134 885.299 934.25 880.062C940.229 851.837 943.363 823.101 946.606 794.456C946.923 791.671 947.25 788.888 947.586 786.105C949.494 770.116 950.785 754.054 952 738C952.058 737.251 952.115 736.501 952.175 735.729C955.573 691.237 953.702 646.514 951.5 602C951.467 601.333 951.434 600.666 951.4 599.979C951.182 595.569 950.953 591.159 950.718 586.75C950.661 585.644 950.604 584.537 950.545 583.397C950.274 578.519 949.853 573.815 949 569C948.825 566.583 948.685 564.163 948.57 561.742C948.498 560.312 948.426 558.881 948.354 557.451C948.317 556.705 948.28 555.959 948.242 555.191C947.132 533.227 944.968 511.535 941.489 489.813C940.201 481.646 939.155 473.468 938.25 465.25C938.122 464.132 937.995 463.015 937.863 461.863C935.185 436.561 935.185 436.561 942.703 425.492C945.452 422.509 948.486 420.624 952 418.687C952.924 418.149 952.924 418.149 953.867 417.6C957.261 415.688 959.013 415 963 415C963 414.34 963 413.68 963 413C977.244 410.607 991.003 409.533 1005.44 409.687C1006.37 409.693 1007.31 409.699 1008.27 409.704C1053.57 409.977 1053.57 409.977 1068 419C1069.69 419.734 1071.38 420.467 1073.09 421.172C1076.46 422.633 1079.72 424.331 1083 426C1083 426.66 1083 427.32 1083 428C1083.6 428.124 1084.2 428.247 1084.81 428.375C1087 429 1087 429 1090 431C1090 431.66 1090 432.32 1090 433C1090.55 433.084 1091.09 433.168 1091.65 433.254C1094.79 434.25 1096.94 435.963 1099.56 437.937C1102.35 440.02 1105.11 442.07 1108 444C1108 444.66 1108 445.32 1108 446C1108.6 446.289 1109.2 446.577 1109.81 446.875C1112 448 1112 448 1115 450C1115 450.66 1115 451.32 1115 452C1115.6 452.289 1116.2 452.577 1116.81 452.875C1119 454 1119 454 1122 456C1122 456.66 1122 457.32 1122 458C1122.54 458.227 1123.07 458.454 1123.62 458.687C1126.82 460.456 1129.29 462.537 1132 465C1132 465.66 1132 466.32 1132 467C1132.99 467.33 1133.98 467.66 1135 468C1135 468.66 1135 469.32 1135 470C1135.53 470.206 1136.06 470.412 1136.61 470.625C1140.01 472.58 1142.51 475.221 1145.25 478C1145.8 478.547 1146.36 479.093 1146.93 479.656C1151 483.747 1151 483.747 1151 486C1151.99 486.33 1152.98 486.66 1154 487C1154 487.66 1154 488.32 1154 489C1154.66 489 1155.32 489 1156 489C1157.41 490.434 1157.41 490.434 1159.06 492.437C1163.13 497.22 1167.53 501.601 1172 506C1177.58 511.485 1182.9 517.065 1188 523C1189.86 525.098 1191.74 527.177 1193.62 529.25C1194.08 529.753 1194.53 530.255 1194.99 530.773C1197.79 533.841 1200.69 536.494 1204 539C1204.12 538.474 1204.23 537.948 1204.35 537.406C1207.75 524.783 1214.39 513.555 1220.75 502.254C1224.07 496.272 1227.29 490.218 1229.56 483.75C1230.5 481.084 1231.62 478.914 1233.19 476.562C1238.8 467.971 1242.79 458.108 1246.62 448.625C1248.63 443.683 1251.05 439.093 1253.67 434.449C1255.12 431.876 1255.12 431.876 1256.44 428.5C1260.3 419.85 1266.78 407.827 1275.74 403.754C1276.49 403.505 1277.23 403.256 1278 403C1278 402.34 1278 401.68 1278 401C1279.74 400.046 1281.49 399.113 1283.25 398.187C1284.22 397.665 1285.2 397.143 1286.2 396.605C1297.11 391.633 1308.68 391.342 1320.44 390.875C1322.17 390.799 1323.91 390.721 1325.64 390.644C1329.12 390.49 1332.6 390.344 1336.08 390.204C1340.49 390.025 1344.89 389.81 1349.3 389.586C1363.07 388.929 1376.36 388.921 1390 391Z" fill="#3D6F23"/>
<path d="M417.981 445.664C418.934 445.656 419.888 445.648 420.871 445.639C423.977 445.62 427.082 445.62 430.188 445.625C431.786 445.625 431.786 445.625 433.417 445.625C453.505 445.657 473.126 447.189 493 450C494.007 450.141 494.007 450.141 495.034 450.285C502.481 451.327 509.915 452.441 517.342 453.615C519.867 453.981 522.383 454.249 524.922 454.488C528.275 454.837 530.894 455.65 534 457C536.601 457.652 539.2 458.275 541.813 458.875C547.682 460.272 552.751 461.938 558 465C558 465.66 558 466.32 558 467C558.596 467.268 559.191 467.536 559.805 467.813C564.116 470.145 567.066 473.686 568.898 478.227C570.896 486.189 570.03 495.414 566.375 502.813C565.921 503.535 565.468 504.256 565 505C564.34 505 563.68 505 563 505C562.875 505.57 562.751 506.14 562.623 506.727C561.973 509.099 561.093 511.151 560.039 513.371C559.65 514.193 559.26 515.015 558.859 515.861C558.248 517.137 558.248 517.137 557.625 518.438C557.225 519.284 556.826 520.13 556.414 521.002C553.304 527.533 553.304 527.533 551.418 530.426C549.109 534.618 547.989 539.162 546.688 543.75C546.387 544.796 546.087 545.842 545.777 546.92C543.564 554.741 541.537 562.601 539.625 570.5C539.375 571.531 539.124 572.562 538.866 573.624C533.209 597.561 536.423 619.684 543 643C543.211 643.857 543.423 644.715 543.641 645.598C546.839 657.877 553.897 671.168 561.668 681.141C563 683 563 683 563 685C563.66 685 564.32 685 565 685C566.727 686.68 566.727 686.68 568.625 688.875C569.257 689.594 569.888 690.314 570.539 691.055C572 693 572 693 572 695C572.554 695.241 573.109 695.482 573.68 695.731C576.503 697.276 578.694 699.204 581.125 701.313C593.411 711.491 606.647 715.208 622.375 715.063C623.765 715.056 623.765 715.056 625.184 715.049C627.456 715.037 629.728 715.021 632 715C632 714.34 632 713.68 632 713C632.557 712.853 633.114 712.706 633.688 712.555C639.841 710.746 644.145 708.14 649 704C649.794 703.339 650.588 702.678 651.406 701.996C656.93 697.232 661.588 692.118 666.09 686.383C668 684 668 684 669.691 682.367C671.265 680.919 671.265 680.919 672 678C672.66 678 673.32 678 674 678C674.089 677.469 674.178 676.938 674.27 676.391C675.254 673.169 676.933 670.624 678.688 667.75C688.901 650.139 692.262 630.764 696 611C696.171 610.127 696.342 609.254 696.518 608.355C700.746 585.936 697.418 561.228 693.519 539.021C687.647 504.814 687.647 504.814 693 492C693.33 491.01 693.66 490.02 694 489C694.66 489 695.32 489 696 489C696 488.34 696 487.68 696 487C696.66 487 697.32 487 698 487C698.33 486.01 698.66 485.02 699 484C699.66 484 700.32 484 701 484C701 483.34 701 482.68 701 482C710.462 475.363 722.805 474.111 734 473C735.12 472.888 736.24 472.776 737.395 472.66C743.695 472.125 749.932 471.987 756.25 472.063C764.531 472.158 772.746 471.689 781.004 471.144C842.87 467.081 842.87 467.081 861 478C861 478.66 861 479.32 861 480C861.66 480 862.32 480 863 480C867.646 486.775 868.497 493.171 869.34 501.211C869.912 504.494 870.759 507.057 872.151 510.062C873.899 514.052 875.147 518.239 876.5 522.375C876.795 523.27 877.09 524.164 877.395 525.086C877.984 526.873 878.572 528.661 879.156 530.45C879.685 532.048 880.225 533.642 880.781 535.23C887.364 554.129 890.025 574.177 892 594C892.194 595.804 892.389 597.607 892.586 599.41C892.767 601.107 892.947 602.803 893.125 604.5C893.201 605.215 893.277 605.931 893.355 606.668C894.843 621.678 895.209 636.676 895.188 651.75C895.186 652.68 895.185 653.609 895.184 654.567C895.149 667.813 895.049 680.887 893 694C892.806 695.262 892.613 696.524 892.413 697.825C889.987 713.397 887.277 728.721 882.352 743.727C881.033 747.753 880.119 751.795 879.25 755.938C875.144 774.749 867.445 792.992 860.809 811.027C859.616 814.278 858.463 817.538 857.348 820.817C855.091 827.441 852.899 833.82 849.221 839.821C847.977 842.042 847.08 844.227 846.188 846.61C844.041 852.066 841.443 857.175 838.625 862.313C837.847 863.733 837.847 863.733 837.053 865.183C831.289 875.523 824.771 885.299 818 895C817.146 896.231 817.146 896.231 816.275 897.487C809.709 906.918 802.935 915.675 795 924C793.679 925.471 792.365 926.95 791.063 928.438C790.538 929.034 790.013 929.631 789.473 930.246C787.928 932.035 787.928 932.035 786.434 934.223C785.961 934.809 785.487 935.396 785 936C784.34 936 783.68 936 783 936C783 936.66 783 937.32 783 938C781.625 939.625 781.625 939.625 780 941C779.34 941 778.68 941 778 941C778 941.66 778 942.32 778 943C776.32 944.727 776.32 944.727 774.125 946.625C773.046 947.573 773.046 947.573 771.945 948.539C770 950 770 950 768 950C768 950.66 768 951.32 768 952C765.883 953.945 765.883 953.945 763.125 956.125C762.22 956.85 761.315 957.574 760.383 958.32C758 960 758 960 756 960C756 960.66 756 961.32 756 962C754.674 962.942 753.336 963.87 751.961 964.738C749.67 966.213 747.467 967.791 745.25 969.375C728.562 981.03 710.305 988.239 691.125 994.75C690.233 995.056 689.341 995.362 688.421 995.678C683.592 997.291 679.065 998.341 674 999C671.998 999.662 669.999 1000.33 668 1001C642.769 1006.5 616.501 1004.37 591 1002C590.134 1001.93 589.268 1001.85 588.376 1001.77C564.024 999.657 540.611 992.772 518.438 982.5C515.267 981.036 512.09 979.613 508.875 978.25C486.434 968.245 464.862 954.709 446 939C445.495 938.58 444.989 938.159 444.469 937.726C430.46 926.045 416.732 914.027 405 900C404.196 899.051 403.391 898.103 402.563 897.125C401 895 401 895 401 893C400.34 893 399.68 893 399 893C397.571 891.181 396.234 889.291 394.938 887.375C394.541 886.79 394.145 886.206 393.737 885.603C392.481 883.742 391.239 881.873 390 880C389.613 879.418 389.227 878.836 388.828 878.236C383.178 869.696 377.942 860.969 373 852C372.542 851.17 372.085 850.34 371.613 849.485C369.768 845.988 369 844.037 369 840C368.34 840 367.68 840 367 840C366.613 838.961 366.227 837.922 365.828 836.852C365.302 835.443 364.776 834.034 364.25 832.625C363.974 831.886 363.698 831.148 363.414 830.386C361.998 826.608 360.549 822.852 359 819.125C329.827 745.893 333.356 660.112 348.591 584.045C349.044 581.782 349.492 579.519 349.94 577.256C350.798 572.928 351.666 568.603 352.539 564.279C352.882 562.579 353.224 560.879 353.565 559.179C356.093 546.591 359.124 534.343 363.285 522.178C364.379 518.848 365.3 515.472 366.245 512.096C369.184 501.643 372.492 491.358 376.125 481.125C376.532 479.968 376.94 478.81 377.36 477.618C379.808 470.822 382.595 464.373 386 458C386.66 458 387.32 458 388 458C388.33 457.01 388.66 456.02 389 455C389.66 455 390.32 455 391 455C391 454.34 391 453.68 391 453C392.326 452.196 393.661 451.408 395 450.625C396.114 449.964 396.114 449.964 397.25 449.289C404.027 446.113 410.622 445.684 417.981 445.664Z" fill="#3D6F23"/>
<path d="M1617.31 397.937C1618.05 397.942 1618.79 397.946 1619.56 397.951C1621.37 397.963 1623.19 397.981 1625 398C1625 398.66 1625 399.32 1625 400C1625.74 400.097 1626.48 400.193 1627.24 400.293C1630.37 401.094 1631.77 402.151 1634.13 404.312C1634.79 404.907 1635.45 405.501 1636.13 406.113C1641 411.031 1641 411.031 1641 414C1641.66 414 1642.32 414 1643 414C1646.95 420.637 1647.65 425.926 1647.84 433.57C1647.93 435.908 1648.02 438.245 1648.11 440.583C1648.18 442.425 1648.18 442.425 1648.24 444.304C1648.47 450.85 1648.77 457.392 1649.09 463.934C1649.13 464.603 1649.16 465.272 1649.19 465.962C1650.28 487.752 1652.94 509.381 1655.63 531.021C1656.09 534.754 1656.54 538.488 1656.98 542.223C1659.11 560.099 1661.7 577.842 1664.84 595.568C1666.41 604.422 1667.83 613.28 1669.06 622.187C1673.49 653.845 1673.49 653.845 1679.83 685.16C1681.91 694.159 1683.39 703.188 1684.62 712.339C1685.38 717.806 1686.42 722.824 1688.29 728.019C1689.28 730.781 1689.97 733.595 1690.69 736.437C1692.56 743.697 1694.77 750.843 1697 758C1699.16 764.932 1701.3 771.849 1703.13 778.875C1709.56 803.76 1709.56 803.76 1721.94 826.125C1725.38 831.428 1725.5 837.86 1725 844C1723.77 847.375 1722.03 850.059 1720 853C1719.63 853.99 1719.26 854.98 1718.88 856C1718.59 856.66 1718.3 857.32 1718 858C1717.01 858.33 1716.02 858.66 1715 859C1714.71 859.589 1714.43 860.178 1714.13 860.785C1710.45 867.977 1700.85 872.986 1694 877C1692.6 877.871 1691.21 878.746 1689.81 879.625C1689.16 880.034 1688.5 880.442 1687.82 880.863C1686.27 881.833 1684.73 882.821 1683.19 883.812C1681 885 1681 885 1678 885C1678 885.66 1678 886.32 1678 887C1676.68 887 1675.36 887 1674 887C1673.67 887.99 1673.34 888.98 1673 890C1670.92 891.211 1670.92 891.211 1668.19 892.375C1667.19 892.805 1666.19 893.236 1665.16 893.68C1664.12 894.115 1663.07 894.551 1662 895C1661.03 895.415 1660.06 895.83 1659.06 896.258C1656.05 897.532 1653.03 898.767 1650 900C1649.04 900.399 1648.09 900.799 1647.1 901.21C1638.77 904.574 1630.41 906.782 1621.63 908.625C1620.58 908.848 1620.58 908.848 1619.52 909.076C1600.75 913.077 1582.1 915.481 1562.92 915.928C1560.88 915.978 1558.85 916.041 1556.82 916.115C1532.24 916.978 1532.24 916.978 1522 911C1521.23 910.566 1520.46 910.131 1519.66 909.684C1514.1 906.05 1510.13 901.32 1508 895C1507.27 888.628 1507.62 882.39 1508 876C1508.06 874.884 1508.12 873.768 1508.17 872.619C1508.99 856.975 1510.37 841.445 1512.32 825.902C1513.82 813.348 1514.31 800.755 1514.82 788.13C1515.41 773.405 1516.09 758.7 1517.13 744C1519.92 702.771 1515.44 661.474 1511.96 620.407C1511.26 612.138 1510.58 603.867 1509.93 595.594C1508.42 576.666 1506.83 557.762 1504.88 538.875C1502.69 517.712 1500.69 496.533 1501.04 475.235C1501.14 466.384 1500.39 457.607 1499.54 448.802C1498.8 440.283 1498.2 430.011 1504 423C1504.66 423 1505.32 423 1506 423C1506.66 421.35 1507.32 419.7 1508 418C1508.66 418 1509.32 418 1510 418C1510 417.34 1510 416.68 1510 416C1510.66 416 1511.32 416 1512 416C1512 415.34 1512 414.68 1512 414C1513.61 412.781 1513.61 412.781 1515.75 411.5C1516.79 410.866 1516.79 410.866 1517.86 410.219C1518.57 409.816 1519.27 409.414 1520 409C1520.57 408.656 1521.15 408.313 1521.74 407.959C1524.64 406.728 1527.13 406.609 1530.28 406.437C1531.51 406.363 1532.75 406.288 1534.03 406.211C1535.32 406.141 1536.61 406.072 1537.94 406C1546.19 405.543 1554.26 404.886 1562.41 403.539C1570.07 402.388 1577.8 401.713 1585.5 400.937C1588.07 400.677 1590.64 400.417 1593.22 400.153C1594.8 399.99 1596.39 399.83 1597.97 399.672C1615.16 397.912 1615.16 397.912 1617.31 397.937Z" fill="#3D6F23"/>
<path d="M1402.25 122.938C1403 122.942 1403.74 122.947 1404.51 122.951C1406.34 122.963 1408.17 122.981 1410 123C1410 123.66 1410 124.32 1410 125C1410.74 125.095 1411.47 125.191 1412.23 125.289C1415.39 126.1 1416.85 127.206 1419.25 129.375C1419.94 129.981 1420.62 130.587 1421.33 131.211C1423 133 1423 133 1424 136C1424.66 136 1425.32 136 1426 136C1430.54 145.24 1434.58 154.644 1438.44 164.188C1438.89 165.286 1439.34 166.385 1439.8 167.517C1440.21 168.557 1440.63 169.597 1441.06 170.668C1441.43 171.599 1441.81 172.53 1442.19 173.489C1443 176 1443 176 1443 180C1443.66 180 1444.32 180 1445 180C1445.27 180.852 1445.27 180.852 1445.55 181.721C1448.86 192.064 1452.17 202.244 1457 211.991C1458.8 215.617 1460.58 219.256 1462.34 222.899C1463.35 224.981 1464.37 227.059 1465.39 229.132C1465.86 230.09 1466.32 231.048 1466.8 232.035C1467.23 232.895 1467.65 233.755 1468.09 234.641C1469 237 1469 237 1469 241C1469.66 241 1470.32 241 1471 241C1471.35 241.887 1471.7 242.774 1472.06 243.688C1473.62 247.379 1475.54 250.815 1477.5 254.313C1480.17 259.185 1482.12 263.794 1483.49 269.172C1483.84 271.004 1483.84 271.004 1485 272C1485.71 281.829 1485.98 289.805 1479.6 297.746C1473.04 304.947 1463.29 312.414 1453.4 313.336C1438.8 313.671 1428.23 309.252 1417 300C1417 299.34 1417 298.68 1417 298C1416.22 297.66 1416.22 297.66 1415.43 297.313C1412.1 295.515 1409.15 293.259 1406.13 291C1401.69 287.706 1397.23 284.441 1392.71 281.264C1385.19 275.975 1378.03 270.303 1370.88 264.516C1367.2 261.552 1363.47 258.648 1359.74 255.741C1348.58 247.012 1348.58 247.012 1346 244C1346 243.34 1346 242.68 1346 242C1345.44 241.753 1344.89 241.505 1344.31 241.25C1341.58 239.771 1339.32 238.065 1337 236C1337 235.34 1337 234.68 1337 234C1336.42 233.732 1335.83 233.464 1335.23 233.188C1332.97 231.985 1331.19 230.662 1329.25 229C1328.64 228.484 1328.02 227.969 1327.39 227.438C1326 226 1326 226 1326 224C1325.07 223.536 1325.07 223.536 1324.13 223.063C1322.75 222.375 1321.38 221.688 1320 221C1320 220.34 1320 219.68 1320 219C1319.01 218.67 1318.02 218.34 1317 218C1317 217.34 1317 216.68 1317 216C1316.34 216 1315.68 216 1315 216C1315 215.34 1315 214.68 1315 214C1314.34 214 1313.68 214 1313 214C1310.21 209.291 1309.61 205.493 1309.81 200.125C1309.83 199.437 1309.84 198.748 1309.85 198.039C1309.89 196.359 1309.94 194.679 1310 193C1310.66 193 1311.32 193 1312 193C1311.92 192.01 1311.84 191.02 1311.75 190C1311.83 181.721 1317.11 176.45 1322.68 170.883C1325.05 168.957 1327.12 167.965 1330 167C1330 166.34 1330 165.68 1330 165C1332.5 163.5 1332.5 163.5 1335 162C1335.73 161.247 1336.46 160.494 1337.22 159.719C1340.37 156.643 1343.67 154.263 1347.31 151.813C1348 151.343 1348.69 150.874 1349.4 150.391C1354.48 146.963 1359.63 143.637 1364.81 140.375C1365.49 139.949 1366.16 139.524 1366.86 139.085C1369.55 137.413 1371.98 136.006 1375 135C1375 134.34 1375 133.68 1375 133C1379.38 130 1379.38 130 1382 130C1382 129.34 1382 128.68 1382 128C1383.25 127.349 1384.5 126.705 1385.75 126.063C1386.79 125.523 1386.79 125.523 1387.86 124.973C1392.59 122.822 1397.12 122.879 1402.25 122.938Z" fill="#3D6F23"/>
<path d="M1568.8 102.504C1570.03 102.502 1571.26 102.501 1572.53 102.5C1575.13 102.501 1577.74 102.513 1580.34 102.533C1584.26 102.562 1588.18 102.554 1592.1 102.541C1635.58 102.577 1635.58 102.577 1651 115C1651 115.66 1651 116.32 1651 117C1651.66 117 1652.32 117 1653 117C1653 117.66 1653 118.32 1653 119C1653.66 119 1654.32 119 1655 119C1655.65 120.225 1656.3 121.455 1656.94 122.688C1657.48 123.714 1657.48 123.714 1658.03 124.762C1663.04 136.302 1659.71 150.349 1656.87 162.032C1655.91 165.965 1655.01 169.909 1654.1 173.852C1653.92 174.634 1653.73 175.417 1653.54 176.223C1651.93 183.178 1650.55 190.167 1649.25 197.188C1644.58 222.125 1644.58 222.125 1640.82 231.838C1639.93 234.175 1639.13 236.529 1638.34 238.898C1634.73 249.698 1630.83 260.378 1626.56 270.938C1626.14 272.02 1625.73 273.103 1625.3 274.218C1622.1 281.945 1617.9 288.296 1610.05 291.894C1596.69 295.875 1579.07 295.362 1566.13 289.758C1563.94 288.438 1563.94 288.438 1561 286C1561 285.34 1561 284.68 1561 284C1560.34 284 1559.68 284 1559 284C1558.67 282.02 1558.34 280.04 1558 278C1557.34 278 1556.68 278 1556 278C1555.99 277.403 1555.97 276.806 1555.96 276.191C1555.63 270.222 1554.48 264.814 1552.69 259.125C1548.3 244.986 1546.12 230.524 1544.36 215.857C1543.11 205.963 1541.29 196.181 1539.5 186.375C1535.68 165.364 1532.39 145.442 1533 124C1533.66 124 1534.32 124 1535 124C1535.1 123.278 1535.21 122.556 1535.31 121.813C1536.73 116.01 1539.64 113.23 1544.38 109.918C1546 109 1546 109 1548 109C1548 108.34 1548 107.68 1548 107C1554.99 102.7 1560.7 102.426 1568.8 102.504Z" fill="#3D6F23"/>
<path d="M1780.17 177.75C1784.36 181.082 1788.37 184.611 1792.38 188.15C1796.96 192.166 1801.64 195.824 1806.63 199.316C1809.18 201.127 1811.64 202.948 1814 205C1814 205.66 1814 206.32 1814 207C1814.66 207 1815.32 207 1816 207C1817.47 209.082 1817.47 209.082 1819.06 211.812C1819.85 213.152 1819.85 213.152 1820.66 214.519C1823.84 220.414 1823.65 226.455 1823 233C1819.68 243.662 1811.3 251.049 1803 258C1801.61 259.183 1801.61 259.183 1800.2 260.391C1795.44 264.446 1790.67 268.472 1785.8 272.398C1771.7 283.805 1760.34 295.454 1749.5 310.008C1747.34 312.881 1745.12 315.697 1742.88 318.5C1742.19 319.356 1741.51 320.212 1740.8 321.094C1739 323 1739 323 1736 324C1735.67 325.65 1735.34 327.3 1735 329C1734.34 329 1733.68 329 1733 329C1732.73 329.639 1732.46 330.279 1732.19 330.937C1731 333 1731 333 1728 334C1728 334.66 1728 335.32 1728 336C1723.04 338.951 1719.24 339.514 1713.63 339.437C1712.87 339.431 1712.12 339.425 1711.34 339.419C1703.12 339.187 1698.28 336.358 1692 331C1691.34 330.67 1690.68 330.34 1690 330C1690 329.34 1690 328.68 1690 328C1689.34 328 1688.68 328 1688 328C1688 327.34 1688 326.68 1688 326C1687.01 325.67 1686.02 325.34 1685 325C1680.43 318.57 1680.54 311.58 1681 304C1681.66 304 1682.32 304 1683 304C1682.94 303.196 1682.88 302.391 1682.81 301.562C1683.06 296.953 1684.4 293.305 1686 289C1686.45 287.738 1686.91 286.477 1687.36 285.215C1689.79 278.503 1692.33 272.004 1695.66 265.676C1697.38 262.24 1698.87 258.721 1700.38 255.187C1703.09 248.848 1706.17 242.863 1709.5 236.824C1711.03 233.949 1712.25 231.126 1713.28 228.048C1714.03 225.923 1714.86 223.853 1715.71 221.769C1717.51 217.315 1719.17 212.82 1720.8 208.305C1721.57 206.207 1722.33 204.11 1723.1 202.013C1723.62 200.586 1724.13 199.157 1724.64 197.726C1731.92 177.316 1731.92 177.316 1742.71 171.965C1756.51 166.14 1768.34 169.118 1780.17 177.75Z" fill="#3D6F23"/>
<path d="M701 482C701.99 482.33 702.98 482.66 704 483C702.715 484.339 701.421 485.671 700.125 487C699.406 487.743 698.686 488.485 697.945 489.25C696 491 696 491 694 491C694 490.34 694 489.68 694 489C694.66 489 695.32 489 696 489C696 488.34 696 487.68 696 487C696.66 487 697.32 487 698 487C698.33 486.01 698.66 485.02 699 484C699.66 484 700.32 484 701 484C701 483.34 701 482.68 701 482Z" fill="#2D551A"/>
</svg>
