<svg width="158" height="102" viewBox="0 0 158 102" fill="none" xmlns="http://www.w3.org/2000/svg">
<path d="M23.3472 1.43798C23.3472 1.49115 23.3472 1.54432 23.3472 1.59911C23.8783 1.76024 23.4535 1.59911 23.5083 1.59911C23.5083 1.65228 23.5083 1.70546 23.5083 1.76024C23.5615 1.76024 23.6146 1.76024 23.6694 1.76024C24.0293 2.31133 24.6576 3.80976 24.63 4.45666C24.6208 4.67405 24.6144 4.89142 24.6081 5.1089C24.5837 5.89706 24.5504 6.6847 24.5064 7.472C24.3897 9.56222 24.3088 11.6532 24.2336 13.7453C24.2211 14.0917 24.2084 14.4382 24.1958 14.7847C24.1725 15.4196 24.1493 16.0544 24.1265 16.6893C24.0924 17.6378 24.0581 18.5863 24.0223 19.5348C23.8085 25.2019 23.635 30.8704 23.4567 36.5387C23.4266 37.4944 23.3965 38.4502 23.3664 39.4059C23.289 41.8632 23.2116 44.3204 23.1344 46.7777C23.1319 46.8556 23.1295 46.9334 23.127 47.0136C23.1171 47.3288 23.1072 47.644 23.0973 47.9591C23.0898 48.1962 23.0824 48.4333 23.0749 48.6704C23.0725 48.7488 23.07 48.8271 23.0675 48.9078C22.9873 51.4593 22.9068 54.0108 22.8261 56.5623C22.7403 59.2772 22.6547 61.9922 22.5695 64.7072C22.5601 65.0054 22.5507 65.3036 22.5414 65.6018C22.5391 65.6752 22.5368 65.7486 22.5344 65.8242C22.4975 66.9979 22.4604 68.1716 22.4232 69.3453C22.3858 70.5238 22.3487 71.7024 22.312 72.8809C22.2921 73.5175 22.2721 74.1541 22.2518 74.7906C22.1328 78.2728 22.1328 78.2728 22.1241 81.7565C22.2767 81.8341 22.4294 81.9114 22.5822 81.9886C22.6672 82.0317 22.7523 82.0748 22.8399 82.1192C23.1822 82.2838 23.53 82.4072 23.8915 82.5219C23.9643 82.5455 24.0371 82.5691 24.1121 82.5934C26.2326 83.2732 28.4021 83.8074 30.5685 84.3195C30.6579 84.3409 30.7474 84.3623 30.8396 84.3843C31.715 84.588 32.5989 84.7434 33.484 84.8986C33.5936 84.9178 33.5936 84.9178 33.7054 84.9374C37.2473 85.5562 40.804 86.0433 44.3721 86.482C45.1143 86.5735 45.8561 86.6675 46.5979 86.762C46.807 86.7886 47.0161 86.8152 47.2251 86.8418C48.3679 86.9872 48.3679 86.9872 48.8997 87.0552C49.8033 87.1707 50.7072 87.2848 51.6114 87.3962C51.6727 87.4037 51.7341 87.4113 51.7973 87.4191C53.4976 87.6281 55.1933 87.7877 56.9036 87.8947C57.2114 87.9145 57.5191 87.9345 57.8268 87.9546C58.0148 87.9669 58.2029 87.9789 58.3909 87.9907C58.745 88.0134 59.0973 88.0366 59.4492 88.0828C60.5519 88.2244 61.6849 88.2217 62.7952 88.2709C63.038 88.2818 63.2807 88.2929 63.5234 88.3042C67.1689 88.4703 70.8131 88.4658 74.4616 88.4597C75.0401 88.4587 75.6186 88.4584 76.1972 88.4585C79.3673 88.4586 82.5374 88.456 85.7073 88.4113C85.8757 88.409 86.0442 88.4067 86.2126 88.4045C88.9068 88.3677 91.578 88.1942 94.2498 87.8482C94.695 87.7907 95.1406 87.7366 95.5862 87.6822C97.7861 87.4147 97.7861 87.4147 99.9792 87.0975C100.361 87.0379 100.741 86.985 101.125 86.9423C102.118 86.8317 103.104 86.6723 104.09 86.515C104.269 86.4867 104.448 86.4584 104.627 86.4301C104.975 86.375 105.324 86.3197 105.672 86.2642C105.969 86.217 106.266 86.1703 106.562 86.1243C107.532 85.9739 108.498 85.8063 109.463 85.6338C109.542 85.6197 109.622 85.6055 109.704 85.591C110.622 85.4276 111.539 85.2604 112.454 85.0799C113.211 84.9307 113.97 84.8073 114.732 84.6928C117.481 84.2895 117.481 84.2895 120.173 83.6218C120.634 83.4848 121.102 83.3767 121.568 83.2621C122.309 83.0794 123.045 82.887 123.779 82.678C124.424 82.4943 125.071 82.3204 125.722 82.1593C125.802 82.1396 125.881 82.1199 125.963 82.0996C126.293 82.0178 126.623 81.9363 126.953 81.8562C128.568 81.4628 130.215 81.0144 131.755 80.3757C131.96 80.2971 132.121 80.2938 132.339 80.3063C132.339 80.2531 132.339 80.2 132.339 80.1452C132.39 80.1286 132.442 80.112 132.495 80.095C133.462 79.7818 134.415 79.4576 135.35 79.0591C135.6 78.9543 135.85 78.8597 136.105 78.7705C136.534 78.6201 136.939 78.4256 137.346 78.2254C137.576 78.131 137.576 78.131 137.898 78.131C137.898 78.0779 137.898 78.0247 137.898 77.9699C137.947 77.9513 137.996 77.9327 138.046 77.9136C138.412 77.7711 138.767 77.6203 139.117 77.4412C139.349 77.3222 139.576 77.2154 139.822 77.129C140.165 77.0055 140.483 76.842 140.808 76.6764C141.303 76.4261 141.806 76.1909 142.307 75.9524C142.384 75.9159 142.46 75.8794 142.539 75.8418C142.65 75.7891 142.65 75.7891 142.764 75.7354C142.955 75.6423 143.144 75.5445 143.332 75.4453C143.618 75.3112 143.618 75.3112 143.941 75.3112C143.941 75.258 143.941 75.2049 143.941 75.1501C144.003 75.1247 144.065 75.0994 144.129 75.0733C144.564 74.8949 144.99 74.7121 145.408 74.4974C145.639 74.3813 145.877 74.2836 146.116 74.1833C146.209 74.1404 146.209 74.1404 146.304 74.0967C146.368 74.0671 146.432 74.0375 146.499 74.007C146.558 73.9793 146.617 73.9516 146.679 73.923C146.841 73.861 146.841 73.861 147.083 73.861C147.083 73.8078 147.083 73.7547 147.083 73.6999C147.172 73.6683 147.262 73.6367 147.355 73.6042C147.848 73.4192 148.321 73.1861 148.769 72.9093C148.936 72.8136 148.936 72.8136 149.177 72.8136C149.177 72.7605 149.177 72.7073 149.177 72.6525C149.262 72.6193 149.347 72.586 149.434 72.5518C149.64 72.4648 149.767 72.3899 149.943 72.2446C150.306 71.963 150.725 71.8897 151.181 71.9013C151.502 71.9502 151.806 72.0721 152.078 72.2497C152.104 72.3294 152.131 72.4092 152.158 72.4914C152.211 72.4914 152.265 72.4914 152.319 72.4914C152.319 72.5446 152.319 72.5977 152.319 72.6525C152.373 72.6525 152.426 72.6525 152.481 72.6525C152.88 73.127 153.13 73.6968 153.367 74.2638C153.404 74.3506 153.441 74.4373 153.479 74.5266C153.781 75.2519 154.026 75.9906 154.258 76.7409C154.358 77.0657 154.46 77.39 154.563 77.7139C154.975 79.0126 155.315 80.3214 155.633 81.6457C155.68 81.8411 155.727 82.0364 155.775 82.2317C155.845 82.5203 155.915 82.8089 155.984 83.0976C156.135 83.7245 156.291 84.3501 156.449 84.9754C156.612 85.6221 156.766 86.2678 156.892 86.9228C156.908 87.0071 156.924 87.0915 156.941 87.1783C156.986 87.4119 157.029 87.6457 157.073 87.8796C157.093 87.9826 157.113 88.0856 157.134 88.1917C157.235 88.7797 157.257 89.3687 157.269 89.9642C157.272 90.0428 157.275 90.1215 157.278 90.2025C157.281 90.8156 157.121 91.1957 156.703 91.6414C156.259 92.0723 155.6 92.4718 154.978 92.4718C154.978 92.525 154.978 92.5782 154.978 92.633C154.931 92.6463 154.885 92.6596 154.836 92.6732C153.876 92.9472 152.921 93.2337 151.972 93.5444C150.071 94.1629 148.147 94.6942 146.206 95.1696C145.788 95.2722 145.372 95.3816 144.958 95.4981C144.901 95.514 144.845 95.5299 144.787 95.5462C144.672 95.5785 144.558 95.6109 144.443 95.6433C139.483 97.0493 134.386 97.7172 129.276 98.3273C128.59 98.4094 127.903 98.4944 127.217 98.5804C124.816 98.88 122.415 99.1303 120.005 99.3377C119.411 99.389 118.817 99.4456 118.224 99.5059C116.817 99.6488 115.408 99.7352 113.997 99.8156C112.091 99.9244 110.187 100.041 108.285 100.211C108.173 100.221 108.173 100.221 108.059 100.231C107.846 100.25 107.632 100.27 107.418 100.29C107.328 100.298 107.328 100.298 107.236 100.306C106.833 100.344 106.432 100.393 106.03 100.444C105.351 100.531 104.672 100.599 103.991 100.665C103.864 100.677 103.738 100.689 103.612 100.701C103.349 100.727 103.086 100.752 102.823 100.777C102.557 100.803 102.291 100.828 102.025 100.854C99.3448 101.116 99.3448 101.116 98.231 101.157C97.9359 101.169 97.9359 101.169 97.6403 101.212C97.2908 101.257 96.9428 101.276 96.591 101.291C96.5237 101.294 96.4565 101.297 96.3872 101.3C96.1647 101.31 95.9422 101.32 95.7196 101.329C95.5602 101.336 95.4007 101.343 95.2412 101.35C94.9043 101.364 94.5674 101.379 94.2306 101.393C93.8957 101.407 93.5608 101.422 93.2259 101.437C88.5121 101.646 83.7997 101.67 79.0822 101.667C78.586 101.666 78.0899 101.667 77.5937 101.667C74.5028 101.669 71.4122 101.66 68.3214 101.625C68.1139 101.623 67.9063 101.621 67.6988 101.618C65.3833 101.594 63.0769 101.499 60.7651 101.364C60.2336 101.334 59.702 101.309 59.1702 101.285C59.0866 101.282 59.003 101.278 58.917 101.274C58.6024 101.261 58.2878 101.247 57.9733 101.234C57.7674 101.226 57.5614 101.217 57.3555 101.208C57.2967 101.205 57.2379 101.203 57.1772 101.201C56.8528 101.186 56.5356 101.155 56.2134 101.112C55.8837 101.075 55.5525 101.065 55.2212 101.052C55.0639 101.045 54.9067 101.039 54.7494 101.032C54.504 101.022 54.2586 101.012 54.0133 101.002C53.7747 100.992 53.5362 100.982 53.2976 100.972C53.1881 100.967 53.1881 100.967 53.0764 100.963C52.7152 100.947 52.3707 100.914 52.0142 100.851C51.8622 100.84 51.7099 100.833 51.5576 100.828C51.4296 100.824 51.4296 100.824 51.2991 100.819C51.211 100.816 51.123 100.813 51.0323 100.81C50.5427 100.795 50.0553 100.779 49.5677 100.73C49.0162 100.676 48.464 100.664 47.9104 100.649C46.758 100.618 46.758 100.618 46.2323 100.57C45.8381 100.535 45.4442 100.514 45.0487 100.5C44.9847 100.497 44.9206 100.495 44.8546 100.492C44.7874 100.49 44.7203 100.487 44.6511 100.485C40.4411 100.327 36.2287 100.057 32.0378 99.6273C31.5878 99.5811 31.1376 99.5381 30.6868 99.4997C28.3168 99.296 25.9472 98.9999 23.6039 98.5886C23.1237 98.5046 22.6418 98.4336 22.1594 98.3633C21.3141 98.2398 20.4697 98.1122 19.6255 97.982C19.4201 97.9504 19.2147 97.9188 19.0094 97.8872C18.4321 97.7983 16.855 97.7091 16.2782 97.6174C15.1388 97.437 13.9975 97.286 12.8525 97.1469C12.3332 97.0836 11.8144 97.0165 11.2956 96.9483C10.6539 96.864 10.0118 96.7827 9.36928 96.7044C7.36695 96.4602 5.37969 96.2171 3.40957 95.7751C3.32375 95.756 3.23792 95.7369 3.1495 95.7172C2.427 95.5484 1.76016 95.3243 1.13357 94.9191C1.02109 94.8477 1.02109 94.8477 0.906346 94.7749C0.851718 94.7328 0.797091 94.6906 0.740807 94.6471C0.740807 94.594 0.740807 94.5408 0.740807 94.486C0.687634 94.486 0.63446 94.486 0.579675 94.486C0.579675 94.4328 0.579675 94.3797 0.579675 94.3249C0.526501 94.3249 0.473327 94.3249 0.418542 94.3249C-0.0117585 93.5204 0.0462154 92.6397 0.0157098 91.7467C0.0132821 91.6824 0.0108545 91.6181 0.00835335 91.5518C-0.0570732 89.6032 0.19475 87.646 0.600367 85.744C0.665641 85.4372 0.728932 85.13 0.791791 84.8228C0.862373 84.478 0.933084 84.1333 1.00463 83.7888C1.12685 83.2 1.24722 82.611 1.36299 82.0209C1.6097 80.7653 1.87205 79.5157 2.16214 78.2694C2.37773 77.3419 2.56894 76.4123 2.74332 75.4761C2.83382 74.9915 2.93455 74.5094 3.03695 74.0272C3.19622 73.2728 3.34182 72.5167 3.47969 71.7582C3.57067 71.2582 3.66445 70.7591 3.76362 70.2607C4.23893 67.8574 4.59937 65.4356 4.96924 63.0144C5.02386 62.6577 5.07928 62.3012 5.13482 61.9447C5.23113 61.325 5.32321 60.7047 5.41366 60.0842C5.43075 59.9684 5.44785 59.8526 5.46496 59.7368C6.13047 55.209 6.58774 50.6505 6.9915 46.0929C7.01441 45.8346 7.03748 45.5763 7.06058 45.318C7.36878 41.8599 7.5911 38.4004 7.70314 34.9303C7.71481 34.5722 7.72702 34.2142 7.73919 33.8561C7.75444 33.4068 7.76966 32.9575 7.78463 32.5083C7.8166 31.5523 7.85145 30.5966 7.88843 29.6408C7.99899 26.7801 8.09236 23.9203 8.13006 21.0575C8.13272 20.8577 8.13556 20.658 8.13842 20.4582C8.1634 18.6737 8.14074 16.8974 8.05182 15.1145C8.00345 14.0667 8.40412 13.4094 9.06842 12.6274C9.20418 12.477 9.20418 12.477 9.28085 12.3083C9.33402 12.3083 9.38719 12.3083 9.44198 12.3083C9.46358 12.2613 9.48518 12.2144 9.50744 12.166C9.60431 11.9838 9.71093 11.8405 9.84481 11.6839C9.88635 11.6344 9.9279 11.585 9.9707 11.5341C10.0865 11.422 10.0865 11.422 10.2476 11.422C10.265 11.3782 10.2823 11.3344 10.3002 11.2892C10.4461 11.0346 10.6468 10.8478 10.8569 10.6466C11.1522 10.3776 11.1522 10.3776 11.3756 10.0524C11.4287 10.0524 11.4819 10.0524 11.5367 10.0524C11.5367 9.99924 11.5367 9.94606 11.5367 9.89128C11.6691 9.78157 11.8038 9.67459 11.9395 9.56901C12.137 9.3764 12.3291 9.18024 12.5186 8.97987C12.6646 8.84391 12.6646 8.84391 12.8258 8.84391C12.8258 8.79074 12.8258 8.73757 12.8258 8.68278C12.9443 8.57735 13.068 8.47777 13.1934 8.38066C13.5852 8.068 13.9526 7.73864 14.3162 7.39372C14.7364 6.9959 15.1649 6.62296 15.617 6.2617C15.8383 6.07854 16.0373 5.88128 16.2369 5.67507C16.4273 5.48385 15.631 5.3099 15.8352 5.13377C16.0457 4.95012 16.252 4.76225 16.4583 4.57389C16.7131 4.34152 17.9827 3.37029 18.2427 3.14384C18.4956 2.9235 18.7474 2.70208 18.998 2.47917C19.1001 2.38866 18.1001 2.38866 18.2042 2.29632C18.3707 2.15435 19.1792 1.80933 19.2547 1.63564C19.3079 1.63564 19.4158 1.63564 19.4158 1.63564C19.4158 1.63564 19.4158 1.52929 19.4158 1.47451C19.5751 1.35586 19.5751 1.35586 19.7884 1.22778C19.8576 1.1853 19.9268 1.14282 19.998 1.09906C20.8766 0.674622 22.5299 0.995303 23.3472 1.43798Z" fill="#FFBB59"/>
<path d="M112.924 33.4433C112.98 33.4512 113.036 33.4591 113.093 33.4672C113.811 33.572 114.497 33.7485 115.099 34.1684C115.193 34.3396 115.193 34.3396 115.261 34.4907C115.394 34.5461 115.528 34.5999 115.663 34.6518C115.69 34.7316 115.717 34.8113 115.744 34.8935C115.824 34.9201 115.903 34.9467 115.986 34.9741C115.986 35.0272 115.986 35.0804 115.986 35.1352C116.039 35.1352 116.092 35.1352 116.147 35.1352C117.399 38.8483 117.339 43.2318 117.354 47.1125C117.355 47.2829 117.357 47.4533 117.359 47.6237C117.371 48.6877 117.355 49.7505 117.334 50.8142C117.332 50.9132 117.33 51.0123 117.328 51.1143C117.319 51.6142 117.308 52.1139 117.296 52.6137C117.276 53.5559 117.276 54.4877 117.336 55.4282C117.366 55.9098 117.36 56.3907 117.355 56.873C117.35 57.8662 117.366 58.8578 117.39 59.8507C117.461 62.7878 117.476 65.7147 117.229 68.6455C117.19 69.1366 117.188 69.6237 117.194 70.1161C117.201 70.6333 117.192 71.1355 117.134 71.6495C117.095 72.0845 117.092 72.5215 117.082 72.958C117.006 76.1709 117.006 76.1709 116.066 77.1103C115.444 77.6369 114.721 77.9386 113.972 78.2382C113.898 78.2678 113.898 78.2678 113.823 78.2979C113.438 78.4485 113.055 78.5538 112.65 78.6389C112.556 78.6592 112.556 78.6592 112.459 78.6799C112.255 78.7231 112.051 78.7653 111.847 78.8072C111.777 78.8217 111.707 78.8362 111.635 78.8511C110.596 79.0646 109.585 79.2011 108.526 79.2563C108.144 79.2772 107.783 79.3343 107.41 79.4165C106.296 79.646 105.095 79.688 104.095 79.0779C103.719 78.8077 103.403 78.5285 103.256 78.0771C103.214 77.6686 103.222 77.2633 103.231 76.8535C103.232 76.7481 103.233 76.6428 103.233 76.5342C103.24 75.8105 103.268 75.0876 103.296 74.3644C103.339 73.2059 103.358 72.0473 103.373 70.8881C103.38 70.2951 103.389 69.7021 103.397 69.1091C103.398 69.0504 103.399 68.9918 103.4 68.9314C103.439 66.203 103.518 63.4805 103.659 60.7553C103.609 60.8351 103.559 60.9148 103.508 60.997C103.451 61.0768 103.395 61.1565 103.337 61.2387C103.284 61.2387 103.23 61.2387 103.176 61.2387C103.156 61.2835 103.136 61.3282 103.115 61.3744C102.997 61.5941 102.854 61.775 102.697 61.9689C102.614 62.0724 102.614 62.0724 102.529 62.1781C102.27 62.4851 102.27 62.4851 102.128 62.6083C102.075 62.6083 102.022 62.6083 101.967 62.6083C101.941 62.6881 101.914 62.7679 101.887 62.85C101.833 62.85 101.78 62.85 101.725 62.85C101.725 62.9032 101.725 62.9564 101.725 63.0112C101.53 63.2192 101.3 63.3937 101.081 63.5751C101.037 63.612 100.993 63.6489 100.947 63.6869C99.5645 64.841 98.1869 65.6842 96.3275 65.5893C95.873 65.5327 95.4607 65.4468 95.0384 65.267C95.0384 65.2139 95.0384 65.1607 95.0384 65.1059C94.9321 65.1059 94.8257 65.1059 94.7161 65.1059C94.7161 65.0527 94.7161 64.9996 94.7161 64.9448C94.6484 64.9315 94.6484 64.9315 94.5792 64.918C93.9891 64.7467 93.4645 64.3143 93.0242 63.8974C92.9793 63.8562 92.9343 63.8149 92.888 63.7725C92.7825 63.6557 92.7825 63.6557 92.7825 63.4946C92.7294 63.4946 92.6762 63.4946 92.6214 63.4946C92.4823 63.3593 92.4823 63.3593 92.3294 63.1824C92.2785 63.1244 92.2276 63.0665 92.1752 63.0068C92.0575 62.85 92.0575 62.85 92.0575 62.6889C92.0043 62.6889 91.9511 62.6889 91.8963 62.6889C91.7654 62.4875 91.7654 62.4875 91.6546 62.2861C91.6429 62.354 91.6312 62.4218 91.6192 62.4918C91.2088 64.8564 90.6719 67.1732 90.0411 69.4898C89.9654 69.769 89.8907 70.0486 89.8164 70.3282C89.4152 71.8366 88.9896 73.3362 88.5121 74.8223C88.3801 75.2366 88.2651 75.6518 88.1692 76.0762C88.1195 76.267 88.0619 76.4485 87.998 76.6348C87.8478 77.0779 87.7337 77.5288 87.6162 77.9814C87.4081 78.7663 87.1822 79.5439 86.9364 80.3179C86.9081 80.4084 86.8798 80.499 86.8506 80.5924C86.6023 81.3625 86.3111 82.157 85.8538 82.8305C85.8007 82.8305 85.7475 82.8305 85.6927 82.8305C85.6927 82.8837 85.6927 82.9369 85.6927 82.9917C85.5278 83.1075 85.5278 83.1075 85.31 83.2334C85.2035 83.2957 85.2035 83.2957 85.0948 83.3592C84.2816 83.8126 83.2851 83.8294 82.3874 83.5985C82.1336 83.5256 81.881 83.4486 81.6284 83.3717C81.2539 83.2665 80.8721 83.1949 80.4911 83.1175C79.2114 82.848 78.0098 82.4272 76.8304 81.8637C76.7758 81.8377 76.7212 81.8117 76.6649 81.785C75.8412 81.3868 75.2827 81.0281 74.8968 80.1718C74.6799 79.3088 74.9194 78.5671 75.164 77.7413C75.5143 76.5558 75.7253 75.3276 75.9543 74.1141C76.0342 73.6903 76.1161 73.2672 76.206 72.8453C76.6877 70.5713 76.9403 68.2561 77.2015 65.9483C77.2271 65.7239 77.2534 65.4997 77.2804 65.2755C77.4342 63.9873 77.5382 62.6933 77.6361 61.3999C77.6407 61.3395 77.6454 61.2791 77.6502 61.2169C77.9239 57.6323 77.7732 54.0291 77.5958 50.4428C77.5931 50.3891 77.5905 50.3354 77.5878 50.28C77.5702 49.9247 77.5518 49.5694 77.5328 49.2142C77.5282 49.125 77.5236 49.0359 77.5188 48.9441C77.497 48.551 77.4631 48.1721 77.3944 47.7841C77.3803 47.5894 77.369 47.3944 77.3597 47.1994C77.354 47.0841 77.3482 46.9689 77.3423 46.8537C77.3393 46.7936 77.3364 46.7335 77.3333 46.6716C77.2439 44.902 77.0695 43.1544 76.7893 41.4043C76.6855 40.7463 76.6012 40.0875 76.5283 39.4254C76.518 39.3353 76.5077 39.2453 76.4971 39.1525C76.2814 37.114 76.2814 37.114 76.887 36.2222C77.1086 35.9819 77.353 35.83 77.6361 35.674C77.7105 35.6306 77.7105 35.6306 77.7865 35.5863C78.06 35.4323 78.2011 35.3769 78.5223 35.3769C78.5223 35.3237 78.5223 35.2706 78.5223 35.2158C79.6699 35.0229 80.7784 34.9365 81.9413 34.9489C82.0166 34.9493 82.092 34.9498 82.1696 34.9503C85.8194 34.9722 85.8194 34.9722 86.9818 35.6992C87.118 35.7583 87.2543 35.8173 87.3915 35.8741C87.6637 35.9919 87.926 36.1287 88.1903 36.2631C88.1903 36.3163 88.1903 36.3695 88.1903 36.4243C88.2385 36.4342 88.2866 36.4442 88.3363 36.4545C88.5125 36.5048 88.5125 36.5048 88.7542 36.666C88.7542 36.7191 88.7542 36.7723 88.7542 36.8271C88.7982 36.8338 88.8421 36.8406 88.8874 36.8476C89.14 36.9278 89.3132 37.0658 89.5246 37.2249C89.7491 37.3927 89.9712 37.5579 90.2044 37.7133C90.2044 37.7665 90.2044 37.8197 90.2044 37.8745C90.2526 37.8977 90.3008 37.921 90.3504 37.945C90.5267 38.0356 90.5267 38.0356 90.7684 38.1967C90.7684 38.2499 90.7684 38.3031 90.7684 38.3579C90.8166 38.3811 90.8648 38.4044 90.9144 38.4284C91.0907 38.519 91.0907 38.519 91.3324 38.6801C91.3324 38.7333 91.3324 38.7865 91.3324 38.8413C91.3756 38.8595 91.4188 38.8778 91.4633 38.8966C91.7211 39.0391 91.9197 39.2068 92.138 39.4052C92.138 39.4584 92.138 39.5116 92.138 39.5664C92.2178 39.5929 92.2975 39.6195 92.3797 39.6469C92.3797 39.7001 92.3797 39.7533 92.3797 39.8081C92.4225 39.8247 92.4653 39.8413 92.5094 39.8584C92.7832 40.0159 92.9848 40.2287 93.2055 40.4526C93.2502 40.4966 93.2948 40.5407 93.3408 40.586C93.6688 40.9156 93.6688 40.9156 93.6688 41.0971C93.7485 41.1237 93.8283 41.1503 93.9105 41.1777C93.9105 41.2309 93.9105 41.284 93.9105 41.3388C93.9637 41.3388 94.0168 41.3388 94.0716 41.3388C94.1852 41.4543 94.1852 41.4543 94.3183 41.6158C94.646 42.0011 95.0002 42.354 95.3607 42.7084C95.8101 43.1503 96.2392 43.5999 96.6497 44.0781C96.7995 44.2471 96.9509 44.4146 97.1029 44.5816C97.1393 44.6221 97.1756 44.6626 97.2131 44.7044C97.4382 44.9515 97.6725 45.1652 97.9388 45.3671C97.9481 45.3248 97.9575 45.2824 97.9671 45.2387C98.2412 44.2217 98.7757 43.3171 99.288 42.4067C99.5561 41.9247 99.8149 41.4369 99.9983 40.9158C100.074 40.701 100.164 40.5262 100.29 40.3368C100.742 39.6446 101.064 38.85 101.373 38.0859C101.535 37.6878 101.73 37.318 101.94 36.9439C102.058 36.7365 102.058 36.7365 102.164 36.4645C102.475 35.7676 102.997 34.799 103.719 34.4708C103.779 34.4508 103.839 34.4308 103.901 34.4101C103.901 34.3569 103.901 34.3038 103.901 34.249C104.041 34.1721 104.182 34.0969 104.324 34.0224C104.402 33.9803 104.481 33.9383 104.562 33.8949C105.44 33.4943 106.373 33.4709 107.32 33.4332C107.46 33.4271 107.599 33.4209 107.739 33.4146C108.019 33.4022 108.3 33.3904 108.58 33.3792C108.935 33.3648 109.29 33.3474 109.645 33.3294C110.754 33.2765 111.825 33.2758 112.924 33.4433Z" fill="#FFBB59"/>
<path d="M34.6123 37.8474C34.6891 37.8467 34.766 37.8461 34.8452 37.8454C35.0954 37.8438 35.3455 37.8438 35.5957 37.8442C35.7246 37.8442 35.7246 37.8442 35.856 37.8442C37.4743 37.8468 39.0551 37.9703 40.6563 38.1967C40.7375 38.2081 40.7375 38.2081 40.8202 38.2196C41.4202 38.3036 42.0191 38.3934 42.6175 38.4879C42.8209 38.5174 43.0236 38.539 43.2282 38.5583C43.4983 38.5864 43.7093 38.6519 43.9595 38.7607C44.1691 38.8132 44.3785 38.8634 44.589 38.9117C45.0618 39.0243 45.4703 39.1585 45.8931 39.4052C45.8931 39.4584 45.8931 39.5116 45.8931 39.5663C45.9411 39.588 45.9891 39.6096 46.0385 39.6318C46.3859 39.8197 46.6236 40.105 46.7712 40.4708C46.9321 41.1124 46.8624 41.8556 46.5679 42.4516C46.5313 42.5098 46.4948 42.568 46.4571 42.6279C46.4039 42.6279 46.3508 42.6279 46.296 42.6279C46.2859 42.6738 46.2759 42.7197 46.2656 42.767C46.2132 42.9581 46.1423 43.1234 46.0574 43.3023C46.0261 43.3685 45.9947 43.4347 45.9624 43.5029C45.9132 43.6057 45.9132 43.6057 45.8629 43.7105C45.8307 43.7787 45.7985 43.8468 45.7654 43.9171C45.5148 44.4433 45.5148 44.4433 45.3629 44.6763C45.1768 45.014 45.0866 45.3802 44.9817 45.7498C44.9575 45.8341 44.9333 45.9184 44.9084 46.0052C44.73 46.6353 44.5668 47.2686 44.4127 47.905C44.3926 47.988 44.3724 48.0711 44.3516 48.1567C43.8958 50.0851 44.1548 51.8675 44.6846 53.746C44.7017 53.8151 44.7187 53.8842 44.7363 53.9553C44.9939 54.9446 45.5626 56.0154 46.1887 56.8189C46.296 56.9687 46.296 56.9687 46.296 57.1298C46.3491 57.1298 46.4023 57.1298 46.4571 57.1298C46.5962 57.2652 46.5962 57.2652 46.7492 57.442C46.8 57.5 46.8509 57.5579 46.9034 57.6176C47.0211 57.7744 47.0211 57.7744 47.0211 57.9355C47.0657 57.9549 47.1104 57.9743 47.1564 57.9943C47.3839 58.1188 47.5604 58.2742 47.7562 58.4441C48.7461 59.2641 49.8124 59.5636 51.0796 59.5519C51.1916 59.5513 51.1916 59.5513 51.3059 59.5508C51.4889 59.5498 51.672 59.5485 51.8551 59.5468C51.8551 59.4936 51.8551 59.4405 51.8551 59.3857C51.8999 59.3738 51.9448 59.362 51.991 59.3498C52.4868 59.2041 52.8335 58.9941 53.2247 58.6606C53.2887 58.6073 53.3526 58.554 53.4185 58.4991C53.8635 58.1153 54.2389 57.7033 54.6016 57.2412C54.7554 57.0493 54.7554 57.0493 54.8917 56.9177C55.0185 56.801 55.0185 56.801 55.0777 56.5659C55.1309 56.5659 55.1841 56.5659 55.2388 56.5659C55.246 56.5231 55.2532 56.4803 55.2606 56.4362C55.3399 56.1767 55.4751 55.9716 55.6165 55.7401C56.4394 54.3212 56.7102 52.7602 57.0113 51.1679C57.0251 51.0976 57.0388 51.0272 57.053 50.9548C57.3937 49.1486 57.1255 47.1579 56.8114 45.3688C56.3383 42.6129 56.3383 42.6129 56.7696 41.5805C56.7962 41.5007 56.8228 41.421 56.8502 41.3388C56.9033 41.3388 56.9565 41.3388 57.0113 41.3388C57.0113 41.2856 57.0113 41.2325 57.0113 41.1777C57.0645 41.1777 57.1177 41.1777 57.1724 41.1777C57.199 41.0979 57.2256 41.0182 57.253 40.936C57.3062 40.936 57.3594 40.936 57.4141 40.936C57.4141 40.8828 57.4141 40.8296 57.4141 40.7748C58.1765 40.2401 59.1709 40.1393 60.0728 40.0497C60.1631 40.0407 60.2533 40.0317 60.3463 40.0224C60.8539 39.9792 61.3564 39.9681 61.8654 39.9742C62.5326 39.9819 63.1944 39.9441 63.8597 39.9002C68.8441 39.5729 68.8441 39.5729 70.3048 40.4526C70.3048 40.5058 70.3048 40.5589 70.3048 40.6137C70.3579 40.6137 70.4111 40.6137 70.4659 40.6137C70.8402 41.1596 70.9087 41.6748 70.9767 42.3226C71.0228 42.5871 71.091 42.7936 71.2031 43.0357C71.344 43.3571 71.4445 43.6945 71.5535 44.0277C71.5773 44.0998 71.6011 44.1719 71.6256 44.2461C71.6731 44.3901 71.7204 44.5342 71.7675 44.6783C71.8101 44.807 71.8536 44.9354 71.8985 45.0634C72.4288 46.586 72.6432 48.2012 72.8023 49.7983C72.8179 49.9436 72.8337 50.0889 72.8495 50.2342C72.8641 50.3708 72.8786 50.5075 72.893 50.6442C72.8991 50.7019 72.9052 50.7595 72.9114 50.8189C73.0314 52.0282 73.0608 53.2366 73.0591 54.451C73.059 54.5259 73.0589 54.6008 73.0588 54.6779C73.056 55.7451 73.0479 56.7984 72.8829 57.8549C72.8673 57.9566 72.8517 58.0583 72.8356 58.1631C72.6402 59.4177 72.4218 60.6523 72.025 61.8612C71.9188 62.1856 71.8451 62.5113 71.7751 62.845C71.4443 64.3606 70.824 65.8303 70.2893 67.2834C70.1933 67.5453 70.1003 67.808 70.0105 68.0721C69.8287 68.6057 69.6521 69.1197 69.3557 69.6032C69.2555 69.7821 69.1833 69.9582 69.1114 70.1501C68.9384 70.5898 68.7291 71.0013 68.5021 71.4153C68.4394 71.5297 68.4394 71.5297 68.3754 71.6465C67.911 72.4795 67.3859 73.2672 66.8404 74.0488C66.7716 74.148 66.7716 74.148 66.7014 74.2492C66.1724 75.0089 65.6267 75.7144 64.9874 76.3852C64.8809 76.5037 64.7751 76.6228 64.6701 76.7427C64.6279 76.7908 64.5856 76.8389 64.5421 76.8884C64.4176 77.0326 64.4176 77.0326 64.2972 77.2088C64.2591 77.2561 64.221 77.3033 64.1817 77.352C64.1285 77.352 64.0754 77.352 64.0206 77.352C64.0206 77.4052 64.0206 77.4583 64.0206 77.5131C63.9098 77.644 63.9098 77.644 63.7789 77.7548C63.7257 77.7548 63.6725 77.7548 63.6177 77.7548C63.6177 77.808 63.6177 77.8612 63.6177 77.916C63.4824 78.0551 63.4824 78.0551 63.3056 78.208C63.2186 78.2843 63.2186 78.2843 63.1299 78.3622C62.9732 78.4799 62.9732 78.4799 62.8121 78.4799C62.8121 78.5331 62.8121 78.5863 62.8121 78.6411C62.6415 78.7978 62.6415 78.7978 62.4193 78.9734C62.3464 79.0318 62.2735 79.0901 62.1984 79.1503C62.0064 79.2856 62.0064 79.2856 61.8453 79.2856C61.8453 79.3388 61.8453 79.3919 61.8453 79.4467C61.7385 79.5226 61.6307 79.5974 61.5199 79.6673C61.3353 79.7861 61.1578 79.9133 60.9792 80.0409C59.6347 80.9799 58.1638 81.5607 56.6185 82.0853C56.5467 82.1099 56.4748 82.1346 56.4007 82.16C56.0117 82.29 55.6469 82.3746 55.2388 82.4277C55.0776 82.481 54.9165 82.5347 54.7554 82.5888C52.7226 83.032 50.6063 82.8605 48.5518 82.6694C48.4821 82.6634 48.4123 82.6573 48.3405 82.6511C46.3785 82.4806 44.4922 81.9259 42.7057 81.0983C42.4503 80.9804 42.1943 80.8657 41.9353 80.7559C40.1273 79.9499 38.3893 78.8593 36.8697 77.5937C36.829 77.5598 36.7883 77.526 36.7463 77.4911C35.6177 76.55 34.5117 75.5817 33.5665 74.4516C33.5017 74.3752 33.4369 74.2987 33.3701 74.22C33.2442 74.0488 33.2442 74.0488 33.2442 73.8876C33.191 73.8876 33.1379 73.8876 33.0831 73.8876C32.968 73.7411 32.8602 73.5888 32.7558 73.4345C32.7239 73.3873 32.6919 73.3402 32.659 73.2917C32.5579 73.1417 32.4578 72.9911 32.358 72.8403C32.3268 72.7934 32.2957 72.7465 32.2636 72.6981C31.8084 72.0101 31.3865 71.307 30.9884 70.5844C30.9515 70.5175 30.9146 70.4507 30.8766 70.3817C30.728 70.1001 30.6661 69.9428 30.6661 69.6176C30.6129 69.6176 30.5597 69.6176 30.505 69.6176C30.4738 69.5339 30.4426 69.4502 30.4105 69.364C30.3682 69.2504 30.3258 69.1369 30.2834 69.0234C30.2612 68.9639 30.239 68.9044 30.2161 68.8431C30.1019 68.5386 29.9852 68.2361 29.8604 67.9358C27.5101 62.0357 27.7944 55.1247 29.0218 48.9962C29.0583 48.8139 29.0944 48.6316 29.1305 48.4492C29.1996 48.1006 29.2695 47.7521 29.3399 47.4038C29.3676 47.2668 29.3951 47.1298 29.4225 46.9928C29.6262 45.9787 29.8704 44.9919 30.2056 44.0119C30.2938 43.7435 30.368 43.4715 30.4441 43.1996C30.6809 42.3574 30.9474 41.5288 31.2401 40.7043C31.273 40.6111 31.3058 40.5179 31.3396 40.4218C31.5369 39.8742 31.7614 39.3547 32.0357 38.8413C32.0889 38.8413 32.1421 38.8413 32.1969 38.8413C32.2234 38.7615 32.25 38.6817 32.2774 38.5996C32.3306 38.5996 32.3838 38.5996 32.4386 38.5996C32.4386 38.5464 32.4386 38.4932 32.4386 38.4384C32.5454 38.3736 32.653 38.3101 32.7608 38.2471C32.8505 38.1938 32.8505 38.1938 32.9421 38.1394C33.4881 37.8835 34.0194 37.849 34.6123 37.8474Z" fill="#FFBB59"/>
<path d="M133.238 34.0022C133.298 34.0026 133.357 34.003 133.419 34.0033C133.565 34.0043 133.711 34.0057 133.857 34.0073C133.857 34.0604 133.857 34.1136 133.857 34.1684C133.917 34.1762 133.977 34.184 134.038 34.192C134.29 34.2565 134.402 34.3417 134.592 34.5158C134.646 34.5637 134.699 34.6116 134.754 34.6609C135.146 35.0572 135.146 35.0572 135.146 35.2963C135.2 35.2963 135.253 35.2963 135.308 35.2963C135.625 35.831 135.682 36.2572 135.697 36.873C135.705 37.0614 135.712 37.2497 135.719 37.438C135.725 37.5864 135.725 37.5864 135.73 37.7378C135.748 38.2652 135.773 38.7923 135.798 39.3193C135.801 39.3732 135.804 39.4272 135.806 39.4827C135.894 41.2383 136.108 42.9809 136.325 44.7243C136.362 45.025 136.398 45.3259 136.434 45.6268C136.605 47.067 136.814 48.4965 137.067 49.9246C137.193 50.638 137.308 51.3516 137.407 52.0693C137.764 54.6198 137.764 54.6198 138.275 57.1427C138.442 57.8677 138.562 58.5951 138.661 59.3325C138.722 59.7729 138.806 60.1772 138.957 60.5958C139.036 60.8182 139.092 61.0449 139.15 61.274C139.3 61.8589 139.479 62.4345 139.658 63.0112C139.832 63.5697 140.004 64.1269 140.152 64.693C140.67 66.6979 140.67 66.6979 141.667 68.4998C141.945 68.927 141.954 69.4452 141.914 69.9399C141.815 70.2118 141.675 70.4281 141.511 70.665C141.481 70.7447 141.451 70.8245 141.42 70.9067C141.397 70.9599 141.374 71.013 141.35 71.0678C141.27 71.0944 141.19 71.121 141.108 71.1484C141.085 71.1958 141.062 71.2433 141.038 71.2922C140.742 71.8716 139.968 72.2752 139.416 72.5986C139.304 72.6688 139.191 72.7393 139.079 72.8101C139.026 72.843 138.973 72.8759 138.919 72.9098C138.793 72.988 138.669 73.0675 138.545 73.1474C138.369 73.2431 138.369 73.2431 138.127 73.2431C138.127 73.2963 138.127 73.3495 138.127 73.4042C138.021 73.4042 137.915 73.4042 137.805 73.4042C137.778 73.484 137.752 73.5638 137.725 73.6459C137.557 73.7435 137.557 73.7435 137.337 73.8373C137.256 73.872 137.176 73.9067 137.093 73.9424C137.009 73.9775 136.925 74.0126 136.838 74.0488C136.76 74.0822 136.682 74.1157 136.601 74.1501C136.359 74.2528 136.115 74.3522 135.871 74.4516C135.794 74.4838 135.717 74.516 135.638 74.5491C134.966 74.8201 134.293 74.998 133.585 75.1465C133.501 75.1645 133.501 75.1645 133.416 75.1828C131.904 75.5052 128.401 75.6988 126.855 75.7349C126.692 75.7389 126.528 75.744 126.364 75.7499C124.384 75.8194 124.384 75.8194 123.559 75.3378C123.497 75.3028 123.435 75.2678 123.371 75.2318C122.922 74.9391 122.602 74.558 122.431 74.0488C122.372 73.5354 122.401 73.0328 122.431 72.518C122.436 72.4281 122.44 72.3382 122.445 72.2456C122.511 70.9852 122.622 69.7341 122.779 68.4818C122.9 67.4704 122.939 66.4558 122.98 65.4387C123.028 64.2523 123.083 63.0676 123.166 61.8832C123.392 58.5616 123.03 55.2345 122.75 51.9258C122.694 51.2596 122.639 50.5932 122.586 49.9267C122.465 48.4018 122.337 46.8787 122.179 45.3571C122.004 43.6521 121.842 41.9457 121.871 40.2298C121.878 39.5167 121.818 38.8096 121.749 38.1002C121.69 37.4138 121.641 36.5863 122.109 36.0214C122.162 36.0214 122.215 36.0214 122.27 36.0214C122.323 35.8885 122.376 35.7556 122.431 35.6186C122.484 35.6186 122.537 35.6186 122.592 35.6186C122.592 35.5654 122.592 35.5123 122.592 35.4575C122.645 35.4575 122.699 35.4575 122.753 35.4575C122.753 35.4043 122.753 35.3511 122.753 35.2963C122.883 35.1981 122.883 35.1981 123.055 35.0949C123.14 35.0438 123.14 35.0438 123.225 34.9917C123.282 34.9593 123.339 34.9269 123.398 34.8935C123.444 34.8658 123.49 34.8381 123.538 34.8096C123.772 34.7105 123.973 34.7009 124.226 34.6871C124.326 34.681 124.425 34.675 124.528 34.6688C124.632 34.6632 124.736 34.6576 124.843 34.6518C125.508 34.615 126.158 34.5621 126.815 34.4536C127.432 34.3608 130.054 34.3064 130.675 34.2439C130.882 34.223 131.089 34.202 131.297 34.1807C131.424 34.1676 131.552 34.1547 131.68 34.142C133.064 34.0002 133.064 34.0002 133.238 34.0022Z" fill="#FFBB59"/>
<path d="M111.888 10.2914C111.956 10.2918 112.024 10.2922 112.094 10.2926C112.26 10.2936 112.427 10.2952 112.594 10.297C112.594 10.3559 112.594 10.4148 112.594 10.4755C112.661 10.484 112.728 10.4925 112.798 10.5013C113.085 10.5737 113.219 10.6724 113.437 10.866C113.5 10.9201 113.562 10.9742 113.626 11.0299C113.779 11.1896 113.779 11.1896 113.87 11.4575C113.93 11.4575 113.99 11.4575 114.052 11.4575C114.466 12.2823 114.834 13.1218 115.186 13.9737C115.226 14.0718 115.267 14.1699 115.31 14.271C115.347 14.3638 115.385 14.4566 115.424 14.5522C115.458 14.6353 115.493 14.7184 115.528 14.8041C115.601 15.0282 115.601 15.0282 115.601 15.3853C115.661 15.3853 115.722 15.3853 115.784 15.3853C115.808 15.4614 115.808 15.4614 115.833 15.539C116.135 16.4622 116.437 17.371 116.877 18.2411C117.041 18.5648 117.203 18.8897 117.364 19.2149C117.456 19.4007 117.548 19.5862 117.642 19.7713C117.684 19.8568 117.727 19.9423 117.771 20.0304C117.809 20.1072 117.848 20.184 117.887 20.263C117.971 20.4736 117.971 20.4736 117.971 20.8307C118.031 20.8307 118.091 20.8307 118.153 20.8307C118.185 20.9099 118.217 20.9891 118.25 21.0706C118.392 21.4002 118.567 21.7069 118.745 22.0191C118.989 22.4541 119.166 22.8655 119.291 23.3456C119.323 23.5091 119.323 23.5091 119.429 23.5981C119.493 24.4755 119.518 25.1875 118.936 25.8964C118.339 26.5392 117.45 27.2058 116.549 27.2881C115.218 27.318 114.256 26.9235 113.232 26.0976C113.232 26.0387 113.232 25.9798 113.232 25.9191C113.161 25.8887 113.161 25.8887 113.089 25.8577C112.786 25.6972 112.516 25.4959 112.241 25.2942C111.836 25.0002 111.431 24.7087 111.018 24.425C110.333 23.9529 109.68 23.4465 109.029 22.9299C108.694 22.6654 108.354 22.4061 108.014 22.1466C106.997 21.3674 106.997 21.3674 106.762 21.0985C106.762 21.0396 106.762 20.9807 106.762 20.92C106.711 20.8979 106.66 20.8758 106.608 20.853C106.359 20.721 106.153 20.5687 105.942 20.3844C105.942 20.3255 105.942 20.2665 105.942 20.2058C105.889 20.1819 105.836 20.158 105.781 20.1333C105.575 20.026 105.413 19.9078 105.236 19.7595C105.18 19.7135 105.124 19.6674 105.066 19.62C104.939 19.4917 104.939 19.4917 104.939 19.3131C104.855 19.2717 104.855 19.2717 104.768 19.2295C104.643 19.1681 104.518 19.1067 104.393 19.0453C104.393 18.9864 104.393 18.9275 104.393 18.8668C104.302 18.8373 104.212 18.8079 104.119 18.7775C104.119 18.7186 104.119 18.6597 104.119 18.599C104.059 18.599 103.999 18.599 103.937 18.599C103.937 18.5401 103.937 18.4812 103.937 18.4205C103.877 18.4205 103.817 18.4205 103.755 18.4205C103.5 18.0001 103.446 17.6611 103.464 17.1818C103.465 17.1204 103.467 17.0589 103.468 16.9956C103.471 16.8457 103.476 16.6957 103.481 16.5458C103.541 16.5458 103.602 16.5458 103.664 16.5458C103.656 16.4574 103.649 16.369 103.641 16.278C103.648 15.5389 104.129 15.0684 104.637 14.5714C104.853 14.3995 105.041 14.3109 105.304 14.2248C105.304 14.1659 105.304 14.107 105.304 14.0463C105.532 13.9124 105.532 13.9124 105.76 13.7785C105.826 13.7113 105.893 13.644 105.962 13.5748C106.248 13.3002 106.55 13.0878 106.882 12.869C106.944 12.8272 107.007 12.7853 107.072 12.7421C107.535 12.4361 108.004 12.1392 108.476 11.848C108.538 11.81 108.599 11.772 108.663 11.7329C108.908 11.5836 109.13 11.458 109.405 11.3682C109.405 11.3093 109.405 11.2504 109.405 11.1896C109.804 10.9218 109.804 10.9218 110.043 10.9218C110.043 10.8629 110.043 10.804 110.043 10.7433C110.156 10.6852 110.27 10.6277 110.384 10.5703C110.479 10.5222 110.479 10.5222 110.576 10.4731C111.008 10.2811 111.421 10.2861 111.888 10.2914Z" fill="#FFBB59"/>
<path d="M126.832 8.29056C126.948 8.29043 127.064 8.29031 127.183 8.29017C127.428 8.29032 127.672 8.29134 127.917 8.29318C128.285 8.29572 128.654 8.29501 129.022 8.29385C133.108 8.29701 133.108 8.29701 134.558 9.39701C134.558 9.45545 134.558 9.51389 134.558 9.5741C134.62 9.5741 134.682 9.5741 134.745 9.5741C134.745 9.63254 134.745 9.69098 134.745 9.75119C134.808 9.75119 134.87 9.75119 134.933 9.75119C134.995 9.85966 135.055 9.96859 135.116 10.0777C135.166 10.1686 135.166 10.1686 135.218 10.2614C135.689 11.2832 135.376 12.527 135.109 13.5614C135.019 13.9096 134.934 14.2589 134.849 14.6079C134.832 14.6772 134.814 14.7465 134.797 14.8179C134.645 15.4337 134.515 16.0526 134.393 16.6742C133.954 18.8822 133.954 18.8822 133.601 19.7423C133.518 19.9492 133.442 20.1576 133.368 20.3674C133.028 21.3237 132.662 22.2693 132.261 23.2043C132.222 23.3002 132.182 23.396 132.142 23.4948C131.841 24.1789 131.446 24.7413 130.709 25.0599C129.453 25.4124 127.797 25.367 126.582 24.8707C126.375 24.7538 126.375 24.7538 126.099 24.538C126.099 24.4795 126.099 24.4211 126.099 24.3609C126.037 24.3609 125.975 24.3609 125.911 24.3609C125.88 24.1856 125.849 24.0103 125.817 23.8296C125.755 23.8296 125.693 23.8296 125.629 23.8296C125.628 23.7768 125.627 23.7239 125.625 23.6695C125.594 23.1409 125.486 22.6621 125.318 22.1584C124.906 20.9065 124.701 19.626 124.535 18.3273C124.418 17.4512 124.247 16.5851 124.079 15.7168C123.72 13.8564 123.411 12.0925 123.468 10.1939C123.53 10.1939 123.592 10.1939 123.656 10.1939C123.665 10.13 123.675 10.0661 123.685 10.0002C123.818 9.48645 124.092 9.24026 124.537 8.94703C124.689 8.86575 124.689 8.86575 124.877 8.86575C124.877 8.80731 124.877 8.74887 124.877 8.68866C125.534 8.30794 126.071 8.28367 126.832 8.29056Z" fill="#FFBB59"/>
<path d="M147.915 13.1672C148.355 13.4994 148.777 13.8513 149.199 14.2042C149.68 14.6047 150.173 14.9694 150.698 15.3176C150.966 15.4982 151.225 15.6797 151.473 15.8843C151.473 15.9501 151.473 16.0159 151.473 16.0837C151.543 16.0837 151.612 16.0837 151.684 16.0837C151.839 16.2913 151.839 16.2913 152.006 16.5636C152.089 16.6972 152.089 16.6972 152.174 16.8335C152.509 17.4212 152.488 18.0236 152.42 18.6762C152.071 19.7393 151.189 20.4758 150.316 21.1689C150.17 21.2869 150.17 21.2869 150.022 21.4073C149.521 21.8117 149.019 22.2131 148.507 22.6046C147.023 23.742 145.829 24.9034 144.688 26.3546C144.461 26.6411 144.228 26.9219 143.992 27.2013C143.92 27.2867 143.848 27.372 143.774 27.46C143.584 27.65 143.584 27.65 143.269 27.7497C143.234 27.9143 143.199 28.0788 143.163 28.2483C143.094 28.2483 143.025 28.2483 142.953 28.2483C142.925 28.312 142.897 28.3758 142.868 28.4415C142.743 28.6471 142.743 28.6471 142.427 28.7468C142.427 28.8127 142.427 28.8785 142.427 28.9463C141.905 29.2405 141.506 29.2967 140.915 29.289C140.836 29.2884 140.756 29.2878 140.675 29.2872C139.81 29.2641 139.301 28.9819 138.64 28.4477C138.571 28.4148 138.501 28.3819 138.43 28.348C138.43 28.2822 138.43 28.2164 138.43 28.1486C138.361 28.1486 138.291 28.1486 138.22 28.1486C138.22 28.0828 138.22 28.017 138.22 27.9492C138.115 27.9163 138.011 27.8834 137.904 27.8495C137.424 27.2084 137.435 26.5114 137.483 25.7556C137.553 25.7556 137.622 25.7556 137.694 25.7556C137.687 25.6754 137.681 25.5952 137.674 25.5125C137.699 25.0529 137.841 24.6891 138.009 24.2599C138.057 24.1341 138.105 24.0083 138.152 23.8825C138.408 23.2133 138.675 22.5652 139.025 21.9343C139.206 21.5917 139.363 21.2408 139.521 20.8885C139.807 20.2564 140.131 19.6596 140.482 19.0575C140.642 18.7708 140.77 18.4894 140.879 18.1825C140.957 17.9706 141.045 17.7641 141.135 17.5564C141.323 17.1123 141.499 16.6641 141.67 16.2138C141.751 16.0047 141.831 15.7956 141.912 15.5865C141.966 15.4442 142.02 15.3017 142.074 15.159C142.84 13.124 142.84 13.124 143.975 12.5904C145.426 12.0097 146.67 12.3066 147.915 13.1672Z" fill="#FFBB59"/>
<path d="M57.4141 40.7749C57.4938 40.8015 57.5736 40.8281 57.6558 40.8555C57.5522 40.9634 57.448 41.0707 57.3436 41.1777C57.2856 41.2376 57.2277 41.2974 57.168 41.359C57.0112 41.5 57.0112 41.5 56.8501 41.5C56.8501 41.4468 56.8501 41.3937 56.8501 41.3389C56.9033 41.3389 56.9564 41.3389 57.0112 41.3389C57.0112 41.2857 57.0112 41.2325 57.0112 41.1777C57.0644 41.1777 57.1176 41.1777 57.1724 41.1777C57.199 41.098 57.2255 41.0182 57.2529 40.936C57.3061 40.936 57.3593 40.936 57.4141 40.936C57.4141 40.8829 57.4141 40.8297 57.4141 40.7749Z" fill="#FFBB59"/>
</svg>
