<svg width="104" height="17" viewBox="0 0 104 17" fill="none" xmlns="http://www.w3.org/2000/svg">
<path d="M4.54 16V3.86H7.82V16H4.54ZM0.44 4.26V1.4H11.94V4.26H0.44ZM17.7766 16.38C16.8166 16.38 15.9632 16.2333 15.2166 15.94C14.4699 15.6333 13.8366 15.22 13.3166 14.7C12.8099 14.18 12.4232 13.5867 12.1566 12.92C11.8899 12.24 11.7566 11.5267 11.7566 10.78V10.32C11.7566 9.56 11.8899 8.84 12.1566 8.16C12.4366 7.46667 12.8366 6.86 13.3566 6.34C13.8899 5.82 14.5299 5.41333 15.2766 5.12C16.0232 4.81333 16.8566 4.66 17.7766 4.66C18.7232 4.66 19.5632 4.81333 20.2966 5.12C21.0432 5.41333 21.6766 5.82 22.1966 6.34C22.7166 6.86 23.1166 7.46667 23.3966 8.16C23.6766 8.84 23.8166 9.56 23.8166 10.32V10.78C23.8166 11.5267 23.6832 12.24 23.4166 12.92C23.1499 13.5867 22.7566 14.18 22.2366 14.7C21.7299 15.22 21.1032 15.6333 20.3566 15.94C19.6099 16.2333 18.7499 16.38 17.7766 16.38ZM17.7766 13.68C18.4032 13.68 18.9232 13.5467 19.3366 13.28C19.7499 13.0133 20.0632 12.64 20.2766 12.16C20.5032 11.68 20.6166 11.1467 20.6166 10.56C20.6166 9.93333 20.5032 9.38667 20.2766 8.92C20.0499 8.44 19.7232 8.06 19.2966 7.78C18.8832 7.5 18.3766 7.36 17.7766 7.36C17.1899 7.36 16.6832 7.5 16.2566 7.78C15.8299 8.06 15.5032 8.44 15.2766 8.92C15.0632 9.38667 14.9566 9.93333 14.9566 10.56C14.9566 11.1467 15.0632 11.68 15.2766 12.16C15.4899 12.64 15.8099 13.0133 16.2366 13.28C16.6632 13.5467 17.1766 13.68 17.7766 13.68ZM25.4698 11.76V8.92H33.8898V11.76H25.4698ZM40.7456 16.36C39.9723 16.36 39.2656 16.22 38.6256 15.94C37.999 15.66 37.4523 15.2733 36.9856 14.78C36.519 14.2733 36.159 13.68 35.9056 13C35.6656 12.32 35.5456 11.5867 35.5456 10.8V10.34C35.5456 9.55333 35.659 8.82 35.8856 8.14C36.1256 7.46 36.4656 6.86667 36.9056 6.36C37.359 5.84 37.899 5.44 38.5256 5.16C39.1523 4.86667 39.8523 4.72 40.6256 4.72C41.5056 4.72 42.2656 4.91333 42.9056 5.3C43.5456 5.67333 44.0456 6.23333 44.4056 6.98C44.7656 7.71333 44.9656 8.62 45.0056 9.7L44.1656 8.92V1.4H47.3856V16H44.8456V11.46H45.2856C45.2456 12.5 45.0256 13.3867 44.6256 14.12C44.239 14.8533 43.7123 15.4133 43.0456 15.8C42.379 16.1733 41.6123 16.36 40.7456 16.36ZM41.5456 13.68C42.039 13.68 42.4856 13.5733 42.8856 13.36C43.299 13.1333 43.6256 12.8067 43.8656 12.38C44.119 11.9533 44.2456 11.44 44.2456 10.84V10.1C44.2456 9.51333 44.119 9.02 43.8656 8.62C43.6123 8.22 43.279 7.91333 42.8656 7.7C42.4523 7.48667 42.0056 7.38 41.5256 7.38C40.9923 7.38 40.5123 7.52 40.0856 7.8C39.6723 8.06667 39.3456 8.44 39.1056 8.92C38.8656 9.38667 38.7456 9.93333 38.7456 10.56C38.7456 11.2 38.8656 11.7533 39.1056 12.22C39.3456 12.6867 39.679 13.0467 40.1056 13.3C40.5323 13.5533 41.0123 13.68 41.5456 13.68ZM55.6281 16.38C54.6681 16.38 53.8148 16.2333 53.0681 15.94C52.3215 15.6333 51.6881 15.22 51.1681 14.7C50.6615 14.18 50.2748 13.5867 50.0081 12.92C49.7415 12.24 49.6081 11.5267 49.6081 10.78V10.32C49.6081 9.56 49.7415 8.84 50.0081 8.16C50.2881 7.46667 50.6881 6.86 51.2081 6.34C51.7415 5.82 52.3815 5.41333 53.1281 5.12C53.8748 4.81333 54.7081 4.66 55.6281 4.66C56.5748 4.66 57.4148 4.81333 58.1481 5.12C58.8948 5.41333 59.5281 5.82 60.0481 6.34C60.5681 6.86 60.9681 7.46667 61.2481 8.16C61.5281 8.84 61.6681 9.56 61.6681 10.32V10.78C61.6681 11.5267 61.5348 12.24 61.2681 12.92C61.0015 13.5867 60.6081 14.18 60.0881 14.7C59.5815 15.22 58.9548 15.6333 58.2081 15.94C57.4615 16.2333 56.6015 16.38 55.6281 16.38ZM55.6281 13.68C56.2548 13.68 56.7748 13.5467 57.1881 13.28C57.6015 13.0133 57.9148 12.64 58.1281 12.16C58.3548 11.68 58.4681 11.1467 58.4681 10.56C58.4681 9.93333 58.3548 9.38667 58.1281 8.92C57.9015 8.44 57.5748 8.06 57.1481 7.78C56.7348 7.5 56.2281 7.36 55.6281 7.36C55.0415 7.36 54.5348 7.5 54.1081 7.78C53.6815 8.06 53.3548 8.44 53.1281 8.92C52.9148 9.38667 52.8081 9.93333 52.8081 10.56C52.8081 11.1467 52.9148 11.68 53.1281 12.16C53.3415 12.64 53.6615 13.0133 54.0881 13.28C54.5148 13.5467 55.0281 13.68 55.6281 13.68ZM68.2806 16V1.4H71.5606V16H68.2806ZM71.1606 16V13.12H77.2806V16H71.1606ZM79.773 16V5.04H82.973V16H79.773ZM78.313 7.4V5.04H82.973V7.4H78.313ZM81.013 3.96C80.413 3.96 79.9663 3.80667 79.673 3.5C79.393 3.18 79.253 2.78 79.253 2.3C79.253 1.80667 79.393 1.40667 79.673 1.1C79.9663 0.779999 80.413 0.619999 81.013 0.619999C81.613 0.619999 82.053 0.779999 82.333 1.1C82.6263 1.40667 82.773 1.80667 82.773 2.3C82.773 2.78 82.6263 3.18 82.333 3.5C82.053 3.80667 81.613 3.96 81.013 3.96ZM90.0927 16.34C88.5327 16.34 87.3127 16.02 86.4327 15.38C85.5527 14.74 85.086 13.84 85.0327 12.68H87.8727C87.926 13.0267 88.1327 13.34 88.4927 13.62C88.866 13.8867 89.4193 14.02 90.1527 14.02C90.7127 14.02 91.1727 13.9267 91.5327 13.74C91.906 13.54 92.0927 13.26 92.0927 12.9C92.0927 12.58 91.9527 12.3267 91.6727 12.14C91.3927 11.94 90.8927 11.8 90.1727 11.72L89.3127 11.64C87.9927 11.5067 86.9993 11.14 86.3327 10.54C85.6793 9.94 85.3527 9.17333 85.3527 8.24C85.3527 7.46667 85.546 6.82 85.9327 6.3C86.3193 5.78 86.8527 5.38667 87.5327 5.12C88.226 4.85333 89.0127 4.72 89.8927 4.72C91.306 4.72 92.446 5.03333 93.3127 5.66C94.1793 6.27333 94.6327 7.16667 94.6727 8.34H91.8327C91.7793 7.98 91.5927 7.68 91.2727 7.44C90.9527 7.18667 90.4793 7.06 89.8527 7.06C89.3593 7.06 88.966 7.15333 88.6727 7.34C88.3793 7.52667 88.2327 7.78 88.2327 8.1C88.2327 8.40667 88.3593 8.64 88.6127 8.8C88.866 8.96 89.2793 9.07333 89.8527 9.14L90.7127 9.22C92.0593 9.36667 93.106 9.74 93.8527 10.34C94.5993 10.94 94.9727 11.7467 94.9727 12.76C94.9727 13.4933 94.7727 14.1333 94.3727 14.68C93.9727 15.2133 93.406 15.6267 92.6727 15.92C91.9393 16.2 91.0793 16.34 90.0927 16.34ZM102.026 16.14C100.919 16.14 100.026 16.0067 99.3459 15.74C98.6659 15.46 98.1659 15 97.8459 14.36C97.5393 13.7067 97.3859 12.8267 97.3859 11.72V2.08H100.366V11.84C100.366 12.36 100.499 12.76 100.766 13.04C101.046 13.3067 101.439 13.44 101.946 13.44H103.566V16.14H102.026ZM95.7259 7.38V5.04H103.566V7.38H95.7259Z" fill="#1B320F"/>
</svg>
